{
DisplayStrings = (
B
);
classes = (
{
automatic = 1;
code = "A A.alt Aacute Abreve Acircumflex Acircumflexhookabove Adieresis Agrave Amacron Aogonek Aring Atilde AE B C Cacute Ccaron Ccedilla D Eth Dcaron Dcroat E Eacute Ecaron Ecircumflex Edieresis Edotaccent Egrave Emacron Eogonek F G Gcommaaccent H Hbar I Iacute Icircumflex Idieresis Idotaccent Igrave Imacron Iogonek J K Kcommaaccent L Lacute Lcaron Lcommaaccent Ldot Lslash M N Nacute Ncaron Ncommaaccent Eng Ntilde O Oacute Ocircumflex Odieresis Ograve Ohungarumlaut Omacron Oslash Otilde OE P Thorn Q Q.swsh R R.swsh Racute Rcaron Rcommaaccent S Sacute Scaron Scedilla Germandbls T Tbar Tcaron Tcedilla U Uacute Ucircumflex Udieresis Ugrave Uhungarumlaut Umacron Uogonek Uring V W Wacute Wcircumflex Wdieresis Wgrave X Y Yacute Ycircumflex Ydieresis Ygrave Z Zacute Zcaron Zdotaccent Be-cy De-cy Zhe-cy Ef-cy";
name = Uppercase;
}
);
copyright = "Aoife Mooney";
date = "2015-06-25 01:21:12 +0000";
designer = "Aoife Mooney";
designerURL = www.aoifemooney.org;
familyName = "BioRhyme";
featurePrefixes = (
{
automatic = 1;
code = "languagesystem DFLT dflt;\012languagesystem latn dflt;\012languagesystem latn CAT;\012languagesystem latn ROM;\012languagesystem latn MOL;\012languagesystem latn KAZ;\012languagesystem latn TAT;\012languagesystem latn TRK;\012languagesystem latn CRT;\012languagesystem latn AZE;\012";
name = Languagesystems;
}
);
features = (
{
automatic = 1;
code = "feature ccmp;\012feature locl;\012feature sups;\012feature numr;\012feature dnom;\012feature frac;\012feature ordn;\012feature swsh;\012feature ss01;\012feature ss02;\012feature ss03;\012feature ss04;\012feature ss05;\012feature ss06;\012feature mgrk;\012";
name = aalt;
},
{
automatic = 1;

glyphs = (
{
glyphname = A;
lastChange = "2016-01-15 16:42:16 +0000";
layers = (
{
anchors = (
{
name = bottom;
position = "{616, 0}";
},
{
name = hook;
position = "{724, 702}";
},
{
name = ogonek;
position = "{1235, 0}";
},
{
name = top;
position = "{614, 624}";
}
);
layerId = "B29C398E-974A-40D0-A0A0-00935056D4B4";
paths = (
{
closed = 1;
nodes = (
"215 16 LINE",
"617 602 LINE",
"613 602 LINE",
"1015 16 LINE",
"1050 16 LINE",
"637 612 LINE SMOOTH",
"592 612 LINE",
"180 16 LINE"
);
},
{
closed = 1;
nodes = (
"401 0 LINE",
"401 28 LINE",
"-6 28 LINE",
"-6 0 LINE"
);
},
{
closed = 1;
nodes = (
"877 239 LINE",
"857 266 LINE",
"370 266 LINE",
"348 239 LINE"
);
},
{
closed = 1;
nodes = (
"1235 0 LINE",
"1235 28 LINE",
"829 28 LINE",
"829 0 LINE"
);
},
{
closed = 1;
nodes = (
"840 596 LINE",
"840 624 LINE",
"389 624 LINE",
"389 596 LINE"
);
}
);
width = 1229;
},
{
anchors = (
{
name = bottom;
position = "{395, 0}";
},
{
name = hook;
position = "{486, 696}";
},
{
name = ogonek;
position = "{682, 16}";
},
{
name = top;
position = "{396, 624}";
}
);
layerId = "543F9737-16F7-428D-9F96-2EBD9FC8D3B6";
paths = (
{
closed = 1;
nodes = (
"144 16 LINE",
"392 602 LINE",
"400 602 LINE",
"648 16 LINE",
"682 16 LINE",
"420 612 LINE SMOOTH",
"372 612 LINE",
"114 16 LINE"
);
},
{
closed = 1;
nodes = (
"269 0 LINE",
"269 28 LINE",
"-6 28 LINE",
"-6 0 LINE"
);
},
{
closed = 1;
nodes = (
"576 238 LINE",
"556 265 LINE",
"236 265 LINE",
"215 238 LINE"
);
},
{
closed = 1;
nodes = (
"800 0 LINE",
"800 28 LINE",
"527 28 LINE",
"527 0 LINE"
);
},
{
closed = 1;
nodes = (
"556 596 LINE",
"556 624 LINE",
"236 624 LINE",
"236 596 LINE"
);
}
);
width = 794;
},
{
anchors = (
{
name = bottom;
position = "{377, 0}";
},
{
name = hook;
position = "{460, 766}";
},
{
name = ogonek;
position = "{745, 0}";
},
{
name = top;
position = "{374, 624}";
}
);
layerId = "EB38A4D2-CD30-49BA-8E45-1F04A566FFE8";
paths = (
{
closed = 1;
nodes = (
"185 16 LINE",
"392 568 LINE",
"349 568 LINE",
"556 16 LINE",
"712 16 LINE",
"478 565 LINE SMOOTH",
"276 565 LINE",
"44 16 LINE"
);
},
{
closed = 1;
nodes = (
"324 0 LINE",
"324 115 LINE",
"12 115 LINE",
"12 0 LINE"
);
},
{
closed = 1;
nodes = (
"529 206 LINE",
"509 308 LINE",
"238 308 LINE",
"216 206 LINE"
);
},
{
closed = 1;
nodes = (
"745 0 LINE",
"745 115 LINE",
"427 115 LINE",
"427 0 LINE"
);
},
{
closed = 1;
nodes = (
"565 509 LINE",
"565 624 LINE",
"188 624 LINE",
"188 509 LINE"
);
}
);
width = 757;
},
{
anchors = (
{
name = bottom;
position = "{617, 0}";
},
{
name = hook;
position = "{716, 772}";
},
{
name = ogonek;
position = "{1223, 0}";
},
{
name = top;
position = "{613, 624}";
}
);
layerId = "C70E3B11-AF58-44B6-92D7-58C9185F522D";
paths = (
{
closed = 1;
nodes = (
"260 16 LINE",
"644 556 LINE",
"580 556 LINE",
"962 16 LINE",
"1129 16 LINE",
"714 553 LINE SMOOTH",
"509 553 LINE",
"94 16 LINE"
);
},
{
closed = 1;
nodes = (
"451 0 LINE",
"451 115 LINE",
"0 115 LINE",
"0 0 LINE"
);
},
{
closed = 1;
nodes = (
"850 208 LINE",
"829 312 LINE",
"390 312 LINE",
"368 208 LINE"
);
},
{
closed = 1;
nodes = (
"1223 0 LINE",
"1223 115 LINE",
"773 115 LINE",
"773 0 LINE"
);
},
{
closed = 1;
nodes = (
"869 509 LINE",
"869 624 LINE",
"353 624 LINE",
"353 509 LINE"
);
}
);
width = 1223;
}
);
leftKerningGroup = A;
rightKerningGroup = A;
unicode = 0041;
},
{
glyphname = A.alt;
lastChange = "2016-01-15 16:42:16 +0000";
layers = (
{
anchors = (
{
name = bottom;
position = "{616, 0}";
},
{
name = hook;
position = "{724, 714}";
},
{
name = ogonek;
position = "{1235, 0}";
},
{
name = top;
position = "{614, 636}";
}
);
background = {
paths = (
{
closed = 1;
nodes = (
"160 0 LINE",
"451 416 LINE",
"746 0 LINE",
"757 22 LINE",
"451 451 LINE",
"149 22 LINE"
);
},
{
closed = 1;
nodes = (
"626 181 LINE",
"274 181 LINE",
"258 160 LINE",
"642 160 LINE"
);
},
{
closed = 1;
nodes = (
"299 -1 LINE",
"299 22 LINE",
"0 22 LINE",
"0 -1 LINE"
);
},
{
closed = 1;
nodes = (
"607 22 LINE",
"607 -1 LINE",
"902 -1 LINE",
"904 22 LINE"
);
}
);
};
layerId = "B29C398E-974A-40D0-A0A0-00935056D4B4";
paths = (
{
closed = 1;
nodes = (
"614 636 LINE",
"186 16 LINE",
"221 16 LINE",
"625 598 LINE",
"611 598 LINE",
"1014 16 LINE",
"1049 16 LINE",
"622 636 LINE"
);
},
{
closed = 1;
nodes = (
"1234 0 LINE",
"1234 28 LINE",
"829 28 LINE",
"829 0 LINE"
);
},
{
closed = 1;
nodes = (
"404 0 LINE",
"404 28 LINE",
"0 28 LINE",
"0 0 LINE"
);
},
{
closed = 1;
nodes = (
"865 247 LINE",
"371 247 LINE",
"348 220 LINE",
"883 220 LINE"
);
}
);
width = 1234;
},
{
anchors = (
{
name = bottom;
position = "{409, 0}";
},
{
name = hook;
position = "{509, 714}";
},
{
name = ogonek;
position = "{808, 0}";
},
{
name = top;
position = "{408, 636}";
}
);
layerId = "543F9737-16F7-428D-9F96-2EBD9FC8D3B6";
paths = (
{
closed = 1;
nodes = (
"400 636 LINE",
"120 16 LINE",
"150 16 LINE",
"409 595 LINE",
"397 595 LINE",
"656 16 LINE",
"689 16 LINE",
"407 636 LINE"
);
},
{
closed = 1;
nodes = (
"808 0 LINE",
"808 28 LINE",
"511 28 LINE",
"511 0 LINE"
);
},
{
closed = 1;
nodes = (
"296 0 LINE",
"296 28 LINE",
"0 28 LINE",
"0 0 LINE"
);
},
{
closed = 1;
nodes = (
"559 246 LINE",
"245 246 LINE",
"224 218 LINE",
"580 218 LINE"
);
}
);
width = 808;
},
{
anchors = (
{
name = bottom;
position = "{409, 0}";
},
{
name = hook;
position = "{509, 714}";
},
{
name = ogonek;
position = "{817, 0}";
},
{
name = top;
position = "{408, 636}";
}
);
layerId = "EB38A4D2-CD30-49BA-8E45-1F04A566FFE8";
paths = (
{
closed = 1;
nodes = (
"371 636 LINE",
"41 16 LINE",
"197 16 LINE",
"440 523 LINE",
"371 523 LINE",
"614 16 LINE",
"778 16 LINE",
"449 636 LINE"
);
},
{
closed = 1;
nodes = (
"817 0 LINE",
"817 115 LINE",
"492 115 LINE",
"492 0 LINE"
);
},
{
closed = 1;
nodes = (
"325 0 LINE",
"325 115 LINE",
"0 115 LINE",
"0 0 LINE"
);
},
{
closed = 1;
nodes = (
"540 298 LINE",
"274 298 LINE",
"253 193 LINE",
"560 193 LINE"
);
}
);
width = 817;
},
{
anchors = (
{
name = bottom;
position = "{624, 0}";
},
{
name = hook;
position = "{724, 714}";
},
{
name = ogonek;
position = "{1243, 0}";
},
{
name = top;
position = "{623, 636}";
}
);
layerId = "C70E3B11-AF58-44B6-92D7-58C9185F522D";
paths = (
{
closed = 1;
nodes = (
"586 636 LINE",
"107 16 LINE",
"268 16 LINE",
"656 526 LINE",
"584 526 LINE",
"972 16 LINE",
"1138 16 LINE",
"664 636 LINE"
);
},
{
closed = 1;
nodes = (
"1243 0 LINE",
"1243 115 LINE",
"810 115 LINE",
"810 0 LINE"
);
},
{
closed = 1;
nodes = (
"433 0 LINE",
"433 115 LINE",
"0 115 LINE",
"0 0 LINE"
);
},
{
closed = 1;
nodes = (
"846 299 LINE",
"400 299 LINE",
"377 194 LINE",
"864 194 LINE"
);
}
);
width = 1243;
}
);
leftKerningGroup = A;
rightKerningGroup = A;
},
{
glyphname = AE;
lastChange = "2016-01-15 16:42:16 +0000";
layers = (
{
anchors = (
{
name = bottom;
position = "{938, 0}";
},
{
name = ogonek;
position = "{1547, 0}";
},
{
name = top;
position = "{940, 624}";
}
);
layerId = "B29C398E-974A-40D0-A0A0-00935056D4B4";
paths = (
{
closed = 1;
nodes = (
"222 16 LINE",
"748 602 LINE",
"736 602 LINE",
"1024 16 LINE",
"1057 16 LINE",
"763 612 LINE SMOOTH",
"716 612 LINE",
"182 16 LINE"
);
},
{
closed = 1;
nodes = (
"419 0 LINE",
"419 28 LINE",
"0 28 LINE",
"0 0 LINE"
);
},
{
closed = 1;
nodes = (
"923 233 LINE",
"923 260 LINE",
"431 260 LINE",
"402 233 LINE"
);
},
{
closed = 1;
nodes = (
"1547 0 LINE",
"1547 220 LINE",
"1518 220 LINE",
"1518 28 LINE",
"808 28 LINE",
"808 0 LINE"
);
},
{
closed = 1;
nodes = (
"1228 190 LINE",
"1228 476 LINE",
"1198 476 LINE",
"1198 347 LINE",
"884 347 LINE",
"884 319 LINE",
"1198 319 LINE",
"1198 190 LINE"
);
},
{
closed = 1;
nodes = (
"1547 404 LINE",
"1547 624 LINE",
"496 624 LINE",
"496 596 LINE",
"1517 596 LINE",
"1517 404 LINE"
);
}
);
width = 1703;
},
{
anchors = (
{
name = bottom;
position = "{614, 0}";
},
{
name = ogonek;
position = "{1056, 0}";
},
{
name = top;
position = "{616, 624}";
}
);
layerId = "543F9737-16F7-428D-9F96-2EBD9FC8D3B6";
paths = (
{
closed = 1;
nodes = (
"150 16 LINE",
"521 601 LINE",
"521 601 LINE",
"678 16 LINE",
"712 16 LINE",
"546 612 LINE SMOOTH",
"496 612 LINE",
"118 16 LINE"
);
},
{
closed = 1;
nodes = (
"275 0 LINE",
"275 28 LINE",
"0 28 LINE",
"0 0 LINE"
);
},
{
closed = 1;
nodes = (
"630 238 LINE",
"610 265 LINE",
"290 265 LINE",
"269 238 LINE"
);
},
{
closed = 1;
nodes = (
"1056 0 LINE",
"1056 163 LINE",
"1027 163 LINE",
"1027 28 LINE",
"557 28 LINE",
"557 0 LINE"
);
},
{
closed = 1;
nodes = (
"869 214 LINE",
"869 440 LINE",
"839 440 LINE",
"839 341 LINE",
"610 341 LINE",
"610 313 LINE",
"839 313 LINE",
"839 214 LINE"
);
},
{
closed = 1;
nodes = (
"1056 461 LINE",
"1056 624 LINE",
"362 624 LINE",
"362 596 LINE",
"1026 596 LINE",
"1026 461 LINE"
);
}
);
width = 1134;
},
{
anchors = (
{
name = bottom;
position = "{558, 0}";
},
{
name = ogonek;
position = "{1026, 0}";
},
{
name = top;
position = "{559, 624}";
}
);
layerId = "EB38A4D2-CD30-49BA-8E45-1F04A566FFE8";
paths = (
{
closed = 1;
nodes = (
"150 16 LINE",
"474 556 LINE",
"418 556 LINE",
"554 16 LINE",
"702 16 LINE",
"558 553 LINE SMOOTH",
"341 553 LINE",
"0 16 LINE"
);
},
{
closed = 1;
nodes = (
"292 0 LINE",
"292 115 LINE",
"1 115 LINE",
"1 0 LINE"
);
},
{
closed = 1;
nodes = (
"596 209 LINE",
"576 311 LINE",
"248 311 LINE",
"227 209 LINE"
);
},
{
closed = 1;
nodes = (
"1026 0 LINE",
"1026 232 LINE",
"896 232 LINE",
"896 115 LINE",
"421 115 LINE",
"421 0 LINE"
);
},
{
closed = 1;
nodes = (
"823 181 LINE",
"823 428 LINE",
"715 428 LINE",
"715 359 LINE",
"527 359 LINE",
"527 251 LINE",
"715 251 LINE",
"715 181 LINE"
);
},
{
closed = 1;
nodes = (
"1026 397 LINE",
"1026 624 LINE",
"252 624 LINE",
"252 509 LINE",
"896 509 LINE",
"896 397 LINE"
);
}
);
width = 1086;
},
{
anchors = (
{
name = bottom;
position = "{907, 0}";
},
{
name = ogonek;
position = "{1458, 0}";
},
{
name = top;
position = "{908, 624}";
}
);
layerId = "C70E3B11-AF58-44B6-92D7-58C9185F522D";
paths = (
{
closed = 1;
nodes = (
"233 16 LINE",
"710 557 LINE",
"631 557 LINE",
"899 16 LINE",
"1046 16 LINE",
"774 553 LINE SMOOTH",
"560 553 LINE",
"64 16 LINE"
);
},
{
closed = 1;
nodes = (
"434 0 LINE",
"434 115 LINE",
"0 115 LINE",
"0 0 LINE"
);
},
{
closed = 1;
nodes = (
"888 202 LINE",
"888 306 LINE",
"388 306 LINE",
"359 202 LINE"
);
},
{
closed = 1;
nodes = (
"1516 0 LINE",
"1516 276 LINE",
"1386 276 LINE",
"1386 115 LINE",
"671 115 LINE",
"671 0 LINE"
);
},
{
closed = 1;
nodes = (
"1205 157 LINE",
"1205 464 LINE",
"1090 464 LINE",
"1090 362 LINE",
"800 362 LINE",
"800 258 LINE",
"1090 258 LINE",
"1090 157 LINE"
);
},
{
closed = 1;
nodes = (
"1516 353 LINE",
"1516 624 LINE",
"384 624 LINE",
"384 509 LINE",
"1386 509 LINE",
"1386 353 LINE"
);
}
);
width = 1636;
}
);
leftKerningGroup = AE;
rightKerningGroup = E;
rightMetricsKey = "=E";
unicode = 00C6;
},
{
glyphname = B;
lastChange = "2016-01-15 16:42:16 +0000";
layers = (
{
anchors = (
{
name = bottom;
position = "{554, 0}";
},
{
name = top;
position = "{554, 624}";
}
);
background = {
paths = (
{
closed = 1;
nodes = (
"316 17 LINE",
"316 574 LINE",
"286 574 LINE",
"286 17 LINE"
);
},
{
closed = 1;
nodes = (
"797 296 LINE",
"931 296 OFFCURVE",
"994 362 OFFCURVE",
"994 438 CURVE SMOOTH",
"994 532 OFFCURVE",
"923 588 OFFCURVE",
"799 588 CURVE SMOOTH",
"67 588 LINE",
"67 560 LINE",
"799 560 LINE SMOOTH",
"906 560 OFFCURVE",
"964 512 OFFCURVE",
"964 438 CURVE SMOOTH",
"964 366 OFFCURVE",
"895 316 OFFCURVE",
"787 316 CURVE SMOOTH",
"305 316 LINE",
"305 288 LINE",
"787 287 LINE SMOOTH",
"907 287 OFFCURVE",
"1004 242 OFFCURVE",
"1004 154 CURVE SMOOTH",
"1004 68 OFFCURVE",
"934 28 OFFCURVE",
"810 28 CURVE SMOOTH",
"67 28 LINE",
"67 0 LINE",
"808 0 LINE SMOOTH",
"966 0 OFFCURVE",
"1034 58 OFFCURVE",
"1034 154 CURVE SMOOTH",
"1034 246 OFFCURVE",
"953 306 OFFCURVE",
"797 306 CURVE"
);
}
);
};
layerId = "B29C398E-974A-40D0-A0A0-00935056D4B4";
paths = (
{
closed = 1;
nodes = (
"808 0 LINE SMOOTH",
"948 0 OFFCURVE",
"1034 54 OFFCURVE",
"1034 163 CURVE SMOOTH",
"1034 277 OFFCURVE",
"937 324 OFFCURVE",
"797 324 CURVE",
"797 314 LINE",
"930 314 OFFCURVE",
"994 378 OFFCURVE",
"994 469 CURVE SMOOTH",
"994 563 OFFCURVE",
"922 624 OFFCURVE",
"800 624 CURVE SMOOTH",
"67 624 LINE",
"67 596 LINE",
"797 596 LINE SMOOTH",
"892 596 OFFCURVE",
"964 558 OFFCURVE",
"964 469 CURVE SMOOTH",
"964 379 OFFCURVE",
"894 334 OFFCURVE",
"793 334 CURVE SMOOTH",
"305 334 LINE",
"305 306 LINE",
"787 305 LINE SMOOTH",
"906 305 OFFCURVE",
"1004 266 OFFCURVE",
"1004 164 CURVE SMOOTH",
"1004 66 OFFCURVE",
"923 28 OFFCURVE",
"800 28 CURVE SMOOTH",
"67 28 LINE",
"67 0 LINE"
);
},
{
closed = 1;
nodes = (
"316 17 LINE",
"316 610 LINE",
"286 610 LINE",
"286 17 LINE"
);
}
);
width = 1154;
},
{
anchors = (
{
name = bottom;
position = "{338, 0}";
},
{
name = top;
position = "{338, 588}";
}
);
background = {
paths = (
{
closed = 1;
nodes = (
"658 290 LINE",
"658 318 LINE",
"182 318 LINE",
"182 290 LINE"
);
},
{
closed = 1;
nodes = (
"313 0 LINE",
"313 28 LINE",
"24 28 LINE",
"24 0 LINE"
);
},
{
closed = 1;
nodes = (
"188 16 LINE",
"188 611 LINE",
"160 611 LINE",
"160 16 LINE"
);
},
{
closed = 1;
nodes = (
"313 596 LINE",
"313 624 LINE",
"24 624 LINE",
"24 596 LINE"
);
},
{
closed = 1;
nodes = (
"815 0 LINE",
"815 28 LINE",
"526 28 LINE",
"526 0 LINE"
);
},
{
closed = 1;
nodes = (
"680 16 LINE",
"680 611 LINE",
"650 611 LINE",
"650 16 LINE"
);
},
{
closed = 1;
nodes = (
"815 596 LINE",
"815 624 LINE",
"526 624 LINE",
"526 596 LINE"
);
}
);
};
layerId = "543F9737-16F7-428D-9F96-2EBD9FC8D3B6";
paths = (
{
closed = 1;
nodes = (
"394 0 LINE SMOOTH",
"534 0 OFFCURVE",
"620 54 OFFCURVE",
"620 163 CURVE SMOOTH",
"620 277 OFFCURVE",
"523 324 OFFCURVE",
"383 324 CURVE",
"383 314 LINE",
"516 314 OFFCURVE",
"580 378 OFFCURVE",
"580 469 CURVE SMOOTH",
"580 563 OFFCURVE",
"508 624 OFFCURVE",
"386 624 CURVE SMOOTH",
"36 624 LINE",
"36 596 LINE",
"383 596 LINE SMOOTH",
"478 596 OFFCURVE",
"550 558 OFFCURVE",
"550 469 CURVE SMOOTH",
"550 379 OFFCURVE",
"480 334 OFFCURVE",
"379 334 CURVE SMOOTH",
"191 334 LINE",
"191 306 LINE",
"373 305 LINE SMOOTH",
"492 304 OFFCURVE",
"590 266 OFFCURVE",
"590 164 CURVE SMOOTH",
"590 66 OFFCURVE",
"509 28 OFFCURVE",
"386 28 CURVE SMOOTH",
"36 28 LINE",
"36 0 LINE"
);
},
{
closed = 1;
nodes = (
"202 17 LINE",
"202 610 LINE",
"172 610 LINE",
"172 17 LINE"
);
}
);
width = 686;
},
{
anchors = (
{
name = bottom;
position = "{326, 0}";
},
{
name = top;
position = "{326, 632}";
}
);
layerId = "EB38A4D2-CD30-49BA-8E45-1F04A566FFE8";
paths = (
{
closed = 1;
nodes = (
"410 0 LINE SMOOTH",
"574 0 OFFCURVE",
"658 66 OFFCURVE",
"658 176 CURVE SMOOTH",
"658 323 OFFCURVE",
"504 344 OFFCURVE",
"395 344 CURVE",
"396 288 LINE",
"476 288 OFFCURVE",
"608 332 OFFCURVE",
"608 455 CURVE SMOOTH",
"608 552 OFFCURVE",
"536 624 OFFCURVE",
"390 624 CURVE SMOOTH",
"30 624 LINE",
"30 509 LINE",
"383 509 LINE SMOOTH",
"418 509 OFFCURVE",
"462 493 OFFCURVE",
"462 436 CURVE SMOOTH",
"462 380 OFFCURVE",
"420 362 OFFCURVE",
"355 362 CURVE SMOOTH",
"229 362 LINE",
"229 258 LINE",
"410 258 LINE SMOOTH",
"479 258 OFFCURVE",
"511 236 OFFCURVE",
"511 188 CURVE SMOOTH",
"511 136 OFFCURVE",
"469 115 OFFCURVE",
"400 115 CURVE SMOOTH",
"30 115 LINE",
"30 0 LINE"
);
},
{
closed = 1;
nodes = (
"276 64 LINE",
"276 557 LINE",
"132 557 LINE",
"132 64 LINE"
);
}
);
width = 688;
},
{
anchors = (
{
name = bottom;
position = "{542, 0}";
},
{
name = top;
position = "{542, 668}";
}
);
layerId = "C70E3B11-AF58-44B6-92D7-58C9185F522D";
paths = (
{
closed = 1;
nodes = (
"842 0 LINE SMOOTH",
"1006 0 OFFCURVE",
"1090 66 OFFCURVE",
"1090 176 CURVE SMOOTH",
"1090 323 OFFCURVE",
"936 344 OFFCURVE",
"827 344 CURVE",
"828 288 LINE",
"908 288 OFFCURVE",
"1040 332 OFFCURVE",
"1040 455 CURVE SMOOTH",
"1040 552 OFFCURVE",
"968 624 OFFCURVE",
"822 624 CURVE SMOOTH",
"61 624 LINE",
"61 509 LINE",
"815 509 LINE SMOOTH",
"850 509 OFFCURVE",
"894 493 OFFCURVE",
"894 436 CURVE SMOOTH",
"894 380 OFFCURVE",
"852 362 OFFCURVE",
"787 362 CURVE SMOOTH",
"343 362 LINE",
"343 258 LINE",
"842 258 LINE SMOOTH",
"911 259 OFFCURVE",
"943 236 OFFCURVE",
"943 188 CURVE SMOOTH",
"943 136 OFFCURVE",
"901 115 OFFCURVE",
"832 115 CURVE SMOOTH",
"61 115 LINE",
"61 0 LINE"
);
},
{
closed = 1;
nodes = (
"394 64 LINE",
"394 557 LINE",
"246 557 LINE",
"246 64 LINE"
);
}
);
width = 1162;
}
);
leftKerningGroup = H;
leftMetricsKey = "=H";
rightKerningGroup = B;
unicode = 0042;
},
{
glyphname = C;
lastChange = "2016-01-15 16:42:16 +0000";
layers = (
{
anchors = (
{
name = bottom;
position = "{517, -12}";
},
{
name = top;
position = "{526, 636}";
}
);
background = {
paths = (
{
closed = 1;
nodes = (
"962 208 LINE",
"917 98 OFFCURVE",
"774 -24 OFFCURVE",
"517 -24 CURVE",
"287 -24 OFFCURVE",
"90 95 OFFCURVE",
"90 299 CURVE",
"90 503 OFFCURVE",
"295 620 OFFCURVE",
"527 620 CURVE",
"732 620 OFFCURVE",
"869 534 OFFCURVE",
"953 418 CURVE",
"929 418 LINE",
"929 589 LINE",
"956 589 LINE",
"956 373 LINE",
"834 536 OFFCURVE",
"679 593 OFFCURVE",
"527 593 CURVE",
"305 593 OFFCURVE",
"120 481 OFFCURVE",
"120 299 CURVE",
"120 116 OFFCURVE",
"299 4 OFFCURVE",
"517 4 CURVE",
"755 4 OFFCURVE",
"898 124 OFFCURVE",
"935 218 CURVE"
);
}
);
};
layerId = "B29C398E-974A-40D0-A0A0-00935056D4B4";
paths = (
{
closed = 1;
nodes = (
"774 -13 OFFCURVE",
"902 102 OFFCURVE",
"959 202 CURVE",
"935 217 LINE",
"887 128 OFFCURVE",
"755 14 OFFCURVE",
"517 14 CURVE",
"299 14 OFFCURVE",
"120 127 OFFCURVE",
"120 312 CURVE",
"120 497 OFFCURVE",
"305 608 OFFCURVE",
"527 608 CURVE SMOOTH",
"692 608 OFFCURVE",
"833 553 OFFCURVE",
"941 396 CURVE",
"955 398 LINE",
"955 624 LINE",
"928 624 LINE",
"928 433 LINE",
"941 433 LINE",
"858 553 OFFCURVE",
"720 636 OFFCURVE",
"527 636 CURVE SMOOTH",
"295 636 OFFCURVE",
"90 518 OFFCURVE",
"90 312 CURVE",
"90 106 OFFCURVE",
"287 -13 OFFCURVE",
"517 -13 CURVE"
);
}
);
width = 1067;
},
{
anchors = (
{
name = bottom;
position = "{365, -12}";
},
{
name = top;
position = "{366, 636}";
}
);
background = {
paths = (
{
closed = 1;
nodes = (
"536 -12 OFFCURVE",
"674 107 OFFCURVE",
"674 308 CURVE",
"674 509 OFFCURVE",
"536 628 OFFCURVE",
"371 628 CURVE",
"204 628 OFFCURVE",
"67 509 OFFCURVE",
"67 308 CURVE",
"67 107 OFFCURVE",
"204 -12 OFFCURVE",
"371 -12 CURVE"
);
},
{
closed = 1;
nodes = (
"216 17 OFFCURVE",
"96 128 OFFCURVE",
"96 308 CURVE",
"96 487 OFFCURVE",
"216 599 OFFCURVE",
"371 599 CURVE",
"524 599 OFFCURVE",
"646 487 OFFCURVE",
"646 308 CURVE",
"646 128 OFFCURVE",
"524 17 OFFCURVE",
"371 17 CURVE"
);
}
);
};
layerId = "543F9737-16F7-428D-9F96-2EBD9FC8D3B6";
paths = (
{
closed = 1;
nodes = (
"504 -13 OFFCURVE",
"578 60 OFFCURVE",
"619 116 CURVE",
"599 133 LINE",
"559 77 OFFCURVE",
"485 14 OFFCURVE",
"367 14 CURVE SMOOTH",
"215 14 OFFCURVE",
"96 133 OFFCURVE",
"96 312 CURVE SMOOTH",
"96 491 OFFCURVE",
"221 608 OFFCURVE",
"367 608 CURVE SMOOTH",
"490 608 OFFCURVE",
"563 545 OFFCURVE",
"610 438 CURVE",
"624 439 LINE",
"625 624 LINE",
"598 624 LINE",
"596 479 LINE",
"611 473 LINE",
"582 556 OFFCURVE",
"500 636 OFFCURVE",
"367 636 CURVE SMOOTH",
"211 636 OFFCURVE",
"66 512 OFFCURVE",
"66 312 CURVE SMOOTH",
"66 112 OFFCURVE",
"203 -13 OFFCURVE",
"367 -13 CURVE SMOOTH"
);
}
);
width = 685;
},
{
anchors = (
{
name = bottom;
position = "{371, -12}";
},
{
name = top;
position = "{353, 636}";
}
);
background = {
paths = (
{
closed = 1;
nodes = (
"476 -12 OFFCURVE",
"595 40 OFFCURVE",
"665 148 CURVE",
"571 226 LINE",
"521 155 OFFCURVE",
"456 108 OFFCURVE",
"371 108 CURVE SMOOTH",
"258 108 OFFCURVE",
"184 188 OFFCURVE",
"184 310 CURVE SMOOTH",
"184 438 OFFCURVE",
"271 522 OFFCURVE",
"377 522 CURVE SMOOTH",
"462 522 OFFCURVE",
"532 463 OFFCURVE",
"563 397 CURVE",
"660 402 LINE",
"660 624 LINE",
"528 624 LINE",
"528 498 LINE",
"594 479 LINE",
"546 576 OFFCURVE",
"462 636 OFFCURVE",
"338 636 CURVE SMOOTH",
"186 636 OFFCURVE",
"30 508 OFFCURVE",
"30 310 CURVE SMOOTH",
"30 119 OFFCURVE",
"185 -12 OFFCURVE",
"371 -12 CURVE SMOOTH"
);
}
);
};
layerId = "EB38A4D2-CD30-49BA-8E45-1F04A566FFE8";
paths = (
{
closed = 1;
nodes = (
"503 -12 OFFCURVE",
"601 50 OFFCURVE",
"665 148 CURVE",
"571 226 LINE",
"522 154 OFFCURVE",
"468 108 OFFCURVE",
"371 108 CURVE SMOOTH",
"266 108 OFFCURVE",
"184 197 OFFCURVE",
"184 312 CURVE SMOOTH",
"184 445 OFFCURVE",
"272 521 OFFCURVE",
"362 521 CURVE SMOOTH",
"461 521 OFFCURVE",
"520 463 OFFCURVE",
"551 397 CURVE",
"648 406 LINE",
"648 624 LINE",
"516 624 LINE",
"516 498 LINE",
"582 479 LINE",
"534 576 OFFCURVE",
"456 636 OFFCURVE",
"338 636 CURVE SMOOTH",
"172 636 OFFCURVE",
"30 504 OFFCURVE",
"30 310 CURVE SMOOTH",
"30 130 OFFCURVE",
"178 -12 OFFCURVE",
"371 -12 CURVE SMOOTH"
);
}
);
width = 689;
},
{
anchors = (
{
name = bottom;
position = "{569, -12}";
},
{
name = top;
position = "{521, 636}";
}
);
layerId = "C70E3B11-AF58-44B6-92D7-58C9185F522D";
paths = (
{
closed = 1;
nodes = (
"737 -12 OFFCURVE",
"869 42 OFFCURVE",
"994 132 CURVE",
"937 236 LINE",
"830 161 OFFCURVE",
"702 108 OFFCURVE",
"521 108 CURVE SMOOTH",
"350 108 OFFCURVE",
"208 185 OFFCURVE",
"208 312 CURVE SMOOTH",
"208 451 OFFCURVE",
"362 521 OFFCURVE",
"534 521 CURVE SMOOTH",
"676 521 OFFCURVE",
"802 472 OFFCURVE",
"894 379 CURVE",
"991 396 LINE",
"990 624 LINE",
"858 624 LINE",
"859 476 LINE",
"924 463 LINE",
"822 574 OFFCURVE",
"688 636 OFFCURVE",
"498 636 CURVE SMOOTH",
"262 636 OFFCURVE",
"54 510 OFFCURVE",
"54 310 CURVE SMOOTH",
"54 112 OFFCURVE",
"262 -12 OFFCURVE",
"521 -12 CURVE SMOOTH"
);
}
);
width = 1066;
}
);
leftKerningGroup = O;
leftMetricsKey = "=O";
rightKerningGroup = C;
unicode = 0043;
},
{
glyphname = D;
lastChange = "2016-01-15 16:42:16 +0000";
layers = (
{
anchors = (
{
name = bottom;
position = "{576, 0}";
},
{
name = center;
position = "{576, 294}";
},
{
name = top;
position = "{576, 624}";
}
);
layerId = "B29C398E-974A-40D0-A0A0-00935056D4B4";
paths = (
{
closed = 1;
nodes = (
"654 0 LINE",
"900 0 OFFCURVE",
"1067 102 OFFCURVE",
"1067 312 CURVE",
"1067 522 OFFCURVE",
"900 624 OFFCURVE",
"654 624 CURVE",
"67 624 LINE",
"67 596 LINE",
"654 596 LINE",
"887 596 OFFCURVE",
"1037 502 OFFCURVE",
"1037 312 CURVE",
"1037 122 OFFCURVE",
"887 28 OFFCURVE",
"654 28 CURVE",
"67 28 LINE",
"67 0 LINE"
);
},
{
closed = 1;
nodes = (
"316 16 LINE",
"316 608 LINE",
"286 608 LINE",
"286 16 LINE"
);
}
);
width = 1157;
},
{
anchors = (
{
name = bottom;
position = "{340, 0}";
},
{
name = center;
position = "{340, 294}";
},
{
name = top;
position = "{340, 624}";
}
);
layerId = "543F9737-16F7-428D-9F96-2EBD9FC8D3B6";
paths = (
{
closed = 1;
nodes = (
"334 0 LINE",
"541 0 OFFCURVE",
"676 119 OFFCURVE",
"676 312 CURVE",
"676 505 OFFCURVE",
"541 624 OFFCURVE",
"334 624 CURVE",
"36 624 LINE",
"36 596 LINE",
"334 596 LINE",
"529 596 OFFCURVE",
"646 485 OFFCURVE",
"646 312 CURVE",
"646 139 OFFCURVE",
"529 28 OFFCURVE",
"334 28 CURVE",
"36 28 LINE",
"36 0 LINE"
);
},
{
closed = 1;
nodes = (
"202 16 LINE",
"202 608 LINE",
"172 608 LINE",
"172 16 LINE"
);
}
);
width = 742;
},
{
anchors = (
{
name = bottom;
position = "{360, 0}";
},
{
name = center;
position = "{360, 316}";
},
{
name = top;
position = "{360, 632}";
}
);
layerId = "EB38A4D2-CD30-49BA-8E45-1F04A566FFE8";
paths = (
{
closed = 1;
nodes = (
"342 0 LINE SMOOTH",
"515 0 OFFCURVE",
"713 88 OFFCURVE",
"713 312 CURVE SMOOTH",
"713 536 OFFCURVE",
"515 624 OFFCURVE",
"342 624 CURVE SMOOTH",
"30 624 LINE",
"30 509 LINE",
"325 509 LINE SMOOTH",
"419 509 OFFCURVE",
"559 485 OFFCURVE",
"559 312 CURVE SMOOTH",
"559 139 OFFCURVE",
"419 118 OFFCURVE",
"325 118 CURVE SMOOTH",
"30 118 LINE",
"30 0 LINE"
);
},
{
closed = 1;
nodes = (
"280 67 LINE",
"280 557 LINE",
"132 557 LINE",
"132 67 LINE"
);
}
);
width = 743;
},
{
anchors = (
{
name = bottom;
position = "{596, 0}";
},
{
name = center;
position = "{596, 316}";
},
{
name = top;
position = "{596, 624}";
}
);
layerId = "C70E3B11-AF58-44B6-92D7-58C9185F522D";
paths = (
{
closed = 1;
nodes = (
"692 0 LINE",
"904 0 OFFCURVE",
"1128 71 OFFCURVE",
"1128 312 CURVE",
"1128 553 OFFCURVE",
"904 624 OFFCURVE",
"692 624 CURVE",
"61 624 LINE",
"61 509 LINE",
"670 509 LINE",
"800 509 OFFCURVE",
"974 502 OFFCURVE",
"974 312 CURVE",
"974 122 OFFCURVE",
"800 118 OFFCURVE",
"670 118 CURVE",
"61 118 LINE",
"61 0 LINE"
);
},
{
closed = 1;
nodes = (
"394 67 LINE",
"394 557 LINE",
"246 557 LINE",
"246 67 LINE"
);
}
);
width = 1182;
}
);
leftKerningGroup = H;
leftMetricsKey = "=H";
rightKerningGroup = O;
rightMetricsKey = "=O";
unicode = 0044;
},
{
glyphname = E;
lastChange = "2016-01-15 16:42:16 +0000";
layers = (
{
anchors = (
{
name = bottom;
position = "{601, 0}";
},
{
name = ogonek;
position = "{1034, 0}";
},
{
name = top;
position = "{635, 624}";
}
);
background = {
paths = (
{
closed = 1;
nodes = (
"1069 8 LINE",
"1069 227 LINE",
"1038 227 LINE",
"1038 40 LINE",
"100 40 LINE",
"100 8 LINE"
);
},
{
closed = 1;
nodes = (
"349 30 LINE",
"349 575 LINE",
"318 575 LINE",
"318 30 LINE"
);
},
{
closed = 1;
nodes = (
"730 312 LINE",
"730 343 LINE",
"334 343 LINE",
"334 312 LINE"
);
},
{
closed = 1;
nodes = (
"745 173 LINE",
"745 468 LINE",
"714 468 LINE",
"714 173 LINE"
);
},
{
closed = 1;
nodes = (
"1040 557 LINE",
"1040 376 LINE",
"1072 376 LINE",
"1072 588 LINE",
"103 588 LINE",
"102 557 LINE"
);
}
);
};
guideLines = (
{
position = "{500, 368}";
}
);
layerId = "B29C398E-974A-40D0-A0A0-00935056D4B4";
paths = (
{
closed = 1;
nodes = (
"1034 0 LINE",
"1034 220 LINE",
"1006 220 LINE",
"1006 28 LINE",
"67 28 LINE",
"67 0 LINE"
);
},
{
closed = 1;
nodes = (
"316 16 LINE",
"316 608 LINE",
"286 608 LINE",
"286 16 LINE"
);
},
{
closed = 1;
nodes = (
"700 313 LINE",
"700 341 LINE",
"312 341 LINE",
"312 313 LINE"
);
},
{
closed = 1;
nodes = (
"715 184 LINE",
"715 470 LINE",
"685 470 LINE",
"685 184 LINE"
);
},
{
closed = 1;
nodes = (
"1034 404 LINE",
"1034 624 LINE",
"67 624 LINE",
"67 596 LINE",
"1004 596 LINE",
"1004 404 LINE"
);
}
);
width = 1190;
},
{
anchors = (
{
name = bottom;
position = "{368, 0}";
},
{
name = ogonek;
position = "{619, 0}";
},
{
name = top;
position = "{374, 624}";
}
);
background = {
paths = (
{
closed = 1;
nodes = (
"955 0 LINE",
"955 221 LINE",
"935 221 LINE",
"935 28 LINE",
"245 28 LINE",
"245 0 LINE"
);
},
{
closed = 1;
nodes = (
"709 310 LINE",
"709 337 LINE",
"424 337 LINE",
"424 310 LINE"
);
},
{
closed = 1;
nodes = (
"721 174 LINE",
"721 458 LINE",
"700 458 LINE",
"700 174 LINE"
);
},
{
closed = 1;
nodes = (
"934 589 LINE",
"934 400 LINE",
"955 400 LINE",
"955 617 LINE",
"245 617 LINE",
"245 589 LINE"
);
},
{
closed = 1;
nodes = (
"427 16 LINE",
"427 601 LINE",
"406 601 LINE",
"406 16 LINE"
);
}
);
};
layerId = "543F9737-16F7-428D-9F96-2EBD9FC8D3B6";
paths = (
{
closed = 1;
nodes = (
"620 0 LINE",
"620 163 LINE",
"592 163 LINE",
"592 28 LINE",
"36 28 LINE",
"36 0 LINE"
);
},
{
closed = 1;
nodes = (
"202 16 LINE",
"202 608 LINE",
"172 608 LINE",
"172 16 LINE"
);
},
{
closed = 1;
nodes = (
"418 313 LINE",
"418 341 LINE",
"198 341 LINE",
"198 313 LINE"
);
},
{
closed = 1;
nodes = (
"433 214 LINE",
"433 440 LINE",
"403 440 LINE",
"403 214 LINE"
);
},
{
closed = 1;
nodes = (
"620 461 LINE",
"620 624 LINE",
"36 624 LINE",
"36 596 LINE",
"590 596 LINE",
"590 461 LINE"
);
}
);
width = 698;
},
{
anchors = (
{
name = bottom;
position = "{395, 0}";
},
{
name = ogonek;
position = "{674, 0}";
},
{
name = top;
position = "{366, 624}";
}
);
layerId = "EB38A4D2-CD30-49BA-8E45-1F04A566FFE8";
paths = (
{
closed = 1;
nodes = (
"674 0 LINE",
"674 232 LINE",
"545 232 LINE",
"545 115 LINE",
"30 115 LINE",
"30 0 LINE"
);
},
{
closed = 1;
nodes = (
"277 64 LINE",
"277 550 LINE",
"131 550 LINE",
"131 64 LINE"
);
},
{
closed = 1;
nodes = (
"431 251 LINE",
"431 359 LINE",
"184 359 LINE",
"184 251 LINE"
);
},
{
closed = 1;
nodes = (
"479 181 LINE",
"479 428 LINE",
"371 428 LINE",
"371 181 LINE"
);
},
{
closed = 1;
nodes = (
"674 392 LINE",
"674 624 LINE",
"30 624 LINE",
"30 509 LINE",
"545 509 LINE",
"545 392 LINE"
);
}
);
width = 734;
},
{
anchors = (
{
name = bottom;
position = "{648, -2}";
},
{
name = ogonek;
position = "{1064, 0}";
},
{
name = top;
position = "{653, 624}";
}
);
layerId = "C70E3B11-AF58-44B6-92D7-58C9185F522D";
paths = (
{
closed = 1;
nodes = (
"1064 0 LINE",
"1064 252 LINE",
"935 252 LINE",
"935 115 LINE",
"61 115 LINE",
"61 0 LINE"
);
},
{
closed = 1;
nodes = (
"391 64 LINE",
"391 550 LINE",
"245 550 LINE",
"245 64 LINE"
);
},
{
closed = 1;
nodes = (
"701 251 LINE",
"701 359 LINE",
"298 359 LINE",
"298 251 LINE"
);
},
{
closed = 1;
nodes = (
"749 175 LINE",
"749 434 LINE",
"634 434 LINE",
"634 175 LINE"
);
},
{
closed = 1;
nodes = (
"1064 372 LINE",
"1064 624 LINE",
"61 624 LINE",
"61 509 LINE",
"935 509 LINE",
"935 372 LINE"
);
}
);
width = 1184;
}
);
leftKerningGroup = H;
leftMetricsKey = "=H";
rightKerningGroup = E;
unicode = 0045;
},
{
glyphname = F;
lastChange = "2016-01-15 16:42:16 +0000";
layers = (
{
anchors = (
{
name = bottom;
position = "{539, 0}";
},
{
name = top;
position = "{539, 588}";
}
);
layerId = "B29C398E-974A-40D0-A0A0-00935056D4B4";
paths = (
{
closed = 1;
nodes = (
"974 404 LINE",
"974 624 LINE",
"67 624 LINE",
"67 596 LINE",
"946 596 LINE",
"946 404 LINE"
);
},
{
closed = 1;
nodes = (
"546 0 LINE",
"546 28 LINE",
"67 28 LINE",
"67 0 LINE"
);
},
{
closed = 1;
nodes = (
"316 16 LINE",
"316 608 LINE",
"286 608 LINE",
"286 16 LINE"
);
},
{
closed = 1;
nodes = (
"664 288 LINE",
"664 316 LINE",
"312 316 LINE",
"312 288 LINE"
);
},
{
closed = 1;
nodes = (
"678 158 LINE",
"678 445 LINE",
"649 445 LINE",
"649 158 LINE"
);
}
);
width = 1064;
},
{
anchors = (
{
name = bottom;
position = "{336, 0}";
},
{
name = top;
position = "{336, 588}";
}
);
layerId = "543F9737-16F7-428D-9F96-2EBD9FC8D3B6";
paths = (
{
closed = 1;
nodes = (
"632 461 LINE",
"632 624 LINE",
"36 624 LINE",
"36 596 LINE",
"602 596 LINE",
"602 461 LINE"
);
},
{
closed = 1;
nodes = (
"343 0 LINE",
"343 28 LINE",
"36 28 LINE",
"36 0 LINE"
);
},
{
closed = 1;
nodes = (
"202 16 LINE",
"202 608 LINE",
"172 608 LINE",
"172 16 LINE"
);
},
{
closed = 1;
nodes = (
"442 289 LINE",
"442 317 LINE",
"198 317 LINE",
"198 289 LINE"
);
},
{
closed = 1;
nodes = (
"457 190 LINE",
"457 416 LINE",
"427 416 LINE",
"427 190 LINE"
);
}
);
width = 668;
},
{
anchors = (
{
name = bottom;
position = "{366, 0}";
},
{
name = top;
position = "{366, 632}";
}
);
layerId = "EB38A4D2-CD30-49BA-8E45-1F04A566FFE8";
paths = (
{
closed = 1;
nodes = (
"643 384 LINE",
"643 624 LINE",
"30 624 LINE",
"30 509 LINE",
"514 509 LINE",
"514 384 LINE"
);
},
{
closed = 1;
nodes = (
"385 0 LINE",
"385 115 LINE",
"30 115 LINE",
"30 0 LINE"
);
},
{
closed = 1;
nodes = (
"276 64 LINE",
"276 557 LINE",
"132 557 LINE",
"132 64 LINE"
);
},
{
closed = 1;
nodes = (
"416 250 LINE",
"416 358 LINE",
"185 358 LINE",
"185 250 LINE"
);
},
{
closed = 1;
nodes = (
"464 179 LINE",
"464 427 LINE",
"356 427 LINE",
"356 179 LINE"
);
}
);
width = 673;
},
{
anchors = (
{
name = bottom;
position = "{569, 0}";
},
{
name = top;
position = "{569, 632}";
}
);
layerId = "C70E3B11-AF58-44B6-92D7-58C9185F522D";
paths = (
{
closed = 1;
nodes = (
"1057 372 LINE",
"1057 624 LINE",
"61 624 LINE",
"61 509 LINE",
"929 509 LINE",
"929 372 LINE"
);
},
{
closed = 1;
nodes = (
"588 0 LINE",
"588 115 LINE",
"61 115 LINE",
"61 0 LINE"
);
},
{
closed = 1;
nodes = (
"392 64 LINE",
"392 557 LINE",
"246 557 LINE",
"246 64 LINE"
);
},
{
closed = 1;
nodes = (
"706 248 LINE",
"706 356 LINE",
"299 356 LINE",
"299 248 LINE"
);
},
{
closed = 1;
nodes = (
"752 172 LINE",
"752 432 LINE",
"638 432 LINE",
"638 172 LINE"
);
}
);
width = 1117;
}
);
leftKerningGroup = H;
leftMetricsKey = "=H";
rightKerningGroup = F;
unicode = 0046;
},
{
glyphname = G;
lastChange = "2016-01-15 16:42:16 +0000";
layers = (
{
anchors = (
{
name = bottom;
position = "{527, -12}";
},
{
name = top;
position = "{527, 636}";
}
);
background = {
paths = (
{
closed = 1;
nodes = (
"796 -12 OFFCURVE",
"971 127 OFFCURVE",
"971 302 CURVE SMOOTH",
"971 305 LINE",
"518 305 LINE",
"518 277 LINE",
"941 277 LINE",
"925 142 OFFCURVE",
"788 16 OFFCURVE",
"523 16 CURVE SMOOTH",
"305 16 OFFCURVE",
"126 128 OFFCURVE",
"126 311 CURVE SMOOTH",
"126 496 OFFCURVE",
"311 608 OFFCURVE",
"533 608 CURVE SMOOTH",
"691 608 OFFCURVE",
"839 553 OFFCURVE",
"961 389 CURVE",
"961 624 LINE",
"934 624 LINE",
"934 445 LINE",
"938 452 LINE",
"854 559 OFFCURVE",
"726 636 OFFCURVE",
"533 636 CURVE SMOOTH",
"301 636 OFFCURVE",
"96 517 OFFCURVE",
"96 311 CURVE SMOOTH",
"96 107 OFFCURVE",
"293 -12 OFFCURVE",
"523 -12 CURVE SMOOTH"
);
}
);
};
layerId = "B29C398E-974A-40D0-A0A0-00935056D4B4";
paths = (
{
closed = 1;
nodes = (
"796 -12 OFFCURVE",
"971 127 OFFCURVE",
"971 302 CURVE SMOOTH",
"971 305 LINE",
"518 305 LINE",
"518 277 LINE",
"941 277 LINE",
"925 142 OFFCURVE",
"788 16 OFFCURVE",
"523 16 CURVE SMOOTH",
"305 16 OFFCURVE",
"126 128 OFFCURVE",
"126 311 CURVE SMOOTH",
"126 496 OFFCURVE",
"311 608 OFFCURVE",
"533 608 CURVE SMOOTH",
"698 608 OFFCURVE",
"839 553 OFFCURVE",
"947 396 CURVE",
"961 397 LINE",
"961 624 LINE",
"934 624 LINE",
"934 433 LINE",
"947 433 LINE",
"864 553 OFFCURVE",
"726 636 OFFCURVE",
"533 636 CURVE SMOOTH",
"301 636 OFFCURVE",
"96 517 OFFCURVE",
"96 311 CURVE SMOOTH",
"96 107 OFFCURVE",
"293 -12 OFFCURVE",
"523 -12 CURVE SMOOTH"
);
}
);
width = 1079;
},
{
anchors = (
{
name = bottom;
position = "{359, -12}";
},
{
name = top;
position = "{359, 636}";
}
);
background = {
paths = (
{
closed = 1;
nodes = (
"530 -13 OFFCURVE",
"641 114 OFFCURVE",
"641 294 CURVE SMOOTH",
"641 305 LINE",
"338 305 LINE",
"338 277 LINE",
"611 277 LINE",
"608 136 OFFCURVE",
"522 14 OFFCURVE",
"361 14 CURVE SMOOTH",
"209 14 OFFCURVE",
"90 133 OFFCURVE",
"90 312 CURVE SMOOTH",
"90 491 OFFCURVE",
"215 608 OFFCURVE",
"361 608 CURVE SMOOTH",
"490 608 OFFCURVE",
"563 545 OFFCURVE",
"611 444 CURVE",
"625 445 LINE",
"625 624 LINE",
"598 624 LINE",
"598 496 LINE",
"601 503 LINE",
"564 571 OFFCURVE",
"486 636 OFFCURVE",
"361 636 CURVE SMOOTH",
"205 636 OFFCURVE",
"60 512 OFFCURVE",
"60 312 CURVE SMOOTH",
"60 112 OFFCURVE",
"197 -13 OFFCURVE",
"361 -13 CURVE SMOOTH"
);
}
);
};
layerId = "543F9737-16F7-428D-9F96-2EBD9FC8D3B6";
paths = (
{
closed = 1;
nodes = (
"530 -13 OFFCURVE",
"641 114 OFFCURVE",
"641 282 CURVE SMOOTH",
"641 293 LINE",
"338 293 LINE",
"338 265 LINE",
"611 265 LINE",
"608 136 OFFCURVE",
"522 14 OFFCURVE",
"361 14 CURVE SMOOTH",
"209 14 OFFCURVE",
"90 133 OFFCURVE",
"90 312 CURVE SMOOTH",
"90 491 OFFCURVE",
"215 608 OFFCURVE",
"361 608 CURVE SMOOTH",
"490 608 OFFCURVE",
"563 545 OFFCURVE",
"611 444 CURVE",
"625 445 LINE",
"625 624 LINE",
"598 624 LINE",
"598 496 LINE",
"608 496 LINE",
"582 550 OFFCURVE",
"498 636 OFFCURVE",
"361 636 CURVE SMOOTH",
"205 636 OFFCURVE",
"60 512 OFFCURVE",
"60 312 CURVE SMOOTH",
"60 112 OFFCURVE",
"197 -13 OFFCURVE",
"361 -13 CURVE SMOOTH"
);
}
);
width = 719;
},
{
anchors = (
{
name = bottom;
position = "{373, -12}";
},
{
name = top;
position = "{373, 636}";
}
);
layerId = "EB38A4D2-CD30-49BA-8E45-1F04A566FFE8";
paths = (
{
closed = 1;
nodes = (
"560 -13 OFFCURVE",
"692 126 OFFCURVE",
"692 302 CURVE SMOOTH",
"692 338 LINE",
"326 338 LINE",
"326 223 LINE",
"541 223 LINE",
"532 162 OFFCURVE",
"469 102 OFFCURVE",
"372 102 CURVE SMOOTH",
"266 102 OFFCURVE",
"184 194 OFFCURVE",
"184 312 CURVE SMOOTH",
"184 430 OFFCURVE",
"270 522 OFFCURVE",
"379 522 CURVE SMOOTH",
"474 522 OFFCURVE",
"541 463 OFFCURVE",
"574 410 CURVE",
"670 416 LINE",
"670 624 LINE",
"538 624 LINE",
"538 509 LINE",
"605 488 LINE",
"556 577 OFFCURVE",
"464 636 OFFCURVE",
"341 636 CURVE SMOOTH",
"167 636 OFFCURVE",
"30 493 OFFCURVE",
"30 312 CURVE SMOOTH",
"30 130 OFFCURVE",
"178 -13 OFFCURVE",
"366 -13 CURVE SMOOTH"
);
}
);
width = 722;
},
{
anchors = (
{
name = bottom;
position = "{553, -12}";
},
{
name = top;
position = "{553, 636}";
}
);
layerId = "C70E3B11-AF58-44B6-92D7-58C9185F522D";
paths = (
{
closed = 1;
nodes = (
"840 -12 OFFCURVE",
"1010 115 OFFCURVE",
"1010 311 CURVE SMOOTH",
"1010 338 LINE",
"494 338 LINE",
"494 235 LINE",
"859 235 LINE",
"847 168 OFFCURVE",
"724 103 OFFCURVE",
"546 103 CURVE SMOOTH",
"350 103 OFFCURVE",
"208 178 OFFCURVE",
"208 311 CURVE SMOOTH",
"208 446 OFFCURVE",
"354 522 OFFCURVE",
"539 522 CURVE SMOOTH",
"683 522 OFFCURVE",
"805 472 OFFCURVE",
"898 398 CURVE",
"994 416 LINE",
"994 624 LINE",
"862 624 LINE",
"862 482 LINE",
"931 462 LINE",
"826 581 OFFCURVE",
"680 636 OFFCURVE",
"500 636 CURVE SMOOTH",
"251 636 OFFCURVE",
"54 510 OFFCURVE",
"54 311 CURVE SMOOTH",
"54 113 OFFCURVE",
"262 -12 OFFCURVE",
"540 -12 CURVE SMOOTH"
);
}
);
width = 1082;
}
);
leftKerningGroup = O;
rightKerningGroup = G;
unicode = 0047;
},
{
glyphname = H;
lastChange = "2016-01-15 16:42:16 +0000";
layers = (
{
anchors = (
{
name = bottom;
position = "{679, 0}";
},
{
name = center;
position = "{679, 318}";
},
{
name = top;
position = "{679, 624}";
}
);
layerId = "B29C398E-974A-40D0-A0A0-00935056D4B4";
paths = (
{
closed = 1;
nodes = (
"1050 304 LINE",
"1050 331 LINE",
"310 331 LINE",
"310 304 LINE"
);
},
{
closed = 1;
nodes = (
"534 0 LINE",
"534 28 LINE",
"67 28 LINE",
"67 0 LINE"
);
},
{
closed = 1;
nodes = (
"316 13 LINE",
"316 608 LINE",
"286 608 LINE",
"286 13 LINE"
);
},
{
closed = 1;
nodes = (
"534 596 LINE",
"534 624 LINE",
"67 624 LINE",
"67 596 LINE"
);
},
{
closed = 1;
nodes = (
"1291 0 LINE",
"1291 28 LINE",
"824 28 LINE",
"824 0 LINE"
);
},
{
closed = 1;
nodes = (
"1073 16 LINE",
"1073 611 LINE",
"1043 611 LINE",
"1043 16 LINE"
);
},
{
closed = 1;
nodes = (
"1291 596 LINE",
"1291 624 LINE",
"824 624 LINE",
"824 596 LINE"
);
}
);
width = 1358;
},
{
anchors = (
{
name = bottom;
position = "{432, 0}";
},
{
name = center;
position = "{432, 294}";
},
{
name = top;
position = "{432, 588}";
}
);
background = {
paths = (
{
closed = 1;
nodes = (
"692 16 LINE",
"692 575 LINE",
"662 575 LINE",
"662 16 LINE"
);
},
{
closed = 1;
nodes = (
"325 0 LINE",
"325 30 LINE",
"36 30 LINE",
"36 0 LINE"
);
},
{
closed = 1;
nodes = (
"200 16 LINE",
"200 575 LINE",
"172 575 LINE",
"172 16 LINE"
);
},
{
closed = 1;
nodes = (
"670 276 LINE",
"670 305 LINE",
"194 305 LINE",
"194 276 LINE"
);
},
{
closed = 1;
nodes = (
"325 558 LINE",
"325 588 LINE",
"36 588 LINE",
"36 558 LINE"
);
},
{
closed = 1;
nodes = (
"827 0 LINE",
"827 30 LINE",
"538 30 LINE",
"538 0 LINE"
);
},
{
closed = 1;
nodes = (
"827 558 LINE",
"827 588 LINE",
"538 588 LINE",
"538 558 LINE"
);
}
);
};
layerId = "543F9737-16F7-428D-9F96-2EBD9FC8D3B6";
paths = (
{
closed = 1;
nodes = (
"668 302 LINE",
"668 330 LINE",
"196 330 LINE",
"196 302 LINE"
);
},
{
closed = 1;
nodes = (
"336 0 LINE",
"336 28 LINE",
"36 28 LINE",
"36 0 LINE"
);
},
{
closed = 1;
nodes = (
"202 16 LINE",
"202 611 LINE",
"172 611 LINE",
"172 16 LINE"
);
},
{
closed = 1;
nodes = (
"336 596 LINE",
"336 624 LINE",
"36 624 LINE",
"36 596 LINE"
);
},
{
closed = 1;
nodes = (
"828 0 LINE",
"828 28 LINE",
"527 28 LINE",
"527 0 LINE"
);
},
{
closed = 1;
nodes = (
"692 16 LINE",
"692 611 LINE",
"661 611 LINE",
"661 16 LINE"
);
},
{
closed = 1;
nodes = (
"828 596 LINE",
"828 624 LINE",
"527 624 LINE",
"527 596 LINE"
);
}
);
width = 864;
},
{
anchors = (
{
name = bottom;
position = "{418, 0}";
},
{
name = center;
position = "{418, 308}";
},
{
name = top;
position = "{418, 632}";
}
);
layerId = "EB38A4D2-CD30-49BA-8E45-1F04A566FFE8";
paths = (
{
closed = 1;
nodes = (
"661 264 LINE",
"661 372 LINE",
"178 372 LINE",
"178 264 LINE"
);
},
{
closed = 1;
nodes = (
"380 0 LINE",
"380 115 LINE",
"30 115 LINE",
"30 0 LINE"
);
},
{
closed = 1;
nodes = (
"280 64 LINE",
"280 557 LINE",
"132 557 LINE",
"132 64 LINE"
);
},
{
closed = 1;
nodes = (
"380 509 LINE",
"380 624 LINE",
"30 624 LINE",
"30 509 LINE"
);
},
{
closed = 1;
nodes = (
"808 0 LINE",
"808 115 LINE",
"458 115 LINE",
"458 0 LINE"
);
},
{
closed = 1;
nodes = (
"707 67 LINE",
"707 560 LINE",
"559 560 LINE",
"559 67 LINE"
);
},
{
closed = 1;
nodes = (
"808 509 LINE",
"808 624 LINE",
"458 624 LINE",
"458 509 LINE"
);
}
);
width = 838;
},
{
anchors = (
{
name = bottom;
position = "{677, 0}";
},
{
name = center;
position = "{677, 332}";
},
{
name = top;
position = "{677, 668}";
}
);
layerId = "C70E3B11-AF58-44B6-92D7-58C9185F522D";
paths = (
{
closed = 1;
nodes = (
"1066 265 LINE",
"1066 373 LINE",
"293 373 LINE",
"293 265 LINE"
);
},
{
closed = 1;
nodes = (
"578 0 LINE",
"578 115 LINE",
"61 115 LINE",
"61 0 LINE"
);
},
{
closed = 1;
nodes = (
"395 61 LINE",
"395 554 LINE",
"246 554 LINE",
"246 61 LINE"
);
},
{
closed = 1;
nodes = (
"578 509 LINE",
"578 624 LINE",
"61 624 LINE",
"61 509 LINE"
);
},
{
closed = 1;
nodes = (
"1295 0 LINE",
"1295 115 LINE",
"780 115 LINE",
"780 0 LINE"
);
},
{
closed = 1;
nodes = (
"1111 67 LINE",
"1111 560 LINE",
"964 560 LINE",
"964 67 LINE"
);
},
{
closed = 1;
nodes = (
"1295 509 LINE",
"1295 624 LINE",
"780 624 LINE",
"780 509 LINE"
);
}
);
width = 1356;
}
);
leftKerningGroup = H;
rightKerningGroup = H;
unicode = 0048;
},
{
glyphname = Hbar;
lastChange = "2016-01-15 16:42:16 +0000";
layers = (
{
anchors = (
{
name = bottom;
position = "{685, 0}";
},
{
name = center;
position = "{685, 306}";
},
{
name = top;
position = "{685, 624}";
}
);
layerId = "B29C398E-974A-40D0-A0A0-00935056D4B4";
paths = (
{
closed = 1;
nodes = (
"1291 444 LINE",
"1291 470 LINE",
"67 470 LINE",
"67 444 LINE"
);
},
{
closed = 1;
nodes = (
"534 0 LINE",
"534 28 LINE",
"67 28 LINE",
"67 0 LINE"
);
},
{
closed = 1;
nodes = (
"316 13 LINE",
"316 608 LINE",
"286 608 LINE",
"286 13 LINE"
);
},
{
closed = 1;
nodes = (
"1291 0 LINE",
"1291 28 LINE",
"824 28 LINE",
"824 0 LINE"
);
},
{
closed = 1;
nodes = (
"1050 304 LINE",
"1050 331 LINE",
"310 331 LINE",
"310 304 LINE"
);
},
{
closed = 1;
nodes = (
"534 596 LINE",
"534 624 LINE",
"67 624 LINE",
"67 596 LINE"
);
},
{
closed = 1;
nodes = (
"1073 16 LINE",
"1073 611 LINE",
"1043 611 LINE",
"1043 16 LINE"
);
},
{
closed = 1;
nodes = (
"1291 596 LINE",
"1291 624 LINE",
"824 624 LINE",
"824 596 LINE"
);
}
);
width = 1358;
},
{
anchors = (
{
name = bottom;
position = "{445, 0}";
},
{
name = center;
position = "{445, 306}";
},
{
name = top;
position = "{445, 624}";
}
);
layerId = "543F9737-16F7-428D-9F96-2EBD9FC8D3B6";
paths = (
{
closed = 1;
nodes = (
"802 438 LINE",
"802 464 LINE",
"70 464 LINE",
"70 438 LINE"
);
},
{
closed = 1;
nodes = (
"336 0 LINE",
"336 28 LINE",
"36 28 LINE",
"36 0 LINE"
);
},
{
closed = 1;
nodes = (
"200 16 LINE",
"200 611 LINE",
"172 611 LINE",
"172 16 LINE"
);
},
{
closed = 1;
nodes = (
"828 0 LINE",
"828 28 LINE",
"527 28 LINE",
"527 0 LINE"
);
},
{
closed = 1;
nodes = (
"670 286 LINE",
"670 313 LINE",
"194 313 LINE",
"194 286 LINE"
);
},
{
closed = 1;
nodes = (
"336 596 LINE",
"336 624 LINE",
"36 624 LINE",
"36 596 LINE"
);
},
{
closed = 1;
nodes = (
"692 16 LINE",
"692 611 LINE",
"662 611 LINE",
"662 16 LINE"
);
},
{
closed = 1;
nodes = (
"828 596 LINE",
"828 624 LINE",
"527 624 LINE",
"527 596 LINE"
);
}
);
width = 864;
},
{
anchors = (
{
name = bottom;
position = "{427, 0}";
},
{
name = center;
position = "{427, 306}";
},
{
name = top;
position = "{427, 624}";
}
);
layerId = "EB38A4D2-CD30-49BA-8E45-1F04A566FFE8";
paths = (
{
closed = 1;
nodes = (
"803 376 LINE",
"803 464 LINE",
"59 464 LINE",
"59 376 LINE"
);
},
{
closed = 1;
nodes = (
"380 0 LINE",
"380 115 LINE",
"30 115 LINE",
"30 0 LINE"
);
},
{
closed = 1;
nodes = (
"278 64 LINE",
"278 557 LINE",
"132 557 LINE",
"132 64 LINE"
);
},
{
closed = 1;
nodes = (
"833 0 LINE",
"833 115 LINE",
"481 115 LINE",
"481 0 LINE"
);
},
{
closed = 1;
nodes = (
"685 227 LINE",
"685 331 LINE",
"178 331 LINE",
"178 227 LINE"
);
},
{
closed = 1;
nodes = (
"380 509 LINE",
"380 624 LINE",
"30 624 LINE",
"30 509 LINE"
);
},
{
closed = 1;
nodes = (
"731 67 LINE",
"731 560 LINE",
"583 560 LINE",
"583 67 LINE"
);
},
{
closed = 1;
nodes = (
"833 509 LINE",
"833 624 LINE",
"481 624 LINE",
"481 509 LINE"
);
}
);
width = 863;
},
{
anchors = (
{
name = bottom;
position = "{672, 0}";
},
{
name = center;
position = "{672, 306}";
},
{
name = top;
position = "{672, 624}";
}
);
layerId = "C70E3B11-AF58-44B6-92D7-58C9185F522D";
paths = (
{
closed = 1;
nodes = (
"1297 382 LINE",
"1297 470 LINE",
"61 470 LINE",
"61 382 LINE"
);
},
{
closed = 1;
nodes = (
"583 0 LINE",
"583 115 LINE",
"66 115 LINE",
"66 0 LINE"
);
},
{
closed = 1;
nodes = (
"398 61 LINE",
"398 554 LINE",
"251 554 LINE",
"251 61 LINE"
);
},
{
closed = 1;
nodes = (
"1301 0 LINE",
"1301 115 LINE",
"784 115 LINE",
"784 0 LINE"
);
},
{
closed = 1;
nodes = (
"1070 245 LINE",
"1070 349 LINE",
"298 349 LINE",
"298 245 LINE"
);
},
{
closed = 1;
nodes = (
"583 509 LINE",
"583 624 LINE",
"66 624 LINE",
"66 509 LINE"
);
},
{
closed = 1;
nodes = (
"1116 67 LINE",
"1116 560 LINE",
"968 560 LINE",
"968 67 LINE"
);
},
{
closed = 1;
nodes = (
"1301 509 LINE",
"1301 624 LINE",
"784 624 LINE",
"784 509 LINE"
);
}
);
width = 1362;
}
);
leftKerningGroup = H;
leftMetricsKey = "=H";
rightKerningGroup = H;
rightMetricsKey = "=H";
unicode = 0126;
},
{
glyphname = I;
lastChange = "2016-01-15 16:42:16 +0000";
layers = (
{
anchors = (
{
name = bottom;
position = "{301, 0}";
},
{
name = ogonek;
position = "{534, 0}";
},
{
name = top;
position = "{301, 624}";
}
);
layerId = "B29C398E-974A-40D0-A0A0-00935056D4B4";
paths = (
{
closed = 1;
nodes = (
"316 16 LINE SMOOTH",
"316 608 LINE SMOOTH",
"286 608 LINE SMOOTH",
"286 16 LINE SMOOTH"
);
},
{
closed = 1;
nodes = (
"534 0 LINE SMOOTH",
"534 28 LINE SMOOTH",
"67 28 LINE SMOOTH",
"67 0 LINE SMOOTH"
);
},
{
closed = 1;
nodes = (
"534 596 LINE SMOOTH",
"534 624 LINE SMOOTH",
"67 624 LINE SMOOTH",
"67 596 LINE SMOOTH"
);
}
);
width = 601;
},
{
anchors = (
{
name = bottom;
position = "{186, 0}";
},
{
name = ogonek;
position = "{337, 0}";
},
{
name = top;
position = "{187, 624}";
}
);
layerId = "543F9737-16F7-428D-9F96-2EBD9FC8D3B6";
paths = (
{
closed = 1;
nodes = (
"202 16 LINE",
"202 611 LINE",
"172 611 LINE",
"172 16 LINE"
);
},
{
closed = 1;
nodes = (
"337 0 LINE",
"337 28 LINE",
"36 28 LINE",
"36 0 LINE"
);
},
{
closed = 1;
nodes = (
"337 596 LINE",
"337 624 LINE",
"36 624 LINE",
"36 596 LINE"
);
}
);
width = 373;
},
{
anchors = (
{
name = bottom;
position = "{208, 0}";
},
{
name = ogonek;
position = "{382, 0}";
},
{
name = top;
position = "{208, 624}";
}
);
layerId = "EB38A4D2-CD30-49BA-8E45-1F04A566FFE8";
paths = (
{
closed = 1;
nodes = (
"280 68 LINE",
"280 557 LINE",
"132 557 LINE",
"132 68 LINE"
);
},
{
closed = 1;
nodes = (
"382 0 LINE",
"382 115 LINE",
"30 115 LINE",
"30 0 LINE"
);
},
{
closed = 1;
nodes = (
"382 509 LINE",
"382 624 LINE",
"30 624 LINE",
"30 509 LINE"
);
}
);
width = 412;
},
{
anchors = (
{
name = bottom;
position = "{320, 0}";
},
{
name = ogonek;
position = "{578, 0}";
},
{
name = top;
position = "{322, 624}";
}
);
layerId = "C70E3B11-AF58-44B6-92D7-58C9185F522D";
paths = (
{
closed = 1;
nodes = (
"394 68 LINE",
"394 554 LINE",
"246 554 LINE",
"246 68 LINE"
);
},
{
closed = 1;
nodes = (
"578 0 LINE",
"578 115 LINE",
"61 115 LINE",
"61 0 LINE"
);
},
{
closed = 1;
nodes = (
"578 509 LINE",
"578 624 LINE",
"61 624 LINE",
"61 509 LINE"
);
}
);
width = 640;
}
);
leftKerningGroup = H;
leftMetricsKey = "=H";
rightKerningGroup = H;
rightMetricsKey = "=H";
unicode = 0049;
},
{
glyphname = J;
lastChange = "2016-01-15 16:42:16 +0000";
layers = (
{
anchors = (
{
name = bottom;
position = "{406, 0}";
},
{
name = top;
position = "{406, 624}";
}
);
background = {
paths = (
{
closed = 1;
nodes = (
"757 560 LINE",
"757 588 LINE",
"247 588 LINE",
"247 560 LINE"
);
},
{
closed = 1;
nodes = (
"22 124 LINE",
"68 54 OFFCURVE",
"157 -24 OFFCURVE",
"299 -24 CURVE SMOOTH",
"457 -24 OFFCURVE",
"565 66 OFFCURVE",
"565 211 CURVE SMOOTH",
"565 572 LINE",
"535 572 LINE",
"535 211 LINE SMOOTH",
"535 70 OFFCURVE",
"426 4 OFFCURVE",
"299 4 CURVE SMOOTH",
"178 4 OFFCURVE",
"92 74 OFFCURVE",
"44 140 CURVE"
);
}
);
};
layerId = "B29C398E-974A-40D0-A0A0-00935056D4B4";
paths = (
{
closed = 1;
nodes = (
"457 -12 OFFCURVE",
"565 78 OFFCURVE",
"565 223 CURVE SMOOTH",
"565 608 LINE",
"535 608 LINE",
"535 223 LINE SMOOTH",
"535 82 OFFCURVE",
"426 16 OFFCURVE",
"299 16 CURVE SMOOTH",
"178 16 OFFCURVE",
"92 86 OFFCURVE",
"44 152 CURVE",
"24 133 LINE",
"71 66 OFFCURVE",
"157 -12 OFFCURVE",
"299 -12 CURVE SMOOTH"
);
},
{
closed = 1;
nodes = (
"784 596 LINE",
"784 624 LINE",
"247 624 LINE",
"247 596 LINE"
);
}
);
width = 784;
},
{
anchors = (
{
name = bottom;
position = "{208, 0}";
},
{
name = top;
position = "{208, 624}";
}
);
layerId = "543F9737-16F7-428D-9F96-2EBD9FC8D3B6";
paths = (
{
closed = 1;
nodes = (
"320 -12 OFFCURVE",
"398 65 OFFCURVE",
"398 203 CURVE SMOOTH",
"398 608 LINE",
"367 608 LINE",
"367 197 LINE SMOOTH",
"367 77 OFFCURVE",
"300 16 OFFCURVE",
"209 16 CURVE SMOOTH",
"128 16 OFFCURVE",
"65 55 OFFCURVE",
"24 88 CURVE",
"6 64 LINE",
"52 29 OFFCURVE",
"120 -12 OFFCURVE",
"209 -12 CURVE SMOOTH"
);
},
{
closed = 1;
nodes = (
"534 596 LINE",
"534 624 LINE",
"194 624 LINE",
"194 596 LINE"
);
}
);
width = 540;
},
{
anchors = (
{
name = bottom;
position = "{180, -14}";
},
{
name = top;
position = "{356, 624}";
}
);
layerId = "EB38A4D2-CD30-49BA-8E45-1F04A566FFE8";
paths = (
{
closed = 1;
nodes = (
"307 -12 OFFCURVE",
"406 65 OFFCURVE",
"406 203 CURVE SMOOTH",
"406 562 LINE",
"260 562 LINE",
"262 212 LINE SMOOTH",
"262 138 OFFCURVE",
"227 113 OFFCURVE",
"178 109 CURVE SMOOTH",
"137 108 OFFCURVE",
"92 132 OFFCURVE",
"62 154 CURVE",
"2 52 LINE",
"38 17 OFFCURVE",
"107 -12 OFFCURVE",
"185 -12 CURVE SMOOTH"
);
},
{
closed = 1;
nodes = (
"506 509 LINE",
"506 624 LINE",
"106 624 LINE",
"106 509 LINE"
);
}
);
width = 512;
},
{
anchors = (
{
name = bottom;
position = "{388, -14}";
},
{
name = top;
position = "{564, 624}";
}
);
layerId = "C70E3B11-AF58-44B6-92D7-58C9185F522D";
paths = (
{
closed = 1;
nodes = (
"479 -12 OFFCURVE",
"582 78 OFFCURVE",
"582 239 CURVE SMOOTH",
"582 562 LINE",
"439 562 LINE",
"439 239 LINE SMOOTH",
"439 149 OFFCURVE",
"391 110 OFFCURVE",
"320 110 CURVE SMOOTH",
"241 110 OFFCURVE",
"167 169 OFFCURVE",
"118 215 CURVE",
"40 113 LINE",
"104 60 OFFCURVE",
"197 -12 OFFCURVE",
"322 -12 CURVE SMOOTH"
);
},
{
closed = 1;
nodes = (
"748 509 LINE",
"748 624 LINE",
"210 624 LINE",
"210 509 LINE"
);
}
);
width = 766;
}
);
leftKerningGroup = J;
rightKerningGroup = U;
rightMetricsKey = "=U";
unicode = 004A;
},
{
glyphname = K;
lastChange = "2016-01-15 16:42:16 +0000";
layers = (
{
anchors = (
{
name = bottom;
position = "{630, 0}";
},
{
name = top;
position = "{630, 624}";
}
);
layerId = "B29C398E-974A-40D0-A0A0-00935056D4B4";
paths = (
{
closed = 1;
nodes = (
"989 608 LINE",
"941 608 LINE",
"300 187 LINE",
"300 155 LINE"
);
},
{
closed = 1;
nodes = (
"534 0 LINE SMOOTH",
"534 28 LINE SMOOTH",
"67 28 LINE SMOOTH",
"67 0 LINE SMOOTH"
);
},
{
closed = 1;
nodes = (
"316 16 LINE SMOOTH",
"316 608 LINE SMOOTH",
"286 608 LINE SMOOTH",
"286 16 LINE SMOOTH"
);
},
{
closed = 1;
nodes = (
"1154 0 LINE SMOOTH",
"1154 28 LINE SMOOTH",
"732 28 LINE SMOOTH",
"732 0 LINE SMOOTH"
);
},
{
closed = 1;
nodes = (
"996 12 LINE",
"577 353 LINE",
"558 334 LINE",
"954 12 LINE"
);
},
{
closed = 1;
nodes = (
"534 596 LINE SMOOTH",
"534 624 LINE SMOOTH",
"67 624 LINE SMOOTH",
"67 596 LINE SMOOTH"
);
},
{
closed = 1;
nodes = (
"1142 596 LINE SMOOTH",
"1142 624 LINE SMOOTH",
"720 624 LINE SMOOTH",
"720 596 LINE SMOOTH"
);
}
);
width = 1196;
},
{
anchors = (
{
name = bottom;
position = "{415, 0}";
},
{
name = top;
position = "{415, 624}";
}
);
layerId = "543F9737-16F7-428D-9F96-2EBD9FC8D3B6";
paths = (
{
closed = 1;
nodes = (
"676 608 LINE",
"636 608 LINE",
"186 202 LINE",
"186 168 LINE"
);
},
{
closed = 1;
nodes = (
"337 0 LINE SMOOTH",
"337 28 LINE SMOOTH",
"36 28 LINE SMOOTH",
"36 0 LINE SMOOTH"
);
},
{
closed = 1;
nodes = (
"202 16 LINE SMOOTH",
"202 608 LINE SMOOTH",
"172 608 LINE SMOOTH",
"172 16 LINE SMOOTH"
);
},
{
closed = 1;
nodes = (
"764 0 LINE SMOOTH",
"764 28 LINE SMOOTH",
"498 28 LINE SMOOTH",
"498 0 LINE SMOOTH"
);
},
{
closed = 1;
nodes = (
"674 12 LINE",
"383 365 LINE",
"360 346 LINE",
"636 12 LINE"
);
},
{
closed = 1;
nodes = (
"337 596 LINE SMOOTH",
"337 624 LINE SMOOTH",
"36 624 LINE SMOOTH",
"36 596 LINE SMOOTH"
);
},
{
closed = 1;
nodes = (
"752 596 LINE SMOOTH",
"752 624 LINE SMOOTH",
"486 624 LINE SMOOTH",
"486 596 LINE SMOOTH"
);
}
);
width = 776;
},
{
anchors = (
{
name = bottom;
position = "{431, 0}";
},
{
name = top;
position = "{431, 624}";
}
);
layerId = "EB38A4D2-CD30-49BA-8E45-1F04A566FFE8";
paths = (
{
closed = 1;
nodes = (
"722 530 LINE",
"559 530 LINE",
"193 236 LINE",
"194 106 LINE"
);
},
{
closed = 1;
nodes = (
"372 0 LINE SMOOTH",
"372 115 LINE SMOOTH",
"30 115 LINE SMOOTH",
"30 0 LINE SMOOTH"
);
},
{
closed = 1;
nodes = (
"278 64 LINE SMOOTH",
"278 557 LINE SMOOTH",
"132 557 LINE SMOOTH",
"132 64 LINE SMOOTH"
);
},
{
closed = 1;
nodes = (
"779 0 LINE SMOOTH",
"779 115 LINE SMOOTH",
"464 115 LINE SMOOTH",
"464 0 LINE SMOOTH"
);
},
{
closed = 1;
nodes = (
"745 86 LINE",
"450 400 LINE",
"336 331 LINE",
"559 86 LINE"
);
},
{
closed = 1;
nodes = (
"372 509 LINE SMOOTH",
"372 624 LINE SMOOTH",
"30 624 LINE SMOOTH",
"30 509 LINE SMOOTH"
);
},
{
closed = 1;
nodes = (
"764 509 LINE SMOOTH",
"764 624 LINE SMOOTH",
"450 624 LINE SMOOTH",
"450 509 LINE SMOOTH"
);
}
);
width = 785;
},
{
anchors = (
{
name = bottom;
position = "{646, 0}";
},
{
name = top;
position = "{646, 624}";
}
);
layerId = "C70E3B11-AF58-44B6-92D7-58C9185F522D";
paths = (
{
closed = 1;
nodes = (
"1012 530 LINE",
"834 530 LINE",
"307 216 LINE",
"308 92 LINE"
);
},
{
closed = 1;
nodes = (
"569 0 LINE SMOOTH",
"569 115 LINE SMOOTH",
"61 115 LINE SMOOTH",
"61 0 LINE SMOOTH"
);
},
{
closed = 1;
nodes = (
"392 64 LINE SMOOTH",
"392 557 LINE SMOOTH",
"246 557 LINE SMOOTH",
"246 64 LINE SMOOTH"
);
},
{
closed = 1;
nodes = (
"1157 0 LINE SMOOTH",
"1157 115 LINE SMOOTH",
"686 115 LINE SMOOTH",
"686 0 LINE SMOOTH"
);
},
{
closed = 1;
nodes = (
"1076 86 LINE",
"642 400 LINE",
"510 325 LINE",
"853 86 LINE"
);
},
{
closed = 1;
nodes = (
"569 509 LINE SMOOTH",
"569 624 LINE SMOOTH",
"61 624 LINE SMOOTH",
"61 509 LINE SMOOTH"
);
},
{
closed = 1;
nodes = (
"1130 509 LINE SMOOTH",
"1130 624 LINE SMOOTH",
"660 624 LINE SMOOTH",
"660 509 LINE SMOOTH"
);
}
);
width = 1175;
}
);
leftKerningGroup = H;
leftMetricsKey = "=H";
rightKerningGroup = X;
unicode = 004B;
},
{
glyphname = L;
lastChange = "2016-01-15 16:42:16 +0000";
layers = (
{
anchors = (
{
name = bottom;
position = "{539, 0}";
},
{
name = center;
position = "{494, 294}";
},
{
name = top;
position = "{284, 624}";
},
{
name = topright;
position = "{538, 406}";
}
);
layerId = "B29C398E-974A-40D0-A0A0-00935056D4B4";
paths = (
{
closed = 1;
nodes = (
"947 0 LINE",
"947 220 LINE",
"917 220 LINE",
"917 28 LINE",
"67 28 LINE",
"67 0 LINE"
);
},
{
closed = 1;
nodes = (
"316 16 LINE",
"316 608 LINE",
"286 608 LINE",
"286 16 LINE"
);
},
{
closed = 1;
nodes = (
"534 596 LINE",
"534 624 LINE",
"67 624 LINE",
"67 596 LINE"
);
}
);
width = 1007;
},
{
anchors = (
{
name = bottom;
position = "{350, 0}";
},
{
name = center;
position = "{268, 294}";
},
{
name = top;
position = "{268, 624}";
},
{
name = topright;
position = "{398, 494}";
}
);
layerId = "543F9737-16F7-428D-9F96-2EBD9FC8D3B6";
paths = (
{
closed = 1;
nodes = (
"596 0 LINE",
"596 163 LINE",
"568 163 LINE",
"568 28 LINE",
"36 28 LINE",
"36 0 LINE"
);
},
{
closed = 1;
nodes = (
"202 16 LINE",
"202 608 LINE",
"172 608 LINE",
"172 16 LINE"
);
},
{
closed = 1;
nodes = (
"337 596 LINE",
"337 624 LINE",
"36 624 LINE",
"36 596 LINE"
);
}
);
width = 650;
},
{
anchors = (
{
name = bottom;
position = "{335, 0}";
},
{
name = center;
position = "{335, 294}";
},
{
name = top;
position = "{247, 632}";
},
{
name = topright;
position = "{431, 492}";
}
);
layerId = "EB38A4D2-CD30-49BA-8E45-1F04A566FFE8";
paths = (
{
closed = 1;
nodes = (
"635 0 LINE",
"635 262 LINE",
"496 262 LINE",
"496 115 LINE",
"30 115 LINE",
"30 0 LINE"
);
},
{
closed = 1;
nodes = (
"278 64 LINE",
"278 550 LINE",
"132 550 LINE",
"132 64 LINE"
);
},
{
closed = 1;
nodes = (
"379 509 LINE",
"379 624 LINE",
"30 624 LINE",
"30 509 LINE"
);
}
);
width = 665;
},
{
anchors = (
{
name = bottom;
position = "{487, 0}";
},
{
name = center;
position = "{562, 294}";
},
{
name = top;
position = "{326, 628}";
},
{
name = topright;
position = "{630, 413}";
}
);
layerId = "C70E3B11-AF58-44B6-92D7-58C9185F522D";
paths = (
{
closed = 1;
nodes = (
"961 0 LINE",
"961 271 LINE",
"821 271 LINE",
"821 115 LINE",
"61 115 LINE",
"61 0 LINE"
);
},
{
closed = 1;
nodes = (
"392 64 LINE",
"392 550 LINE",
"246 550 LINE",
"246 64 LINE"
);
},
{
closed = 1;
nodes = (
"576 509 LINE",
"576 624 LINE",
"61 624 LINE",
"61 509 LINE"
);
}
);
width = 1026;
}
);
leftKerningGroup = H;
leftMetricsKey = "=H";
rightKerningGroup = L;
unicode = 004C;
},
{
glyphname = Lslash;
lastChange = "2016-01-15 16:42:16 +0000";
layers = (
{
components = (
{
name = L;
}
);
layerId = "B29C398E-974A-40D0-A0A0-00935056D4B4";
paths = (
{
closed = 1;
nodes = (
"533 364 LINE",
"533 394 LINE",
"68 222 LINE",
"68 192 LINE"
);
}
);
width = 1043;
},
{
components = (
{
name = L;
}
);
layerId = "543F9737-16F7-428D-9F96-2EBD9FC8D3B6";
paths = (
{
closed = 1;
nodes = (
"377 352 LINE",
"377 382 LINE",
"32 254 LINE",
"32 224 LINE"
);
}
);
width = 644;
},
{
components = (
{
name = L;
}
);
layerId = "EB38A4D2-CD30-49BA-8E45-1F04A566FFE8";
paths = (
{
closed = 1;
nodes = (
"377 325 LINE",
"377 409 LINE",
"32 284 LINE",
"32 200 LINE"
);
}
);
width = 665;
},
{
components = (
{
name = L;
}
);
layerId = "C70E3B11-AF58-44B6-92D7-58C9185F522D";
paths = (
{
closed = 1;
nodes = (
"575 338 LINE",
"575 428 LINE",
"61 292 LINE",
"61 202 LINE"
);
}
);
width = 1026;
}
);
leftKerningGroup = H;
rightKerningGroup = L;
unicode = 0141;
},
{
glyphname = M;
lastChange = "2016-01-15 16:42:16 +0000";
layers = (
{
anchors = (
{
name = bottom;
position = "{743, -24}";
},
{
name = top;
position = "{743, 588}";
}
);
background = {
paths = (
{
closed = 1;
nodes = (
"755 4 LINE",
"316 588 LINE",
"278 588 LINE",
"743 -32 LINE"
);
},
{
closed = 1;
nodes = (
"480 0 LINE",
"480 28 LINE",
"73 28 LINE",
"73 0 LINE"
);
},
{
closed = 1;
nodes = (
"316 14 LINE",
"316 572 LINE",
"286 572 LINE",
"286 14 LINE"
);
},
{
closed = 1;
nodes = (
"316 560 LINE",
"316 588 LINE",
"73 588 LINE",
"73 560 LINE"
);
},
{
closed = 1;
nodes = (
"1411 0 LINE",
"1411 28 LINE",
"1004 28 LINE",
"1004 0 LINE"
);
},
{
closed = 1;
nodes = (
"1207 588 LINE",
"1166 588 LINE",
"733 4 LINE",
"743 -32 LINE"
);
},
{
closed = 1;
nodes = (
"1199 14 LINE",
"1199 572 LINE",
"1169 572 LINE",
"1169 14 LINE"
);
},
{
closed = 1;
nodes = (
"1411 560 LINE",
"1411 588 LINE",
"1169 588 LINE",
"1169 560 LINE"
);
}
);
};
layerId = "B29C398E-974A-40D0-A0A0-00935056D4B4";
paths = (
{
closed = 1;
nodes = (
"745 -13 LINE",
"755 17 LINE",
"316 624 LINE",
"278 624 LINE",
"739 -13 LINE"
);
},
{
closed = 1;
nodes = (
"496 0 LINE",
"496 28 LINE",
"67 28 LINE",
"67 0 LINE"
);
},
{
closed = 1;
nodes = (
"316 14 LINE",
"316 544 LINE",
"316 570 OFFCURVE",
"316 598 OFFCURVE",
"316 624 CURVE",
"286 624 LINE",
"286 14 LINE"
);
},
{
closed = 1;
nodes = (
"316 596 LINE",
"316 624 LINE",
"67 624 LINE",
"67 596 LINE"
);
},
{
closed = 1;
nodes = (
"1417 0 LINE",
"1417 28 LINE",
"989 28 LINE",
"989 0 LINE"
);
},
{
closed = 1;
nodes = (
"746 -13 LINE",
"1207 624 LINE",
"1169 624 LINE",
"733 17 LINE",
"740 -13 LINE"
);
},
{
closed = 1;
nodes = (
"1199 14 LINE",
"1199 624 LINE",
"1169 624 LINE",
"1169 598 OFFCURVE",
"1169 570 OFFCURVE",
"1169 544 CURVE",
"1169 14 LINE"
);
},
{
closed = 1;
nodes = (
"1417 596 LINE",
"1417 624 LINE",
"1169 624 LINE",
"1169 596 LINE"
);
}
);
width = 1484;
},
{
anchors = (
{
name = bottom;
position = "{491, -30}";
},
{
name = top;
position = "{488, 576}";
}
);
background = {
paths = (
{
closed = 1;
nodes = (
"40 28 LINE",
"316 28 LINE",
"316 0 LINE",
"40 0 LINE"
);
},
{
closed = 1;
nodes = (
"169 588 LINE",
"199 588 LINE",
"199 14 LINE",
"169 14 LINE"
);
},
{
closed = 1;
nodes = (
"40 588 LINE",
"199 588 LINE",
"199 560 LINE",
"40 560 LINE"
);
},
{
closed = 1;
nodes = (
"492 -32 LINE",
"173 588 LINE",
"204 588 LINE",
"504 7 LINE"
);
},
{
closed = 1;
nodes = (
"780 588 LINE",
"811 588 LINE",
"492 -32 LINE",
"482 7 LINE"
);
},
{
closed = 1;
nodes = (
"668 0 LINE",
"668 28 LINE",
"944 28 LINE",
"944 0 LINE"
);
},
{
closed = 1;
nodes = (
"785 14 LINE",
"785 588 LINE",
"815 588 LINE",
"815 14 LINE"
);
},
{
closed = 1;
nodes = (
"785 560 LINE",
"785 588 LINE",
"944 588 LINE",
"944 560 LINE"
);
}
);
};
layerId = "543F9737-16F7-428D-9F96-2EBD9FC8D3B6";
paths = (
{
closed = 1;
nodes = (
"494 -13 LINE",
"505 17 LINE",
"204 624 LINE",
"172 624 LINE",
"488 -13 LINE"
);
},
{
closed = 1;
nodes = (
"323 0 LINE",
"323 28 LINE",
"36 28 LINE",
"36 0 LINE"
);
},
{
closed = 1;
nodes = (
"199 14 LINE",
"199 536 LINE",
"199 565 OFFCURVE",
"199 595 OFFCURVE",
"199 624 CURVE",
"169 624 LINE",
"169 14 LINE"
);
},
{
closed = 1;
nodes = (
"199 596 LINE",
"199 624 LINE",
"36 624 LINE",
"36 596 LINE"
);
},
{
closed = 1;
nodes = (
"950 0 LINE",
"950 28 LINE",
"661 28 LINE",
"661 0 LINE"
);
},
{
closed = 1;
nodes = (
"496 -13 LINE",
"811 624 LINE",
"780 624 LINE",
"482 17 LINE",
"490 -13 LINE"
);
},
{
closed = 1;
nodes = (
"815 14 LINE",
"815 624 LINE",
"785 624 LINE",
"785 595 OFFCURVE",
"785 565 OFFCURVE",
"785 536 CURVE",
"785 14 LINE"
);
},
{
closed = 1;
nodes = (
"950 596 LINE",
"950 624 LINE",
"785 624 LINE",
"785 596 LINE"
);
}
);
width = 986;
},
{
anchors = (
{
name = bottom;
position = "{508, 4}";
},
{
name = top;
position = "{504, 590}";
}
);
layerId = "EB38A4D2-CD30-49BA-8E45-1F04A566FFE8";
paths = (
{
closed = 1;
nodes = (
"522 -1 LINE",
"554 103 LINE",
"293 624 LINE",
"154 624 LINE",
"463 -1 LINE"
);
},
{
closed = 1;
nodes = (
"364 0 LINE",
"364 115 LINE",
"30 115 LINE",
"30 0 LINE"
);
},
{
closed = 1;
nodes = (
"268 65 LINE",
"268 251 LINE",
"268 355 OFFCURVE",
"232 556 OFFCURVE",
"216 624 CURVE",
"132 624 LINE",
"132 65 LINE"
);
},
{
closed = 1;
nodes = (
"266 509 LINE",
"266 624 LINE",
"30 624 LINE",
"30 509 LINE"
);
},
{
closed = 1;
nodes = (
"984 0 LINE",
"984 115 LINE",
"643 115 LINE",
"643 0 LINE"
);
},
{
closed = 1;
nodes = (
"544 -1 LINE",
"853 624 LINE",
"720 624 LINE",
"464 103 LINE",
"490 -1 LINE"
);
},
{
closed = 1;
nodes = (
"882 65 LINE",
"882 624 LINE",
"802 624 LINE",
"781 556 OFFCURVE",
"738 355 OFFCURVE",
"738 251 CURVE SMOOTH",
"738 65 LINE"
);
},
{
closed = 1;
nodes = (
"984 509 LINE",
"984 624 LINE",
"740 624 LINE",
"740 509 LINE"
);
}
);
width = 1014;
},
{
anchors = (
{
name = bottom;
position = "{760, 10}";
},
{
name = top;
position = "{758, 602}";
}
);
layerId = "C70E3B11-AF58-44B6-92D7-58C9185F522D";
paths = (
{
closed = 1;
nodes = (
"773 -1 LINE",
"804 97 LINE",
"422 624 LINE",
"248 624 LINE",
"714 -1 LINE"
);
},
{
closed = 1;
nodes = (
"536 0 LINE",
"536 115 LINE",
"61 115 LINE",
"61 0 LINE"
);
},
{
closed = 1;
nodes = (
"386 65 LINE",
"386 282 LINE",
"386 384 OFFCURVE",
"354 558 OFFCURVE",
"338 624 CURVE",
"248 624 LINE",
"248 65 LINE"
);
},
{
closed = 1;
nodes = (
"383 509 LINE",
"383 624 LINE",
"61 624 LINE",
"61 509 LINE"
);
},
{
closed = 1;
nodes = (
"1451 0 LINE",
"1451 115 LINE",
"971 115 LINE",
"971 0 LINE"
);
},
{
closed = 1;
nodes = (
"794 -1 LINE",
"1261 624 LINE",
"1091 624 LINE",
"715 97 LINE",
"740 -1 LINE"
);
},
{
closed = 1;
nodes = (
"1266 65 LINE",
"1266 624 LINE",
"1180 624 LINE",
"1159 558 OFFCURVE",
"1120 384 OFFCURVE",
"1120 282 CURVE",
"1120 65 LINE"
);
},
{
closed = 1;
nodes = (
"1451 509 LINE",
"1451 624 LINE",
"1124 624 LINE",
"1124 509 LINE"
);
}
);
width = 1512;
}
);
leftKerningGroup = H;
leftMetricsKey = "=H";
rightKerningGroup = H;
rightMetricsKey = "=H";
unicode = 004D;
},
{
glyphname = N;
lastChange = "2016-01-15 16:42:16 +0000";
layers = (
{
anchors = (
{
name = bottom;
position = "{745, 12}";
},
{
name = top;
position = "{625, 612}";
}
);
background = {
paths = (
{
closed = 1;
nodes = (
"1086 -6 LINE",
"1092 -6 LINE",
"1092 608 LINE",
"1062 608 LINE",
"1062 68 LINE",
"595 624 LINE",
"553 624 LINE"
);
}
);
};
layerId = "B29C398E-974A-40D0-A0A0-00935056D4B4";
paths = (
{
closed = 1;
nodes = (
"1092 -6 LINE",
"1092 608 LINE",
"1062 608 LINE",
"1062 52 LINE",
"316 624 LINE",
"263 624 LINE",
"1086 -6 LINE"
);
},
{
closed = 1;
nodes = (
"534 0 LINE",
"534 28 LINE",
"67 28 LINE",
"67 0 LINE"
);
},
{
closed = 1;
nodes = (
"316 14 LINE",
"316 624 LINE",
"286 624 LINE",
"286 14 LINE"
);
},
{
closed = 1;
nodes = (
"316 596 LINE",
"316 624 LINE",
"67 624 LINE",
"67 596 LINE"
);
},
{
closed = 1;
nodes = (
"1310 596 LINE",
"1310 624 LINE",
"844 624 LINE",
"844 596 LINE"
);
}
);
width = 1328;
},
{
anchors = (
{
name = bottom;
position = "{456, 12}";
},
{
name = top;
position = "{420, 612}";
}
);
background = {
paths = (
{
closed = 1;
nodes = (
"670 290 LINE",
"670 318 LINE",
"194 318 LINE",
"194 290 LINE"
);
},
{
closed = 1;
nodes = (
"325 0 LINE",
"325 28 LINE",
"36 28 LINE",
"36 0 LINE"
);
},
{
closed = 1;
nodes = (
"200 16 LINE",
"200 611 LINE",
"172 611 LINE",
"172 16 LINE"
);
},
{
closed = 1;
nodes = (
"325 596 LINE",
"325 624 LINE",
"36 624 LINE",
"36 596 LINE"
);
},
{
closed = 1;
nodes = (
"827 0 LINE",
"827 28 LINE",
"538 28 LINE",
"538 0 LINE"
);
},
{
closed = 1;
nodes = (
"692 16 LINE",
"692 611 LINE",
"662 611 LINE",
"662 16 LINE"
);
},
{
closed = 1;
nodes = (
"827 596 LINE",
"827 624 LINE",
"538 624 LINE",
"538 596 LINE"
);
}
);
};
layerId = "543F9737-16F7-428D-9F96-2EBD9FC8D3B6";
paths = (
{
closed = 1;
nodes = (
"698 -6 LINE",
"698 608 LINE",
"668 608 LINE",
"668 68 LINE",
"202 624 LINE",
"160 624 LINE",
"692 -6 LINE"
);
},
{
closed = 1;
nodes = (
"326 0 LINE",
"326 28 LINE",
"36 28 LINE",
"36 0 LINE"
);
},
{
closed = 1;
nodes = (
"202 14 LINE",
"202 624 LINE",
"172 624 LINE",
"172 14 LINE"
);
},
{
closed = 1;
nodes = (
"202 596 LINE",
"202 624 LINE",
"36 624 LINE",
"36 596 LINE"
);
},
{
closed = 1;
nodes = (
"834 596 LINE",
"834 624 LINE",
"533 624 LINE",
"533 596 LINE"
);
}
);
width = 846;
},
{
anchors = (
{
name = bottom;
position = "{456, 0}";
},
{
name = top;
position = "{420, 624}";
}
);
layerId = "EB38A4D2-CD30-49BA-8E45-1F04A566FFE8";
paths = (
{
closed = 1;
nodes = (
"743 -5 LINE",
"743 608 LINE",
"608 608 LINE",
"608 241 LINE",
"274 624 LINE",
"92 624 LINE",
"664 -6 LINE"
);
},
{
closed = 1;
nodes = (
"382 0 LINE",
"382 115 LINE",
"30 115 LINE",
"30 0 LINE"
);
},
{
closed = 1;
nodes = (
"274 14 LINE",
"274 624 LINE",
"132 624 LINE",
"132 14 LINE"
);
},
{
closed = 1;
nodes = (
"269 509 LINE",
"274 624 LINE",
"30 624 LINE",
"30 509 LINE"
);
},
{
closed = 1;
nodes = (
"839 509 LINE",
"839 624 LINE",
"506 624 LINE",
"506 509 LINE"
);
}
);
width = 857;
},
{
anchors = (
{
name = bottom;
position = "{721, 12}";
},
{
name = top;
position = "{649, 612}";
}
);
layerId = "C70E3B11-AF58-44B6-92D7-58C9185F522D";
paths = (
{
closed = 1;
nodes = (
"1136 -5 LINE",
"1136 608 LINE",
"1002 608 LINE",
"1002 212 LINE",
"388 624 LINE",
"124 624 LINE",
"1057 -6 LINE"
);
},
{
closed = 1;
nodes = (
"589 0 LINE",
"589 115 LINE",
"61 115 LINE",
"61 0 LINE"
);
},
{
closed = 1;
nodes = (
"388 14 LINE",
"388 624 LINE",
"246 624 LINE",
"246 14 LINE"
);
},
{
closed = 1;
nodes = (
"383 509 LINE",
"388 624 LINE",
"61 624 LINE",
"61 509 LINE"
);
},
{
closed = 1;
nodes = (
"1321 509 LINE",
"1321 624 LINE",
"817 624 LINE",
"817 509 LINE"
);
}
);
width = 1332;
}
);
leftKerningGroup = H;
leftMetricsKey = "=H";
rightKerningGroup = N;
unicode = 004E;
},
{
glyphname = Eng;
lastChange = "2016-01-15 16:42:16 +0000";
layers = (
{
anchors = (
{
name = bottom;
position = "{733, 12}";
},
{
name = top;
position = "{661, 612}";
}
);
layerId = "B29C398E-974A-40D0-A0A0-00935056D4B4";
paths = (
{
closed = 1;
nodes = (
"1092 32 LINE",
"1092 608 LINE",
"1062 608 LINE",
"1062 52 LINE",
"316 624 LINE",
"263 624 LINE",
"1086 -6 LINE"
);
},
{
closed = 1;
nodes = (
"474 0 LINE",
"474 28 LINE",
"67 28 LINE",
"67 0 LINE"
);
},
{
closed = 1;
nodes = (
"316 14 LINE",
"316 624 LINE",
"286 624 LINE",
"286 14 LINE"
);
},
{
closed = 1;
nodes = (
"316 596 LINE",
"316 624 LINE",
"67 624 LINE",
"67 596 LINE"
);
},
{
closed = 1;
nodes = (
"1310 596 LINE",
"1310 624 LINE",
"844 624 LINE",
"844 596 LINE"
);
},
{
closed = 1;
nodes = (
"984 -228 OFFCURVE",
"1092 -138 OFFCURVE",
"1092 7 CURVE SMOOTH",
"1092 392 LINE",
"1062 392 LINE",
"1062 7 LINE SMOOTH",
"1062 -134 OFFCURVE",
"953 -200 OFFCURVE",
"826 -200 CURVE SMOOTH",
"704 -200 OFFCURVE",
"619 -130 OFFCURVE",
"571 -64 CURVE",
"551 -83 LINE",
"598 -150 OFFCURVE",
"684 -228 OFFCURVE",
"826 -228 CURVE SMOOTH"
);
}
);
width = 1328;
},
{
anchors = (
{
name = bottom;
position = "{456, 12}";
},
{
name = top;
position = "{420, 612}";
}
);
layerId = "543F9737-16F7-428D-9F96-2EBD9FC8D3B6";
paths = (
{
closed = 1;
nodes = (
"698 -6 LINE",
"698 608 LINE",
"668 608 LINE",
"668 68 LINE",
"202 624 LINE",
"160 624 LINE",
"692 -6 LINE"
);
},
{
closed = 1;
nodes = (
"326 0 LINE",
"326 28 LINE",
"36 28 LINE",
"36 0 LINE"
);
},
{
closed = 1;
nodes = (
"202 14 LINE",
"202 624 LINE",
"172 624 LINE",
"172 14 LINE"
);
},
{
closed = 1;
nodes = (
"202 596 LINE",
"202 624 LINE",
"36 624 LINE",
"36 596 LINE"
);
},
{
closed = 1;
nodes = (
"834 596 LINE",
"834 624 LINE",
"533 624 LINE",
"533 596 LINE"
);
},
{
closed = 1;
nodes = (
"620 -228 OFFCURVE",
"698 -151 OFFCURVE",
"698 -13 CURVE SMOOTH",
"698 392 LINE",
"668 392 LINE",
"668 -19 LINE SMOOTH",
"668 -139 OFFCURVE",
"601 -200 OFFCURVE",
"510 -200 CURVE SMOOTH",
"430 -200 OFFCURVE",
"366 -161 OFFCURVE",
"325 -128 CURVE",
"307 -152 LINE",
"353 -187 OFFCURVE",
"421 -228 OFFCURVE",
"510 -228 CURVE SMOOTH"
);
}
);
width = 846;
},
{
anchors = (
{
name = bottom;
position = "{444, 0}";
},
{
name = top;
position = "{444, 624}";
}
);
layerId = "EB38A4D2-CD30-49BA-8E45-1F04A566FFE8";
paths = (
{
closed = 1;
nodes = (
"743 28 LINE",
"743 608 LINE",
"608 608 LINE",
"608 241 LINE",
"274 624 LINE",
"92 624 LINE",
"664 -6 LINE"
);
},
{
closed = 1;
nodes = (
"358 0 LINE",
"358 115 LINE",
"30 115 LINE",
"30 0 LINE"
);
},
{
closed = 1;
nodes = (
"274 14 LINE",
"274 624 LINE",
"132 624 LINE",
"132 14 LINE"
);
},
{
closed = 1;
nodes = (
"269 509 LINE",
"274 624 LINE",
"30 624 LINE",
"30 509 LINE"
);
},
{
closed = 1;
nodes = (
"839 509 LINE",
"839 624 LINE",
"506 624 LINE",
"506 509 LINE"
);
},
{
closed = 1;
nodes = (
"644 -216 OFFCURVE",
"743 -139 OFFCURVE",
"743 -1 CURVE SMOOTH",
"743 358 LINE",
"608 358 LINE",
"610 8 LINE SMOOTH",
"610 -66 OFFCURVE",
"575 -91 OFFCURVE",
"524 -95 CURVE SMOOTH",
"484 -97 OFFCURVE",
"439 -72 OFFCURVE",
"409 -50 CURVE",
"349 -152 LINE",
"385 -187 OFFCURVE",
"454 -216 OFFCURVE",
"532 -216 CURVE SMOOTH"
);
}
);
width = 857;
},
{
anchors = (
{
name = bottom;
position = "{721, 12}";
},
{
name = top;
position = "{685, 612}";
}
);
layerId = "C70E3B11-AF58-44B6-92D7-58C9185F522D";
paths = (
{
closed = 1;
nodes = (
"1136 62 LINE",
"1136 608 LINE",
"1002 608 LINE",
"1002 212 LINE",
"388 624 LINE",
"124 624 LINE",
"1057 -6 LINE"
);
},
{
closed = 1;
nodes = (
"541 0 LINE",
"541 115 LINE",
"61 115 LINE",
"61 0 LINE"
);
},
{
closed = 1;
nodes = (
"388 14 LINE",
"388 624 LINE",
"246 624 LINE",
"246 14 LINE"
);
},
{
closed = 1;
nodes = (
"383 509 LINE",
"388 624 LINE",
"61 624 LINE",
"61 509 LINE"
);
},
{
closed = 1;
nodes = (
"1321 509 LINE",
"1321 624 LINE",
"817 624 LINE",
"817 509 LINE"
);
},
{
closed = 1;
nodes = (
"1033 -216 OFFCURVE",
"1136 -126 OFFCURVE",
"1136 35 CURVE SMOOTH",
"1136 358 LINE",
"1002 358 LINE",
"1002 35 LINE SMOOTH",
"1002 -55 OFFCURVE",
"954 -94 OFFCURVE",
"883 -94 CURVE SMOOTH",
"804 -94 OFFCURVE",
"730 -35 OFFCURVE",
"680 11 CURVE",
"602 -91 LINE",
"667 -144 OFFCURVE",
"760 -216 OFFCURVE",
"884 -216 CURVE SMOOTH"
);
}
);
width = 1332;
}
);
leftKerningGroup = H;
leftMetricsKey = N;
rightKerningGroup = J;
rightMetricsKey = N;
unicode = 014A;
},
{
glyphname = O;
lastChange = "2016-01-15 16:42:16 +0000";
layers = (
{
anchors = (
{
name = bottom;
position = "{550, -12}";
},
{
name = center;
position = "{550, 294}";
},
{
name = ogonek;
position = "{552, -10}";
},
{
name = top;
position = "{550, 636}";
},
{
name = topright;
position = "{1069, 588}";
}
);
background = {
paths = (
{
closed = 1;
nodes = (
"809 -24 OFFCURVE",
"1009 94 OFFCURVE",
"1009 298 CURVE",
"1009 500 OFFCURVE",
"809 619 OFFCURVE",
"550 619 CURVE",
"290 619 OFFCURVE",
"90 500 OFFCURVE",
"90 298 CURVE",
"90 94 OFFCURVE",
"290 -24 OFFCURVE",
"550 -24 CURVE"
);
},
{
closed = 1;
nodes = (
"302 4 OFFCURVE",
"120 115 OFFCURVE",
"120 298 CURVE",
"120 480 OFFCURVE",
"302 592 OFFCURVE",
"550 592 CURVE",
"796 592 OFFCURVE",
"979 480 OFFCURVE",
"979 298 CURVE",
"979 115 OFFCURVE",
"796 4 OFFCURVE",
"550 4 CURVE"
);
}
);
};
layerId = "B29C398E-974A-40D0-A0A0-00935056D4B4";
paths = (
{
closed = 1;
nodes = (
"809 -12 OFFCURVE",
"1009 106 OFFCURVE",
"1009 312 CURVE",
"1009 517 OFFCURVE",
"809 636 OFFCURVE",
"550 636 CURVE",
"290 636 OFFCURVE",
"90 517 OFFCURVE",
"90 312 CURVE",
"90 106 OFFCURVE",
"290 -12 OFFCURVE",
"550 -12 CURVE"
);
},
{
closed = 1;
nodes = (
"302 16 OFFCURVE",
"120 127 OFFCURVE",
"120 312 CURVE",
"120 497 OFFCURVE",
"302 608 OFFCURVE",
"550 608 CURVE",
"796 608 OFFCURVE",
"979 497 OFFCURVE",
"979 312 CURVE",
"979 127 OFFCURVE",
"796 16 OFFCURVE",
"550 16 CURVE"
);
}
);
width = 1099;
},
{
anchors = (
{
name = bottom;
position = "{370, -12}";
},
{
name = center;
position = "{370, 294}";
},
{
name = ogonek;
position = "{370, -11}";
},
{
name = top;
position = "{370, 636}";
},
{
name = topright;
position = "{654, 588}";
}
);
layerId = "543F9737-16F7-428D-9F96-2EBD9FC8D3B6";
paths = (
{
closed = 1;
nodes = (
"535 -12 OFFCURVE",
"673 107 OFFCURVE",
"673 312 CURVE",
"673 517 OFFCURVE",
"535 636 OFFCURVE",
"370 636 CURVE",
"203 636 OFFCURVE",
"66 517 OFFCURVE",
"66 312 CURVE",
"66 107 OFFCURVE",
"203 -12 OFFCURVE",
"370 -12 CURVE"
);
},
{
closed = 1;
nodes = (
"216 16 OFFCURVE",
"96 127 OFFCURVE",
"96 312 CURVE",
"96 497 OFFCURVE",
"216 608 OFFCURVE",
"370 608 CURVE",
"522 608 OFFCURVE",
"643 497 OFFCURVE",
"643 312 CURVE",
"643 127 OFFCURVE",
"522 16 OFFCURVE",
"370 16 CURVE"
);
}
);
width = 739;
},
{
anchors = (
{
name = bottom;
position = "{370, -12}";
},
{
name = center;
position = "{371, 294}";
},
{
name = ogonek;
position = "{419, -10}";
},
{
name = top;
position = "{370, 636}";
},
{
name = topright;
position = "{655, 588}";
}
);
layerId = "EB38A4D2-CD30-49BA-8E45-1F04A566FFE8";
paths = (
{
closed = 1;
nodes = (
"566 -12 OFFCURVE",
"710 132 OFFCURVE",
"710 312 CURVE",
"710 492 OFFCURVE",
"566 636 OFFCURVE",
"371 636 CURVE",
"174 636 OFFCURVE",
"30 492 OFFCURVE",
"30 312 CURVE",
"30 132 OFFCURVE",
"174 -12 OFFCURVE",
"371 -12 CURVE"
);
},
{
closed = 1;
nodes = (
"252 107 OFFCURVE",
"185 200 OFFCURVE",
"185 312 CURVE",
"185 421 OFFCURVE",
"252 517 OFFCURVE",
"370 517 CURVE",
"488 517 OFFCURVE",
"556 424 OFFCURVE",
"556 312 CURVE",
"556 203 OFFCURVE",
"488 107 OFFCURVE",
"370 107 CURVE"
);
}
);
width = 740;
},
{
anchors = (
{
name = bottom;
position = "{551, -12}";
},
{
name = center;
position = "{551, 304}";
},
{
name = ogonek;
position = "{612, -8}";
},
{
name = top;
position = "{550, 636}";
},
{
name = topright;
position = "{1070, 588}";
}
);
layerId = "C70E3B11-AF58-44B6-92D7-58C9185F522D";
paths = (
{
closed = 1;
nodes = (
"840 -12 OFFCURVE",
"1046 125 OFFCURVE",
"1046 312 CURVE",
"1046 498 OFFCURVE",
"840 636 OFFCURVE",
"551 636 CURVE",
"262 636 OFFCURVE",
"54 498 OFFCURVE",
"54 312 CURVE",
"54 125 OFFCURVE",
"262 -12 OFFCURVE",
"551 -12 CURVE"
);
},
{
closed = 1;
nodes = (
"343 107 OFFCURVE",
"215 193 OFFCURVE",
"215 312 CURVE",
"215 428 OFFCURVE",
"343 517 OFFCURVE",
"550 517 CURVE",
"757 517 OFFCURVE",
"886 431 OFFCURVE",
"886 312 CURVE",
"886 196 OFFCURVE",
"757 107 OFFCURVE",
"550 107 CURVE"
);
}
);
width = 1100;
}
);
leftKerningGroup = O;
rightKerningGroup = O;
unicode = 004F;
},
{
glyphname = Oslash;
lastChange = "2016-01-15 16:42:16 +0000";
layers = (
{
components = (
{
name = O;
}
);
layerId = "B29C398E-974A-40D0-A0A0-00935056D4B4";
paths = (
{
closed = 1;
nodes = (
"402 11 LINE",
"406 18 LINE",
"709 604 LINE",
"714 612 LINE",
"758 697 LINE",
"725 697 LINE",
"683 617 LINE",
"678 608 LINE",
"376 28 LINE",
"370 17 LINE",
"325 -71 LINE",
"359 -71 LINE"
);
}
);
width = 1087;
},
{
components = (
{
name = O;
}
);
layerId = "543F9737-16F7-428D-9F96-2EBD9FC8D3B6";
paths = (
{
closed = 1;
nodes = (
"263 13 LINE",
"266 23 LINE",
"476 598 LINE",
"480 607 LINE",
"512 697 LINE",
"482 697 LINE",
"452 616 LINE",
"449 607 LINE",
"241 34 LINE",
"238 25 LINE",
"203 -71 LINE",
"233 -71 LINE"
);
}
);
width = 727;
},
{
components = (
{
name = O;
}
);
layerId = "EB38A4D2-CD30-49BA-8E45-1F04A566FFE8";
paths = (
{
closed = 1;
nodes = (
"311 52 LINE",
"307 70 LINE",
"517 527 LINE",
"534 534 LINE",
"607 697 LINE",
"485 697 LINE",
"430 576 LINE",
"433 558 LINE",
"216 83 LINE",
"197 71 LINE",
"132 -71 LINE",
"254 -71 LINE"
);
}
);
width = 740;
},
{
components = (
{
name = O;
}
);
layerId = "C70E3B11-AF58-44B6-92D7-58C9185F522D";
paths = (
{
closed = 1;
nodes = (
"450 49 LINE",
"446 65 LINE",
"750 533 LINE",
"768 539 LINE",
"864 697 LINE",
"738 697 LINE",
"660 577 LINE",
"662 559 LINE",
"350 77 LINE",
"329 62 LINE",
"245 -71 LINE",
"371 -71 LINE"
);
}
);
width = 1100;
}
);
leftKerningGroup = O;
rightKerningGroup = O;
unicode = 00D8;
},
{
glyphname = OE;
lastChange = "2016-01-15 16:42:16 +0000";
layers = (
{
anchors = (
{
name = bottom;
position = "{913, 0}";
},
{
name = center;
position = "{913, 294}";
},
{
name = ogonek;
position = "{1590, 0}";
},
{
name = top;
position = "{913, 624}";
}
);
layerId = "B29C398E-974A-40D0-A0A0-00935056D4B4";
paths = (
{
closed = 1;
nodes = (
"1590 0 LINE",
"1590 220 LINE",
"1561 220 LINE",
"1561 28 LINE",
"503 28 LINE SMOOTH",
"270 28 OFFCURVE",
"120 122 OFFCURVE",
"120 312 CURVE SMOOTH",
"120 502 OFFCURVE",
"270 596 OFFCURVE",
"503 596 CURVE SMOOTH",
"1560 596 LINE",
"1560 404 LINE",
"1590 404 LINE",
"1590 624 LINE",
"503 624 LINE SMOOTH",
"257 624 OFFCURVE",
"90 522 OFFCURVE",
"90 312 CURVE SMOOTH",
"90 102 OFFCURVE",
"257 0 OFFCURVE",
"503 0 CURVE SMOOTH"
);
},
{
closed = 1;
nodes = (
"871 16 LINE",
"871 608 LINE",
"841 608 LINE",
"841 16 LINE"
);
},
{
closed = 1;
nodes = (
"1255 313 LINE",
"1255 341 LINE",
"868 341 LINE",
"868 313 LINE"
);
},
{
closed = 1;
nodes = (
"1271 184 LINE",
"1271 470 LINE",
"1241 470 LINE",
"1241 184 LINE"
);
}
);
width = 1746;
},
{
anchors = (
{
name = bottom;
position = "{553, 0}";
},
{
name = center;
position = "{553, 294}";
},
{
name = ogonek;
position = "{916, 0}";
},
{
name = top;
position = "{553, 624}";
}
);
layerId = "543F9737-16F7-428D-9F96-2EBD9FC8D3B6";
paths = (
{
closed = 1;
nodes = (
"916 0 LINE",
"916 163 LINE",
"887 163 LINE",
"887 28 LINE",
"414 28 LINE SMOOTH",
"218 28 OFFCURVE",
"96 133 OFFCURVE",
"96 306 CURVE SMOOTH",
"96 479 OFFCURVE",
"218 596 OFFCURVE",
"414 596 CURVE SMOOTH",
"886 596 LINE",
"886 461 LINE",
"916 461 LINE",
"916 624 LINE",
"414 624 LINE SMOOTH",
"206 624 OFFCURVE",
"66 499 OFFCURVE",
"66 306 CURVE SMOOTH",
"66 113 OFFCURVE",
"206 0 OFFCURVE",
"414 0 CURVE SMOOTH"
);
},
{
closed = 1;
nodes = (
"533 16 LINE",
"533 608 LINE",
"503 608 LINE",
"503 16 LINE"
);
},
{
closed = 1;
nodes = (
"725 313 LINE",
"725 341 LINE",
"529 341 LINE",
"529 313 LINE"
);
},
{
closed = 1;
nodes = (
"740 214 LINE",
"740 440 LINE",
"710 440 LINE",
"710 214 LINE"
);
}
);
width = 994;
},
{
anchors = (
{
name = bottom;
position = "{590, 0}";
},
{
name = center;
position = "{590, 316}";
},
{
name = ogonek;
position = "{1001, 0}";
},
{
name = top;
position = "{590, 624}";
}
);
layerId = "EB38A4D2-CD30-49BA-8E45-1F04A566FFE8";
paths = (
{
closed = 1;
nodes = (
"1001 0 LINE",
"1001 228 LINE",
"871 228 LINE",
"871 115 LINE",
"416 115 LINE SMOOTH",
"323 115 OFFCURVE",
"184 140 OFFCURVE",
"184 313 CURVE SMOOTH",
"184 487 OFFCURVE",
"323 509 OFFCURVE",
"416 509 CURVE SMOOTH",
"871 509 LINE",
"871 395 LINE",
"1001 395 LINE",
"1001 624 LINE",
"380 624 LINE SMOOTH",
"209 624 OFFCURVE",
"30 538 OFFCURVE",
"30 313 CURVE SMOOTH",
"30 89 OFFCURVE",
"209 0 OFFCURVE",
"380 0 CURVE SMOOTH"
);
},
{
closed = 1;
nodes = (
"611 64 LINE",
"611 550 LINE",
"464 550 LINE",
"464 64 LINE"
);
},
{
closed = 1;
nodes = (
"761 247 LINE",
"761 362 LINE",
"517 362 LINE",
"517 247 LINE"
);
},
{
closed = 1;
nodes = (
"810 181 LINE",
"810 428 LINE",
"695 428 LINE",
"695 181 LINE"
);
}
);
width = 1061;
},
{
anchors = (
{
name = bottom;
position = "{950, 0}";
},
{
name = center;
position = "{950, 316}";
},
{
name = ogonek;
position = "{1675, 0}";
},
{
name = top;
position = "{950, 624}";
}
);
layerId = "C70E3B11-AF58-44B6-92D7-58C9185F522D";
paths = (
{
closed = 1;
nodes = (
"1675 0 LINE",
"1675 251 LINE",
"1546 251 LINE",
"1546 115 LINE",
"529 115 LINE SMOOTH",
"410 115 OFFCURVE",
"208 136 OFFCURVE",
"208 319 CURVE SMOOTH",
"208 504 OFFCURVE",
"410 509 OFFCURVE",
"529 509 CURVE SMOOTH",
"1546 509 LINE",
"1546 371 LINE",
"1675 371 LINE",
"1675 624 LINE",
"493 624 LINE SMOOTH",
"295 624 OFFCURVE",
"54 554 OFFCURVE",
"54 319 CURVE SMOOTH",
"54 84 OFFCURVE",
"295 0 OFFCURVE",
"493 0 CURVE SMOOTH"
);
},
{
closed = 1;
nodes = (
"949 64 LINE",
"949 550 LINE",
"803 550 LINE",
"803 64 LINE"
);
},
{
closed = 1;
nodes = (
"1291 252 LINE",
"1291 356 LINE",
"856 356 LINE",
"856 252 LINE"
);
},
{
closed = 1;
nodes = (
"1340 151 LINE",
"1340 458 LINE",
"1225 458 LINE",
"1225 151 LINE"
);
}
);
width = 1795;
}
);
leftKerningGroup = O;
leftMetricsKey = "=O";
rightKerningGroup = E;
rightMetricsKey = "=E";
unicode = 0152;
},
{
glyphname = P;
lastChange = "2016-01-15 16:42:16 +0000";
layers = (
{
anchors = (
{
name = bottom;
position = "{554, 0}";
},
{
name = top;
position = "{554, 624}";
}
);
background = {
paths = (
{
closed = 1;
nodes = (
"316 16 LINE",
"316 572 LINE",
"286 572 LINE",
"286 16 LINE"
);
},
{
closed = 1;
nodes = (
"546 0 LINE",
"546 28 LINE",
"67 28 LINE",
"67 0 LINE"
);
},
{
closed = 1;
nodes = (
"833 232 LINE SMOOTH",
"967 232 OFFCURVE",
"1049 310 OFFCURVE",
"1049 408 CURVE SMOOTH",
"1049 517 OFFCURVE",
"965 588 OFFCURVE",
"833 588 CURVE SMOOTH",
"67 588 LINE",
"67 560 LINE",
"841 560 LINE SMOOTH",
"948 560 OFFCURVE",
"1019 498 OFFCURVE",
"1019 408 CURVE SMOOTH",
"1019 320 OFFCURVE",
"944 259 OFFCURVE",
"841 259 CURVE SMOOTH",
"301 259 LINE",
"301 232 LINE"
);
}
);
};
layerId = "B29C398E-974A-40D0-A0A0-00935056D4B4";
paths = (
{
closed = 1;
nodes = (
"833 256 LINE SMOOTH",
"967 256 OFFCURVE",
"1049 334 OFFCURVE",
"1049 438 CURVE SMOOTH",
"1049 553 OFFCURVE",
"965 624 OFFCURVE",
"833 624 CURVE SMOOTH",
"67 624 LINE",
"67 596 LINE",
"841 596 LINE SMOOTH",
"948 596 OFFCURVE",
"1019 534 OFFCURVE",
"1019 438 CURVE SMOOTH",
"1019 344 OFFCURVE",
"944 283 OFFCURVE",
"841 283 CURVE SMOOTH",
"301 283 LINE",
"301 256 LINE"
);
},
{
closed = 1;
nodes = (
"546 0 LINE",
"546 28 LINE",
"67 28 LINE",
"67 0 LINE"
);
},
{
closed = 1;
nodes = (
"316 16 LINE",
"316 608 LINE",
"286 608 LINE",
"286 16 LINE"
);
}
);
width = 1121;
},
{
anchors = (
{
name = bottom;
position = "{328, 0}";
},
{
name = top;
position = "{328, 588}";
}
);
layerId = "543F9737-16F7-428D-9F96-2EBD9FC8D3B6";
paths = (
{
closed = 1;
nodes = (
"377 256 LINE SMOOTH",
"517 256 OFFCURVE",
"610 319 OFFCURVE",
"610 439 CURVE SMOOTH",
"610 559 OFFCURVE",
"517 624 OFFCURVE",
"377 624 CURVE SMOOTH",
"36 624 LINE",
"36 596 LINE",
"377 596 LINE SMOOTH",
"492 596 OFFCURVE",
"580 547 OFFCURVE",
"580 439 CURVE SMOOTH",
"580 331 OFFCURVE",
"492 283 OFFCURVE",
"377 283 CURVE SMOOTH",
"192 283 LINE",
"192 256 LINE"
);
},
{
closed = 1;
nodes = (
"343 0 LINE",
"343 28 LINE",
"36 28 LINE",
"36 0 LINE"
);
},
{
closed = 1;
nodes = (
"202 16 LINE",
"202 608 LINE",
"172 608 LINE",
"172 16 LINE"
);
}
);
width = 664;
},
{
anchors = (
{
name = bottom;
position = "{343, 0}";
},
{
name = top;
position = "{343, 632}";
}
);
layerId = "EB38A4D2-CD30-49BA-8E45-1F04A566FFE8";
paths = (
{
closed = 1;
nodes = (
"398 211 LINE SMOOTH",
"550 211 OFFCURVE",
"647 296 OFFCURVE",
"647 422 CURVE SMOOTH",
"647 544 OFFCURVE",
"546 624 OFFCURVE",
"396 624 CURVE SMOOTH",
"30 624 LINE",
"30 509 LINE",
"386 509 LINE SMOOTH",
"440 509 OFFCURVE",
"502 492 OFFCURVE",
"502 424 CURVE SMOOTH",
"502 340 OFFCURVE",
"439 326 OFFCURVE",
"390 326 CURVE SMOOTH",
"228 328 LINE",
"228 211 LINE"
);
},
{
closed = 1;
nodes = (
"388 0 LINE",
"388 115 LINE",
"30 115 LINE",
"30 0 LINE"
);
},
{
closed = 1;
nodes = (
"276 64 LINE",
"276 562 LINE",
"132 562 LINE",
"132 64 LINE"
);
}
);
width = 671;
},
{
anchors = (
{
name = bottom;
position = "{570, 0}";
},
{
name = top;
position = "{570, 668}";
}
);
layerId = "C70E3B11-AF58-44B6-92D7-58C9185F522D";
paths = (
{
closed = 1;
nodes = (
"810 211 LINE SMOOTH",
"967 211 OFFCURVE",
"1086 287 OFFCURVE",
"1086 418 CURVE SMOOTH",
"1086 551 OFFCURVE",
"967 624 OFFCURVE",
"810 624 CURVE SMOOTH",
"61 624 LINE",
"61 509 LINE",
"804 509 LINE SMOOTH",
"882 509 OFFCURVE",
"935 478 OFFCURVE",
"935 415 CURVE SMOOTH",
"935 358 OFFCURVE",
"882 322 OFFCURVE",
"804 323 CURVE SMOOTH",
"337 329 LINE",
"337 212 LINE"
);
},
{
closed = 1;
nodes = (
"590 0 LINE",
"590 115 LINE",
"61 115 LINE",
"61 0 LINE"
);
},
{
closed = 1;
nodes = (
"394 64 LINE",
"394 562 LINE",
"246 562 LINE",
"246 64 LINE"
);
}
);
width = 1134;
}
);
leftKerningGroup = H;
leftMetricsKey = "=H";
rightKerningGroup = P;
unicode = 0050;
},
{
glyphname = Thorn;
lastChange = "2016-01-15 16:42:16 +0000";
layers = (
{
background = {
paths = (
{
closed = 1;
nodes = (
"546 0 LINE SMOOTH",
"546 28 LINE SMOOTH",
"67 28 LINE SMOOTH",
"67 0 LINE SMOOTH"
);
}
);
};
layerId = "B29C398E-974A-40D0-A0A0-00935056D4B4";
paths = (
{
closed = 1;
nodes = (
"806 172 LINE SMOOTH",
"917 172 OFFCURVE",
"986 226 OFFCURVE",
"986 312 CURVE SMOOTH",
"986 398 OFFCURVE",
"917 452 OFFCURVE",
"806 452 CURVE SMOOTH",
"299 452 LINE",
"299 425 LINE",
"815 425 LINE SMOOTH",
"894 425 OFFCURVE",
"956 388 OFFCURVE",
"956 312 CURVE SMOOTH",
"956 236 OFFCURVE",
"894 199 OFFCURVE",
"815 199 CURVE SMOOTH",
"299 199 LINE",
"299 172 LINE"
);
},
{
closed = 1;
nodes = (
"534 0 LINE",
"534 28 LINE",
"305 28 LINE",
"295 28 LINE",
"67 28 LINE",
"67 0 LINE"
);
},
{
closed = 1;
nodes = (
"316 16 LINE SMOOTH",
"316 608 LINE SMOOTH",
"286 608 LINE SMOOTH",
"286 16 LINE SMOOTH"
);
},
{
closed = 1;
nodes = (
"293 596 LINE",
"301 596 LINE",
"534 596 LINE SMOOTH",
"534 624 LINE SMOOTH",
"67 624 LINE SMOOTH",
"67 596 LINE SMOOTH"
);
}
);
width = 1058;
},
{
layerId = "543F9737-16F7-428D-9F96-2EBD9FC8D3B6";
paths = (
{
closed = 1;
nodes = (
"416 170 LINE SMOOTH",
"533 170 OFFCURVE",
"610 218 OFFCURVE",
"610 310 CURVE SMOOTH",
"610 401 OFFCURVE",
"533 451 OFFCURVE",
"416 451 CURVE SMOOTH",
"181 451 LINE",
"181 424 LINE",
"416 424 LINE SMOOTH",
"515 424 OFFCURVE",
"580 384 OFFCURVE",
"580 311 CURVE SMOOTH",
"580 238 OFFCURVE",
"515 198 OFFCURVE",
"416 198 CURVE SMOOTH",
"181 198 LINE",
"181 170 LINE"
);
},
{
closed = 1;
nodes = (
"343 0 LINE",
"343 28 LINE",
"190 28 LINE",
"181 28 LINE",
"36 28 LINE",
"36 0 LINE"
);
},
{
closed = 1;
nodes = (
"202 16 LINE",
"202 610 LINE",
"172 610 LINE",
"172 16 LINE"
);
},
{
closed = 1;
nodes = (
"178 596 LINE",
"191 596 LINE",
"343 596 LINE",
"343 624 LINE",
"36 624 LINE",
"36 596 LINE"
);
}
);
width = 646;
},
{
layerId = "EB38A4D2-CD30-49BA-8E45-1F04A566FFE8";
paths = (
{
closed = 1;
nodes = (
"430 160 LINE SMOOTH",
"548 161 OFFCURVE",
"637 209 OFFCURVE",
"637 311 CURVE SMOOTH",
"637 415 OFFCURVE",
"548 461 OFFCURVE",
"430 461 CURVE SMOOTH",
"222 461 LINE",
"222 360 LINE",
"407 360 LINE SMOOTH",
"449 360 OFFCURVE",
"491 354 OFFCURVE",
"491 311 CURVE SMOOTH",
"491 262 OFFCURVE",
"444 258 OFFCURVE",
"407 258 CURVE SMOOTH",
"221 258 LINE",
"221 158 LINE"
);
},
{
closed = 1;
nodes = (
"370 0 LINE",
"370 103 LINE",
"247 103 LINE",
"247 115 LINE",
"30 115 LINE",
"30 0 LINE"
);
},
{
closed = 1;
nodes = (
"264 64 LINE",
"264 562 LINE",
"126 562 LINE",
"126 64 LINE"
);
},
{
closed = 1;
nodes = (
"238 509 LINE",
"238 521 LINE",
"370 521 LINE",
"370 624 LINE",
"30 624 LINE",
"30 509 LINE"
);
}
);
width = 643;
},
{
layerId = "C70E3B11-AF58-44B6-92D7-58C9185F522D";
paths = (
{
closed = 1;
nodes = (
"829 161 LINE SMOOTH",
"942 162 OFFCURVE",
"1024 216 OFFCURVE",
"1024 313 CURVE SMOOTH",
"1024 413 OFFCURVE",
"942 462 OFFCURVE",
"829 462 CURVE SMOOTH",
"349 462 LINE",
"349 361 LINE",
"797 361 LINE SMOOTH",
"832 361 OFFCURVE",
"877 355 OFFCURVE",
"877 312 CURVE SMOOTH",
"877 263 OFFCURVE",
"827 259 OFFCURVE",
"797 259 CURVE SMOOTH",
"348 259 LINE",
"348 160 LINE"
);
},
{
closed = 1;
nodes = (
"571 0 LINE",
"571 103 LINE",
"353 103 LINE",
"353 115 LINE",
"61 115 LINE",
"61 0 LINE"
);
},
{
closed = 1;
nodes = (
"388 64 LINE",
"388 560 LINE",
"246 560 LINE",
"246 64 LINE"
);
},
{
closed = 1;
nodes = (
"344 509 LINE",
"344 521 LINE",
"571 521 LINE",
"571 624 LINE",
"61 624 LINE",
"61 509 LINE"
);
}
);
width = 1066;
}
);
leftKerningGroup = H;
leftMetricsKey = "=I";
rightKerningGroup = Thorn;
unicode = 00DE;
},
{
glyphname = Q;
lastChange = "2016-01-15 16:42:16 +0000";
layers = (
{
anchors = (
{
name = bottom;
position = "{547, -12}";
},
{
name = top;
position = "{547, 636}";
}
);
background = {
paths = (
{
closed = 1;
nodes = (
"809 -24 OFFCURVE",
"1009 94 OFFCURVE",
"1009 298 CURVE",
"1009 500 OFFCURVE",
"809 619 OFFCURVE",
"550 619 CURVE",
"290 619 OFFCURVE",
"90 500 OFFCURVE",
"90 298 CURVE",
"90 94 OFFCURVE",
"290 -24 OFFCURVE",
"550 -24 CURVE"
);
},
{
closed = 1;
nodes = (
"302 4 OFFCURVE",
"120 115 OFFCURVE",
"120 298 CURVE",
"120 480 OFFCURVE",
"302 592 OFFCURVE",
"550 592 CURVE",
"796 592 OFFCURVE",
"979 480 OFFCURVE",
"979 298 CURVE",
"979 115 OFFCURVE",
"796 4 OFFCURVE",
"550 4 CURVE"
);
}
);
};
layerId = "B29C398E-974A-40D0-A0A0-00935056D4B4";
paths = (
{
closed = 1;
nodes = (
"809 -12 OFFCURVE",
"1009 106 OFFCURVE",
"1009 312 CURVE",
"1009 517 OFFCURVE",
"809 636 OFFCURVE",
"550 636 CURVE",
"290 636 OFFCURVE",
"90 517 OFFCURVE",
"90 312 CURVE",
"90 106 OFFCURVE",
"290 -12 OFFCURVE",
"550 -12 CURVE"
);
},
{
closed = 1;
nodes = (
"994 -190 OFFCURVE",
"1069 -119 OFFCURVE",
"1082 -16 CURVE",
"1055 -11 LINE",
"1043 -104 OFFCURVE",
"976 -162 OFFCURVE",
"883 -162 CURVE SMOOTH",
"790 -162 OFFCURVE",
"722 -96 OFFCURVE",
"640 2 CURVE SMOOTH",
"618 28 LINE SMOOTH",
"506 161 OFFCURVE",
"426 268 OFFCURVE",
"215 268 CURVE SMOOTH",
"118 268 LINE",
"118 240 LINE",
"215 240 LINE SMOOTH",
"409 240 OFFCURVE",
"491 136 OFFCURVE",
"588 20 CURVE SMOOTH",
"604 1 LINE SMOOTH",
"703 -119 OFFCURVE",
"773 -190 OFFCURVE",
"883 -190 CURVE SMOOTH"
);
},
{
closed = 1;
nodes = (
"302 16 OFFCURVE",
"120 127 OFFCURVE",
"120 312 CURVE",
"120 497 OFFCURVE",
"302 608 OFFCURVE",
"550 608 CURVE",
"796 608 OFFCURVE",
"979 497 OFFCURVE",
"979 312 CURVE",
"979 127 OFFCURVE",
"796 16 OFFCURVE",
"550 16 CURVE"
);
}
);
width = 1100;
},
{
layerId = "543F9737-16F7-428D-9F96-2EBD9FC8D3B6";
paths = (
{
closed = 1;
nodes = (
"680 -79 LINE",
"671 -82 OFFCURVE",
"650 -83 OFFCURVE",
"630 -83 CURVE SMOOTH",
"533 -83 OFFCURVE",
"482 -7 OFFCURVE",
"418 107 CURVE SMOOTH",
"392 154 LINE SMOOTH",
"322 282 OFFCURVE",
"277 336 OFFCURVE",
"126 336 CURVE SMOOTH",
"83 336 LINE",
"83 308 LINE",
"126 308 LINE SMOOTH",
"271 308 OFFCURVE",
"304 252 OFFCURVE",
"362 146 CURVE SMOOTH",
"389 97 LINE SMOOTH",
"461 -35 OFFCURVE",
"522 -110 OFFCURVE",
"630 -110 CURVE SMOOTH",
"650 -110 OFFCURVE",
"671 -109 OFFCURVE",
"684 -104 CURVE"
);
},
{
closed = 1;
nodes = (
"535 -12 OFFCURVE",
"673 107 OFFCURVE",
"673 312 CURVE",
"673 517 OFFCURVE",
"535 636 OFFCURVE",
"370 636 CURVE",
"203 636 OFFCURVE",
"66 517 OFFCURVE",
"66 312 CURVE",
"66 107 OFFCURVE",
"203 -12 OFFCURVE",
"370 -12 CURVE"
);
},
{
closed = 1;
nodes = (
"215 17 OFFCURVE",
"95 128 OFFCURVE",
"95 312 CURVE",
"95 496 OFFCURVE",
"215 607 OFFCURVE",
"370 607 CURVE",
"523 607 OFFCURVE",
"644 496 OFFCURVE",
"644 312 CURVE",
"644 128 OFFCURVE",
"523 17 OFFCURVE",
"370 17 CURVE"
);
}
);
width = 736;
},
{
layerId = "EB38A4D2-CD30-49BA-8E45-1F04A566FFE8";
paths = (
{
closed = 1;
nodes = (
"714 23 LINE",
"698 19 OFFCURVE",
"682 17 OFFCURVE",
"659 17 CURVE",
"607 17 OFFCURVE",
"554 42 OFFCURVE",
"504 149 CURVE SMOOTH",
"474 212 LINE SMOOTH",
"413 342 OFFCURVE",
"324 366 OFFCURVE",
"230 366 CURVE SMOOTH",
"162 366 LINE",
"162 262 LINE",
"230 262 LINE SMOOTH",
"294 262 OFFCURVE",
"326 235 OFFCURVE",
"358 166 CURVE SMOOTH",
"385 104 LINE SMOOTH",
"452 -44 OFFCURVE",
"546 -100 OFFCURVE",
"638 -100 CURVE SMOOTH",
"678 -100 OFFCURVE",
"710 -92 OFFCURVE",
"731 -85 CURVE"
);
},
{
closed = 1;
nodes = (
"566 -12 OFFCURVE",
"710 132 OFFCURVE",
"710 312 CURVE SMOOTH",
"710 492 OFFCURVE",
"566 636 OFFCURVE",
"371 636 CURVE SMOOTH",
"174 636 OFFCURVE",
"30 492 OFFCURVE",
"30 312 CURVE SMOOTH",
"30 132 OFFCURVE",
"174 -12 OFFCURVE",
"371 -12 CURVE SMOOTH"
);
},
{
closed = 1;
nodes = (
"248 101 OFFCURVE",
"179 197 OFFCURVE",
"179 312 CURVE SMOOTH",
"179 425 OFFCURVE",
"248 523 OFFCURVE",
"370 523 CURVE SMOOTH",
"492 523 OFFCURVE",
"562 427 OFFCURVE",
"562 312 CURVE SMOOTH",
"562 199 OFFCURVE",
"492 101 OFFCURVE",
"370 101 CURVE SMOOTH"
);
}
);
width = 737;
},
{
anchors = (
{
name = bottom;
position = "{548, -12}";
},
{
name = top;
position = "{548, 636}";
}
);
layerId = "C70E3B11-AF58-44B6-92D7-58C9185F522D";
paths = (
{
closed = 1;
nodes = (
"840 -12 OFFCURVE",
"1046 131 OFFCURVE",
"1046 312 CURVE",
"1046 492 OFFCURVE",
"840 636 OFFCURVE",
"551 636 CURVE",
"262 636 OFFCURVE",
"54 492 OFFCURVE",
"54 312 CURVE",
"54 131 OFFCURVE",
"262 -12 OFFCURVE",
"551 -12 CURVE"
);
},
{
closed = 1;
nodes = (
"1003 -192 OFFCURVE",
"1086 -119 OFFCURVE",
"1106 -24 CURVE",
"1002 10 LINE",
"989 -49 OFFCURVE",
"940 -77 OFFCURVE",
"883 -77 CURVE SMOOTH",
"821 -77 OFFCURVE",
"768 -26 OFFCURVE",
"722 34 CURVE SMOOTH",
"650 128 LINE SMOOTH",
"540 274 OFFCURVE",
"462 342 OFFCURVE",
"277 342 CURVE SMOOTH",
"179 342 LINE",
"179 238 LINE",
"277 238 LINE SMOOTH",
"415 238 OFFCURVE",
"464 161 OFFCURVE",
"529 78 CURVE SMOOTH",
"593 -2 LINE SMOOTH",
"672 -103 OFFCURVE",
"751 -192 OFFCURVE",
"883 -192 CURVE SMOOTH"
);
},
{
closed = 1;
nodes = (
"336 96 OFFCURVE",
"205 193 OFFCURVE",
"205 312 CURVE",
"205 430 OFFCURVE",
"336 528 OFFCURVE",
"550 528 CURVE",
"763 528 OFFCURVE",
"894 431 OFFCURVE",
"894 312 CURVE",
"894 194 OFFCURVE",
"763 96 OFFCURVE",
"550 96 CURVE"
);
}
);
width = 1106;
}
);
leftKerningGroup = O;
leftMetricsKey = "=O";
rightKerningGroup = O;
unicode = 0051;
},
{
glyphname = Q.swsh;
lastChange = "2016-01-15 16:42:16 +0000";
layers = (
{
anchors = (
{
name = bottom;
position = "{547, -12}";
},
{
name = top;
position = "{547, 636}";
}
);
background = {
paths = (
{
closed = 1;
nodes = (
"652 235 OFFCURVE",
"520 318 OFFCURVE",
"162 318 CURVE SMOOTH",
"106 318 LINE",
"106 290 LINE",
"162 290 LINE SMOOTH",
"480 290 OFFCURVE",
"614 229 OFFCURVE",
"799 -1 CURVE SMOOTH",
"1002 -257 OFFCURVE",
"1148 -421 OFFCURVE",
"1393 -421 CURVE SMOOTH",
"1561 -421 OFFCURVE",
"1670 -366 OFFCURVE",
"1764 -281 CURVE",
"1745 -259 LINE",
"1660 -337 OFFCURVE",
"1556 -394 OFFCURVE",
"1393 -394 CURVE SMOOTH",
"1174 -394 OFFCURVE",
"1030 -246 OFFCURVE",
"836 0 CURVE SMOOTH"
);
},
{
closed = 1;
nodes = (
"809 -24 OFFCURVE",
"1009 94 OFFCURVE",
"1009 298 CURVE",
"1009 500 OFFCURVE",
"809 619 OFFCURVE",
"550 619 CURVE",
"290 619 OFFCURVE",
"90 500 OFFCURVE",
"90 298 CURVE",
"90 94 OFFCURVE",
"290 -24 OFFCURVE",
"550 -24 CURVE"
);
},
{
closed = 1;
nodes = (
"302 4 OFFCURVE",
"120 115 OFFCURVE",
"120 298 CURVE",
"120 480 OFFCURVE",
"302 592 OFFCURVE",
"550 592 CURVE",
"796 592 OFFCURVE",
"979 480 OFFCURVE",
"979 298 CURVE",
"979 115 OFFCURVE",
"796 4 OFFCURVE",
"550 4 CURVE"
);
}
);
};
guideLines = (
{
position = "{730, 32}";
}
);
layerId = "B29C398E-974A-40D0-A0A0-00935056D4B4";
paths = (
{
closed = 1;
nodes = (
"1633 -336 OFFCURVE",
"1753 -272 OFFCURVE",
"1832 -221 CURVE",
"1817 -198 LINE",
"1744 -247 OFFCURVE",
"1628 -308 OFFCURVE",
"1460 -308 CURVE SMOOTH",
"1258 -308 OFFCURVE",
"1100 -212 OFFCURVE",
"865 24 CURVE SMOOTH",
"668 222 OFFCURVE",
"520 318 OFFCURVE",
"222 318 CURVE SMOOTH",
"106 318 LINE",
"106 290 LINE",
"222 290 LINE SMOOTH",
"494 290 OFFCURVE",
"638 209 OFFCURVE",
"823 23 CURVE SMOOTH",
"1066 -222 OFFCURVE",
"1232 -336 OFFCURVE",
"1460 -336 CURVE SMOOTH"
);
},
{
closed = 1;
nodes = (
"809 -12 OFFCURVE",
"1009 106 OFFCURVE",
"1009 310 CURVE",
"1009 512 OFFCURVE",
"809 631 OFFCURVE",
"550 631 CURVE",
"290 631 OFFCURVE",
"90 512 OFFCURVE",
"90 310 CURVE",
"90 106 OFFCURVE",
"290 -12 OFFCURVE",
"550 -12 CURVE"
);
},
{
closed = 1;
nodes = (
"302 16 OFFCURVE",
"120 127 OFFCURVE",
"120 310 CURVE",
"120 492 OFFCURVE",
"302 604 OFFCURVE",
"550 604 CURVE",
"796 604 OFFCURVE",
"979 492 OFFCURVE",
"979 310 CURVE",
"979 127 OFFCURVE",
"796 16 OFFCURVE",
"550 16 CURVE"
);
}
);
width = 1092;
},
{
anchors = (
{
name = bottom;
position = "{367, -12}";
},
{
name = top;
position = "{367, 636}";
}
);
layerId = "543F9737-16F7-428D-9F96-2EBD9FC8D3B6";
paths = (
{
closed = 1;
nodes = (
"1078 -226 OFFCURVE",
"1146 -198 OFFCURVE",
"1198 -163 CURVE",
"1183 -140 LINE",
"1135 -173 OFFCURVE",
"1068 -198 OFFCURVE",
"990 -198 CURVE SMOOTH",
"854 -198 OFFCURVE",
"738 -125 OFFCURVE",
"576 73 CURVE SMOOTH",
"403 284 OFFCURVE",
"295 304 OFFCURVE",
"114 304 CURVE SMOOTH",
"83 304 LINE",
"83 276 LINE",
"114 276 LINE SMOOTH",
"295 276 OFFCURVE",
"389 256 OFFCURVE",
"544 66 CURVE SMOOTH",
"719 -148 OFFCURVE",
"842 -226 OFFCURVE",
"990 -226 CURVE SMOOTH"
);
},
{
closed = 1;
nodes = (
"535 -12 OFFCURVE",
"673 107 OFFCURVE",
"673 312 CURVE",
"673 517 OFFCURVE",
"535 636 OFFCURVE",
"370 636 CURVE",
"203 636 OFFCURVE",
"66 517 OFFCURVE",
"66 312 CURVE",
"66 107 OFFCURVE",
"203 -12 OFFCURVE",
"370 -12 CURVE"
);
},
{
closed = 1;
nodes = (
"215 17 OFFCURVE",
"95 128 OFFCURVE",
"95 312 CURVE",
"95 496 OFFCURVE",
"215 607 OFFCURVE",
"370 607 CURVE",
"523 607 OFFCURVE",
"644 496 OFFCURVE",
"644 312 CURVE",
"644 128 OFFCURVE",
"523 17 OFFCURVE",
"370 17 CURVE"
);
}
);
width = 746;
},
{
anchors = (
{
name = bottom;
position = "{368, -12}";
},
{
name = top;
position = "{368, 636}";
}
);
layerId = "EB38A4D2-CD30-49BA-8E45-1F04A566FFE8";
paths = (
{
closed = 1;
nodes = (
"1058 -240 OFFCURVE",
"1141 -204 OFFCURVE",
"1198 -163 CURVE",
"1144 -61 LINE",
"1090 -98 OFFCURVE",
"1036 -120 OFFCURVE",
"964 -120 CURVE SMOOTH",
"856 -120 OFFCURVE",
"775 -53 OFFCURVE",
"659 71 CURVE SMOOTH",
"481 260 OFFCURVE",
"412 341 OFFCURVE",
"169 341 CURVE SMOOTH",
"118 341 LINE",
"118 236 LINE",
"173 236 LINE SMOOTH",
"346 236 OFFCURVE",
"406 176 OFFCURVE",
"544 13 CURVE SMOOTH",
"708 -181 OFFCURVE",
"812 -240 OFFCURVE",
"964 -240 CURVE SMOOTH"
);
},
{
closed = 1;
nodes = (
"566 -12 OFFCURVE",
"710 132 OFFCURVE",
"710 312 CURVE",
"710 492 OFFCURVE",
"566 636 OFFCURVE",
"371 636 CURVE",
"174 636 OFFCURVE",
"30 492 OFFCURVE",
"30 312 CURVE",
"30 132 OFFCURVE",
"174 -12 OFFCURVE",
"371 -12 CURVE"
);
},
{
closed = 1;
nodes = (
"248 97 OFFCURVE",
"180 194 OFFCURVE",
"180 312 CURVE",
"180 428 OFFCURVE",
"248 527 OFFCURVE",
"370 527 CURVE",
"491 527 OFFCURVE",
"559 430 OFFCURVE",
"559 312 CURVE",
"559 196 OFFCURVE",
"491 97 OFFCURVE",
"370 97 CURVE"
);
}
);
width = 750;
},
{
anchors = (
{
name = bottom;
position = "{548, -12}";
},
{
name = top;
position = "{548, 636}";
}
);
layerId = "C70E3B11-AF58-44B6-92D7-58C9185F522D";
paths = (
{
closed = 1;
nodes = (
"1614 -384 OFFCURVE",
"1748 -312 OFFCURVE",
"1832 -254 CURVE",
"1777 -152 LINE",
"1698 -206 OFFCURVE",
"1596 -264 OFFCURVE",
"1434 -264 CURVE SMOOTH",
"1259 -264 OFFCURVE",
"1138 -174 OFFCURVE",
"948 22 CURVE SMOOTH",
"768 217 OFFCURVE",
"636 355 OFFCURVE",
"277 355 CURVE SMOOTH",
"140 355 LINE",
"140 251 LINE",
"281 251 LINE SMOOTH",
"545 251 OFFCURVE",
"667 140 OFFCURVE",
"823 -30 CURVE SMOOTH",
"1055 -289 OFFCURVE",
"1202 -384 OFFCURVE",
"1434 -384 CURVE SMOOTH"
);
},
{
closed = 1;
nodes = (
"840 -12 OFFCURVE",
"1046 125 OFFCURVE",
"1046 312 CURVE",
"1046 498 OFFCURVE",
"840 636 OFFCURVE",
"551 636 CURVE",
"262 636 OFFCURVE",
"54 498 OFFCURVE",
"54 312 CURVE",
"54 125 OFFCURVE",
"262 -12 OFFCURVE",
"551 -12 CURVE"
);
},
{
closed = 1;
nodes = (
"340 106 OFFCURVE",
"210 193 OFFCURVE",
"210 312 CURVE",
"210 428 OFFCURVE",
"340 518 OFFCURVE",
"550 518 CURVE",
"761 518 OFFCURVE",
"890 431 OFFCURVE",
"890 312 CURVE",
"890 196 OFFCURVE",
"761 106 OFFCURVE",
"550 106 CURVE"
);
}
);
width = 1096;
}
);
leftKerningGroup = O;
leftMetricsKey = "=O";
rightKerningGroup = O;
},
{
glyphname = R;
lastChange = "2016-01-15 16:42:16 +0000";
layers = (
{
anchors = (
{
name = bottom;
position = "{677, 0}";
},
{
name = top;
position = "{629, 624}";
}
);
background = {
paths = (
{
closed = 1;
nodes = (
"542 287 LINE SMOOTH",
"643 287 OFFCURVE",
"697 203 OFFCURVE",
"756 132 CURVE SMOOTH",
"822 53 OFFCURVE",
"896 -44 OFFCURVE",
"1007 -44 CURVE SMOOTH",
"1139 -44 OFFCURVE",
"1214 44 OFFCURVE",
"1214 178 CURVE SMOOTH",
"1214 203 LINE",
"1184 203 LINE",
"1184 178 LINE SMOOTH",
"1184 58 OFFCURVE",
"1117 -17 OFFCURVE",
"1007 -17 CURVE SMOOTH",
"907 -17 OFFCURVE",
"846 72 OFFCURVE",
"781 148 CURVE SMOOTH",
"706 236 OFFCURVE",
"658 304 OFFCURVE",
"528 304 CURVE SMOOTH",
"310 304 LINE",
"310 287 LINE"
);
},
{
closed = 1;
nodes = (
"316 16 LINE",
"316 608 LINE",
"286 608 LINE",
"286 16 LINE"
);
},
{
closed = 1;
nodes = (
"545 0 LINE",
"545 28 LINE",
"67 26 LINE",
"67 -1 LINE"
);
},
{
closed = 1;
nodes = (
"860 289 LINE SMOOTH",
"1009 289 OFFCURVE",
"1080 371 OFFCURVE",
"1080 454 CURVE SMOOTH",
"1080 548 OFFCURVE",
"1008 624 OFFCURVE",
"860 624 CURVE SMOOTH",
"67 624 LINE",
"67 596 LINE",
"860 596 LINE SMOOTH",
"991 596 OFFCURVE",
"1050 529 OFFCURVE",
"1050 454 CURVE SMOOTH",
"1050 380 OFFCURVE",
"988 314 OFFCURVE",
"860 314 CURVE SMOOTH",
"310 314 LINE",
"310 289 LINE"
);
}
);
};
layerId = "B29C398E-974A-40D0-A0A0-00935056D4B4";
paths = (
{
closed = 1;
nodes = (
"860 289 LINE SMOOTH",
"1009 289 OFFCURVE",
"1080 371 OFFCURVE",
"1080 454 CURVE SMOOTH",
"1080 548 OFFCURVE",
"1008 624 OFFCURVE",
"860 624 CURVE SMOOTH",
"67 624 LINE",
"67 596 LINE",
"860 596 LINE SMOOTH",
"991 596 OFFCURVE",
"1050 529 OFFCURVE",
"1050 454 CURVE SMOOTH",
"1050 380 OFFCURVE",
"988 314 OFFCURVE",
"860 314 CURVE SMOOTH",
"310 314 LINE",
"310 289 LINE"
);
},
{
closed = 1;
nodes = (
"534 0 LINE",
"534 28 LINE",
"67 26 LINE",
"67 -1 LINE"
);
},
{
closed = 1;
nodes = (
"316 16 LINE",
"316 608 LINE",
"286 608 LINE",
"286 16 LINE"
);
},
{
closed = 1;
nodes = (
"1139 -12 OFFCURVE",
"1214 77 OFFCURVE",
"1214 186 CURVE SMOOTH",
"1214 211 LINE",
"1184 211 LINE",
"1184 186 LINE SMOOTH",
"1184 90 OFFCURVE",
"1117 16 OFFCURVE",
"1025 16 CURVE SMOOTH",
"929 16 OFFCURVE",
"881 80 OFFCURVE",
"810 166 CURVE SMOOTH",
"721 272 OFFCURVE",
"682 304 OFFCURVE",
"552 304 CURVE SMOOTH",
"310 304 LINE",
"310 287 LINE",
"566 287 LINE SMOOTH",
"667 287 OFFCURVE",
"714 241 OFFCURVE",
"785 150 CURVE SMOOTH",
"856 59 OFFCURVE",
"918 -12 OFFCURVE",
"1025 -12 CURVE SMOOTH"
);
}
);
width = 1268;
},
{
anchors = (
{
name = bottom;
position = "{402, 0}";
},
{
name = top;
position = "{354, 624}";
}
);
background = {
anchors = (
{
name = bottom;
position = "{402, 0}";
},
{
name = top;
position = "{354, 624}";
}
);
paths = (
{
closed = 1;
nodes = (
"422 289 LINE SMOOTH",
"559 289 OFFCURVE",
"630 371 OFFCURVE",
"630 454 CURVE SMOOTH",
"630 548 OFFCURVE",
"558 624 OFFCURVE",
"422 624 CURVE SMOOTH",
"36 624 LINE",
"36 596 LINE",
"422 596 LINE SMOOTH",
"541 596 OFFCURVE",
"600 529 OFFCURVE",
"600 454 CURVE SMOOTH",
"600 380 OFFCURVE",
"538 314 OFFCURVE",
"422 314 CURVE SMOOTH",
"196 314 LINE",
"196 289 LINE"
);
},
{
closed = 1;
nodes = (
"337 0 LINE",
"337 28 LINE",
"36 26 LINE",
"36 -1 LINE"
);
},
{
closed = 1;
nodes = (
"202 16 LINE",
"202 608 LINE",
"172 608 LINE",
"172 16 LINE"
);
},
{
closed = 1;
nodes = (
"682 -12 OFFCURVE",
"716 53 OFFCURVE",
"716 114 CURVE SMOOTH",
"716 139 LINE",
"686 139 LINE",
"686 114 LINE SMOOTH",
"686 66 OFFCURVE",
"665 16 OFFCURVE",
"611 16 CURVE SMOOTH",
"553 16 OFFCURVE",
"532 62 OFFCURVE",
"480 180 CURVE SMOOTH",
"430 295 OFFCURVE",
"352 304 OFFCURVE",
"246 304 CURVE SMOOTH",
"196 304 LINE",
"196 287 LINE",
"284 287 LINE SMOOTH",
"361 287 OFFCURVE",
"418 257 OFFCURVE",
"455 164 CURVE SMOOTH",
"504 42 OFFCURVE",
"546 -12 OFFCURVE",
"611 -12 CURVE SMOOTH"
);
}
);
};
layerId = "543F9737-16F7-428D-9F96-2EBD9FC8D3B6";
paths = (
{
closed = 1;
nodes = (
"384 289 LINE SMOOTH",
"521 289 OFFCURVE",
"592 371 OFFCURVE",
"592 454 CURVE SMOOTH",
"592 548 OFFCURVE",
"520 624 OFFCURVE",
"384 624 CURVE SMOOTH",
"36 624 LINE",
"36 596 LINE",
"384 596 LINE SMOOTH",
"503 596 OFFCURVE",
"562 529 OFFCURVE",
"562 454 CURVE SMOOTH",
"562 380 OFFCURVE",
"499 314 OFFCURVE",
"384 314 CURVE SMOOTH",
"196 314 LINE",
"196 289 LINE"
);
},
{
closed = 1;
nodes = (
"337 0 LINE",
"337 28 LINE",
"36 26 LINE",
"36 -1 LINE"
);
},
{
closed = 1;
nodes = (
"202 16 LINE",
"202 608 LINE",
"172 608 LINE",
"172 16 LINE"
);
},
{
closed = 1;
nodes = (
"666 -12 OFFCURVE",
"708 22 OFFCURVE",
"732 54 CURVE",
"712 73 LINE",
"691 46 OFFCURVE",
"659 16 OFFCURVE",
"607 16 CURVE SMOOTH",
"528 16 OFFCURVE",
"475 82 OFFCURVE",
"428 206 CURVE SMOOTH",
"392 304 LINE",
"365 299 LINE",
"400 202 LINE SMOOTH",
"449 62 OFFCURVE",
"512 -12 OFFCURVE",
"607 -12 CURVE SMOOTH"
);
}
);
width = 720;
},
{
anchors = (
{
name = bottom;
position = "{432, 0}";
},
{
name = top;
position = "{384, 624}";
}
);
background = {
paths = (
{
closed = 1;
nodes = (
"416 248 LINE SMOOTH",
"562 248 OFFCURVE",
"653 314 OFFCURVE",
"653 437 CURVE SMOOTH",
"653 559 OFFCURVE",
"550 624 OFFCURVE",
"404 624 CURVE SMOOTH",
"30 624 LINE",
"30 509 LINE",
"408 509 LINE SMOOTH",
"452 509 OFFCURVE",
"506 494 OFFCURVE",
"506 437 CURVE SMOOTH",
"506 374 OFFCURVE",
"449 356 OFFCURVE",
"408 356 CURVE SMOOTH",
"228 356 LINE",
"228 248 LINE"
);
},
{
closed = 1;
nodes = (
"376 0 LINE",
"376 115 LINE",
"30 116 LINE",
"30 0 LINE"
);
},
{
closed = 1;
nodes = (
"280 64 LINE",
"280 557 LINE",
"132 557 LINE",
"132 64 LINE"
);
},
{
closed = 1;
nodes = (
"671 -13 OFFCURVE",
"716 23 OFFCURVE",
"743 53 CURVE",
"676 148 LINE",
"658 132 OFFCURVE",
"640 116 OFFCURVE",
"608 116 CURVE SMOOTH",
"572 116 OFFCURVE",
"542 146 OFFCURVE",
"505 244 CURVE SMOOTH",
"498 263 LINE",
"359 263 LINE",
"365 236 LINE SMOOTH",
"404 62 OFFCURVE",
"485 -13 OFFCURVE",
"599 -13 CURVE SMOOTH"
);
}
);
};
layerId = "EB38A4D2-CD30-49BA-8E45-1F04A566FFE8";
paths = (
{
closed = 1;
nodes = (
"416 248 LINE SMOOTH",
"562 248 OFFCURVE",
"653 314 OFFCURVE",
"653 437 CURVE SMOOTH",
"653 559 OFFCURVE",
"550 624 OFFCURVE",
"404 624 CURVE SMOOTH",
"30 624 LINE",
"30 509 LINE",
"408 509 LINE SMOOTH",
"452 509 OFFCURVE",
"506 494 OFFCURVE",
"506 437 CURVE SMOOTH",
"506 374 OFFCURVE",
"449 356 OFFCURVE",
"408 356 CURVE SMOOTH",
"228 356 LINE",
"228 248 LINE"
);
},
{
closed = 1;
nodes = (
"376 0 LINE",
"376 115 LINE",
"30 116 LINE",
"30 0 LINE"
);
},
{
closed = 1;
nodes = (
"280 64 LINE",
"280 557 LINE",
"132 557 LINE",
"132 64 LINE"
);
},
{
closed = 1;
nodes = (
"682 -13 OFFCURVE",
"722 23 OFFCURVE",
"749 53 CURVE",
"682 148 LINE",
"666 134 OFFCURVE",
"648 122 OFFCURVE",
"619 122 CURVE SMOOTH",
"581 122 OFFCURVE",
"540 145 OFFCURVE",
"509 244 CURVE SMOOTH",
"503 263 LINE",
"372 263 LINE",
"378 236 LINE SMOOTH",
"418 62 OFFCURVE",
"496 -13 OFFCURVE",
"610 -13 CURVE SMOOTH"
);
}
);
width = 725;
},
{
anchors = (
{
name = bottom;
position = "{707, 0}";
},
{
name = top;
position = "{659, 624}";
}
);
background = {
paths = (
{
closed = 1;
nodes = (
"866 260 LINE SMOOTH",
"1024 260 OFFCURVE",
"1115 326 OFFCURVE",
"1115 443 CURVE SMOOTH",
"1115 559 OFFCURVE",
"1012 624 OFFCURVE",
"854 624 CURVE SMOOTH",
"61 624 LINE",
"61 509 LINE",
"858 509 LINE SMOOTH",
"914 509 OFFCURVE",
"968 498 OFFCURVE",
"968 443 CURVE SMOOTH",
"968 383 OFFCURVE",
"911 368 OFFCURVE",
"858 368 CURVE SMOOTH",
"342 368 LINE",
"342 260 LINE"
);
},
{
closed = 1;
nodes = (
"572 0 LINE",
"572 115 LINE",
"61 116 LINE",
"61 0 LINE"
);
},
{
closed = 1;
nodes = (
"394 64 LINE",
"394 557 LINE",
"246 557 LINE",
"246 64 LINE"
);
},
{
closed = 1;
nodes = (
"1144 -13 OFFCURVE",
"1247 88 OFFCURVE",
"1247 233 CURVE SMOOTH",
"1247 265 LINE",
"1121 265 LINE",
"1121 230 LINE SMOOTH",
"1121 152 OFFCURVE",
"1062 109 OFFCURVE",
"1003 109 CURVE SMOOTH",
"944 109 OFFCURVE",
"907 137 OFFCURVE",
"870 145 CURVE SMOOTH",
"793 224 OFFCURVE",
"788 282 OFFCURVE",
"708 282 CURVE SMOOTH",
"386 282 LINE",
"386 260 LINE",
"589 260 LINE SMOOTH",
"650 260 OFFCURVE",
"666 192 OFFCURVE",
"728 128 CURVE SMOOTH",
"776 98 OFFCURVE",
"835 -13 OFFCURVE",
"1003 -13 CURVE SMOOTH"
);
}
);
};
layerId = "C70E3B11-AF58-44B6-92D7-58C9185F522D";
paths = (
{
closed = 1;
nodes = (
"866 260 LINE SMOOTH",
"1019 260 OFFCURVE",
"1115 326 OFFCURVE",
"1115 443 CURVE SMOOTH",
"1115 559 OFFCURVE",
"1015 624 OFFCURVE",
"854 624 CURVE SMOOTH",
"61 624 LINE",
"61 509 LINE",
"858 509 LINE SMOOTH",
"929 509 OFFCURVE",
"968 485 OFFCURVE",
"968 443 CURVE SMOOTH",
"968 395 OFFCURVE",
"929 368 OFFCURVE",
"858 368 CURVE SMOOTH",
"342 368 LINE",
"342 260 LINE"
);
},
{
closed = 1;
nodes = (
"572 0 LINE",
"572 115 LINE",
"61 116 LINE",
"61 0 LINE"
);
},
{
closed = 1;
nodes = (
"394 64 LINE",
"394 557 LINE",
"246 557 LINE",
"246 64 LINE"
);
},
{
closed = 1;
nodes = (
"1144 -13 OFFCURVE",
"1247 88 OFFCURVE",
"1247 221 CURVE SMOOTH",
"1247 253 LINE",
"1121 253 LINE",
"1121 218 LINE SMOOTH",
"1121 152 OFFCURVE",
"1072 109 OFFCURVE",
"1018 109 CURVE SMOOTH",
"958 109 OFFCURVE",
"924 132 OFFCURVE",
"870 186 CURVE SMOOTH",
"794 263 OFFCURVE",
"745 282 OFFCURVE",
"654 282 CURVE SMOOTH",
"386 282 LINE",
"386 260 LINE",
"522 260 LINE SMOOTH",
"650 260 OFFCURVE",
"679 218 OFFCURVE",
"738 150 CURVE SMOOTH",
"799 78 OFFCURVE",
"883 -13 OFFCURVE",
"1018 -13 CURVE SMOOTH"
);
}
);
width = 1271;
}
);
leftKerningGroup = H;
leftMetricsKey = "=H";
rightKerningGroup = R;
unicode = 0052;
},
{
glyphname = R.swsh;
lastChange = "2016-01-15 16:42:16 +0000";
layers = (
{
anchors = (
{
name = bottom;
position = "{536, 0}";
},
{
name = top;
position = "{536, 624}";
}
);
background = {
paths = (
{
closed = 1;
nodes = (
"316 22 LINE",
"316 570 LINE",
"286 570 LINE",
"286 22 LINE"
);
},
{
closed = 1;
nodes = (
"547 0 LINE",
"547 28 LINE",
"67 28 LINE",
"67 0 LINE"
);
},
{
closed = 1;
nodes = (
"736 256 LINE SMOOTH",
"875 256 OFFCURVE",
"978 317 OFFCURVE",
"978 420 CURVE SMOOTH",
"978 520 OFFCURVE",
"905 588 OFFCURVE",
"766 588 CURVE SMOOTH",
"67 588 LINE",
"67 560 LINE",
"766 560 LINE SMOOTH",
"889 560 OFFCURVE",
"948 500 OFFCURVE",
"948 420 CURVE SMOOTH",
"948 331 OFFCURVE",
"853 283 OFFCURVE",
"736 283 CURVE SMOOTH",
"301 283 LINE",
"301 256 LINE"
);
},
{
closed = 1;
nodes = (
"362 270 LINE",
"337 256 LINE",
"484 256 LINE SMOOTH",
"679 256 OFFCURVE",
"770 208 OFFCURVE",
"914 -10 CURVE SMOOTH",
"1085 -268 OFFCURVE",
"1261 -424 OFFCURVE",
"1519 -424 CURVE SMOOTH",
"1720 -424 OFFCURVE",
"1844 -343 OFFCURVE",
"1914 -298 CURVE",
"1901 -275 LINE",
"1837 -318 OFFCURVE",
"1715 -396 OFFCURVE",
"1519 -396 CURVE SMOOTH",
"1286 -396 OFFCURVE",
"1114 -257 OFFCURVE",
"948 -8 CURVE SMOOTH",
"806 204 OFFCURVE",
"732 270 OFFCURVE",
"486 270 CURVE SMOOTH"
);
}
);
};
guideLines = (
{
position = "{570, -316}";
}
);
layerId = "B29C398E-974A-40D0-A0A0-00935056D4B4";
paths = (
{
closed = 1;
nodes = (
"1696 -336 OFFCURVE",
"1810 -257 OFFCURVE",
"1879 -211 CURVE",
"1865 -187 LINE",
"1801 -230 OFFCURVE",
"1691 -308 OFFCURVE",
"1495 -308 CURVE SMOOTH",
"1262 -308 OFFCURVE",
"1097 -172 OFFCURVE",
"954 16 CURVE SMOOTH",
"792 227 OFFCURVE",
"712 296 OFFCURVE",
"486 296 CURVE SMOOTH",
"301 296 LINE",
"302 280 LINE",
"484 280 LINE SMOOTH",
"679 280 OFFCURVE",
"752 224 OFFCURVE",
"914 14 CURVE SMOOTH",
"1062 -176 OFFCURVE",
"1237 -336 OFFCURVE",
"1495 -336 CURVE SMOOTH"
);
},
{
closed = 1;
nodes = (
"534 0 LINE",
"534 28 LINE",
"67 28 LINE",
"67 0 LINE"
);
},
{
closed = 1;
nodes = (
"316 22 LINE",
"316 606 LINE",
"286 606 LINE",
"286 22 LINE"
);
},
{
closed = 1;
nodes = (
"757 281 LINE SMOOTH",
"906 281 OFFCURVE",
"977 364 OFFCURVE",
"977 454 CURVE SMOOTH",
"977 554 OFFCURVE",
"905 624 OFFCURVE",
"757 624 CURVE SMOOTH",
"67 624 LINE",
"67 596 LINE",
"757 596 LINE SMOOTH",
"888 596 OFFCURVE",
"947 535 OFFCURVE",
"947 454 CURVE SMOOTH",
"947 373 OFFCURVE",
"884 306 OFFCURVE",
"757 306 CURVE SMOOTH",
"310 306 LINE",
"310 281 LINE"
);
}
);
width = 1111;
},
{
anchors = (
{
name = bottom;
position = "{390, 0}";
},
{
name = top;
position = "{342, 624}";
}
);
layerId = "543F9737-16F7-428D-9F96-2EBD9FC8D3B6";
paths = (
{
closed = 1;
nodes = (
"1040 -240 OFFCURVE",
"1109 -210 OFFCURVE",
"1154 -178 CURVE",
"1140 -155 LINE",
"1098 -185 OFFCURVE",
"1031 -212 OFFCURVE",
"956 -212 CURVE SMOOTH",
"829 -212 OFFCURVE",
"734 -142 OFFCURVE",
"602 84 CURVE SMOOTH",
"490 276 OFFCURVE",
"438 304 OFFCURVE",
"332 304 CURVE SMOOTH",
"244 304 LINE",
"244 289 LINE",
"332 289 LINE SMOOTH",
"409 289 OFFCURVE",
"462 269 OFFCURVE",
"576 72 CURVE SMOOTH",
"713 -166 OFFCURVE",
"814 -240 OFFCURVE",
"956 -240 CURVE SMOOTH"
);
},
{
closed = 1;
nodes = (
"337 0 LINE",
"337 28 LINE",
"36 26 LINE",
"36 -1 LINE"
);
},
{
closed = 1;
nodes = (
"202 16 LINE",
"202 608 LINE",
"172 608 LINE",
"172 16 LINE"
);
},
{
closed = 1;
nodes = (
"422 289 LINE SMOOTH",
"559 289 OFFCURVE",
"630 371 OFFCURVE",
"630 454 CURVE SMOOTH",
"630 548 OFFCURVE",
"558 624 OFFCURVE",
"422 624 CURVE SMOOTH",
"36 624 LINE",
"36 596 LINE",
"422 596 LINE SMOOTH",
"541 596 OFFCURVE",
"600 529 OFFCURVE",
"600 454 CURVE SMOOTH",
"600 380 OFFCURVE",
"538 314 OFFCURVE",
"422 314 CURVE SMOOTH",
"196 314 LINE",
"196 289 LINE"
);
}
);
width = 716;
},
{
anchors = (
{
name = bottom;
position = "{428, 0}";
},
{
name = top;
position = "{380, 624}";
}
);
layerId = "EB38A4D2-CD30-49BA-8E45-1F04A566FFE8";
paths = (
{
closed = 1;
nodes = (
"1120 -240 OFFCURVE",
"1222 -193 OFFCURVE",
"1295 -137 CURVE",
"1235 -35 LINE",
"1170 -84 OFFCURVE",
"1097 -115 OFFCURVE",
"1002 -115 CURVE SMOOTH",
"887 -115 OFFCURVE",
"767 -62 OFFCURVE",
"643 86 CURVE SMOOTH",
"538 216 OFFCURVE",
"486 275 OFFCURVE",
"404 275 CURVE SMOOTH",
"242 275 LINE",
"242 252 LINE",
"299 252 LINE SMOOTH",
"366 252 OFFCURVE",
"377 187 OFFCURVE",
"512 26 CURVE SMOOTH",
"638 -118 OFFCURVE",
"788 -240 OFFCURVE",
"980 -240 CURVE SMOOTH"
);
},
{
closed = 1;
nodes = (
"382 0 LINE",
"382 115 LINE",
"30 116 LINE",
"30 0 LINE"
);
},
{
closed = 1;
nodes = (
"280 64 LINE",
"280 557 LINE",
"132 557 LINE",
"132 64 LINE"
);
},
{
closed = 1;
nodes = (
"428 252 LINE SMOOTH",
"587 252 OFFCURVE",
"665 342 OFFCURVE",
"665 439 CURVE SMOOTH",
"665 548 OFFCURVE",
"586 624 OFFCURVE",
"428 624 CURVE SMOOTH",
"30 624 LINE",
"30 509 LINE",
"420 509 LINE SMOOTH",
"464 509 OFFCURVE",
"518 498 OFFCURVE",
"518 439 CURVE SMOOTH",
"518 368 OFFCURVE",
"461 361 OFFCURVE",
"420 361 CURVE SMOOTH",
"228 361 LINE",
"228 252 LINE"
);
}
);
width = 704;
},
{
anchors = (
{
name = bottom;
position = "{575, 0}";
},
{
name = top;
position = "{575, 624}";
}
);
background = {
paths = (
{
closed = 1;
nodes = (
"763 244 LINE SMOOTH",
"934 244 OFFCURVE",
"1012 335 OFFCURVE",
"1012 439 CURVE SMOOTH",
"1012 554 OFFCURVE",
"932 624 OFFCURVE",
"763 624 CURVE SMOOTH",
"61 624 LINE",
"61 509 LINE",
"743 509 LINE SMOOTH",
"799 509 OFFCURVE",
"865 504 OFFCURVE",
"865 439 CURVE SMOOTH",
"865 361 OFFCURVE",
"796 353 OFFCURVE",
"743 353 CURVE SMOOTH",
"342 353 LINE",
"342 244 LINE"
);
}
);
};
layerId = "C70E3B11-AF58-44B6-92D7-58C9185F522D";
paths = (
{
closed = 1;
nodes = (
"1775 -342 OFFCURVE",
"1930 -244 OFFCURVE",
"2027 -168 CURVE",
"1960 -73 LINE",
"1873 -136 OFFCURVE",
"1757 -217 OFFCURVE",
"1541 -217 CURVE SMOOTH",
"1320 -217 OFFCURVE",
"1172 -138 OFFCURVE",
"1007 18 CURVE SMOOTH",
"858 157 OFFCURVE",
"760 268 OFFCURVE",
"558 268 CURVE SMOOTH",
"300 268 LINE",
"301 242 LINE",
"450 242 LINE SMOOTH",
"586 242 OFFCURVE",
"679 143 OFFCURVE",
"863 -31 CURVE SMOOTH",
"1048 -206 OFFCURVE",
"1272 -342 OFFCURVE",
"1546 -342 CURVE SMOOTH"
);
},
{
closed = 1;
nodes = (
"578 0 LINE",
"578 115 LINE",
"61 118 LINE",
"61 1 LINE"
);
},
{
closed = 1;
nodes = (
"394 70 LINE",
"394 554 LINE",
"246 554 LINE",
"246 70 LINE"
);
},
{
closed = 1;
nodes = (
"763 253 LINE SMOOTH",
"916 254 OFFCURVE",
"1012 314 OFFCURVE",
"1012 437 CURVE SMOOTH",
"1012 559 OFFCURVE",
"912 624 OFFCURVE",
"751 624 CURVE SMOOTH",
"61 624 LINE",
"61 509 LINE",
"755 509 LINE SMOOTH",
"826 509 OFFCURVE",
"865 485 OFFCURVE",
"865 437 CURVE SMOOTH",
"865 383 OFFCURVE",
"826 362 OFFCURVE",
"755 361 CURVE SMOOTH",
"275 356 LINE",
"275 248 LINE"
);
}
);
width = 1099;
}
);
leftKerningGroup = H;
leftMetricsKey = "=H";
rightKerningGroup = R;
},
{
glyphname = S;
lastChange = "2016-01-15 16:42:16 +0000";
layers = (
{
anchors = (
{
name = bottom;
position = "{564, -12}";
},
{
name = top;
position = "{540, 636}";
}
);
background = {
paths = (
{
closed = 1;
nodes = (
"292 593 OFFCURVE",
"170 540 OFFCURVE",
"170 450 CURVE SMOOTH",
"170 366 OFFCURVE",
"272 337 OFFCURVE",
"516 310 CURVE SMOOTH",
"797 278 OFFCURVE",
"932 262 OFFCURVE",
"932 143 CURVE SMOOTH",
"932 24 OFFCURVE",
"790 -24 OFFCURVE",
"596 -24 CURVE",
"390 -24 OFFCURVE",
"205 66 OFFCURVE",
"142 144 CURVE",
"168 144 LINE",
"168 0 LINE",
"138 0 LINE",
"138 190 LINE",
"229 77 OFFCURVE",
"419 4 OFFCURVE",
"598 4 CURVE",
"770 4 OFFCURVE",
"904 52 OFFCURVE",
"904 143 CURVE SMOOTH",
"904 235 OFFCURVE",
"790 251 OFFCURVE",
"515 281 CURVE SMOOTH",
"254 308 OFFCURVE",
"140 337 OFFCURVE",
"140 450 CURVE SMOOTH",
"140 559 OFFCURVE",
"260 620 OFFCURVE",
"449 620 CURVE",
"688 620 OFFCURVE",
"823 528 OFFCURVE",
"886 450 CURVE",
"860 450 LINE",
"860 588 LINE",
"890 588 LINE",
"890 406 LINE",
"798 517 OFFCURVE",
"659 593 OFFCURVE",
"446 593 CURVE"
);
}
);
};
layerId = "B29C398E-974A-40D0-A0A0-00935056D4B4";
paths = (
{
closed = 1;
nodes = (
"808 -12 OFFCURVE",
"932 41 OFFCURVE",
"932 149 CURVE SMOOTH",
"932 262 OFFCURVE",
"815 299 OFFCURVE",
"528 322 CURVE SMOOTH",
"260 343 OFFCURVE",
"170 379 OFFCURVE",
"170 463 CURVE SMOOTH",
"170 562 OFFCURVE",
"280 608 OFFCURVE",
"446 608 CURVE SMOOTH",
"647 608 OFFCURVE",
"780 533 OFFCURVE",
"883 413 CURVE",
"890 415 LINE",
"890 624 LINE",
"863 624 LINE",
"863 454 LINE",
"880 454 LINE",
"799 544 OFFCURVE",
"670 636 OFFCURVE",
"449 636 CURVE SMOOTH",
"254 636 OFFCURVE",
"140 575 OFFCURVE",
"140 463 CURVE SMOOTH",
"140 366 OFFCURVE",
"233 313 OFFCURVE",
"527 293 CURVE SMOOTH",
"798 274 OFFCURVE",
"904 241 OFFCURVE",
"904 149 CURVE SMOOTH",
"904 56 OFFCURVE",
"788 16 OFFCURVE",
"640 16 CURVE SMOOTH",
"461 16 OFFCURVE",
"253 88 OFFCURVE",
"145 212 CURVE",
"138 210 LINE",
"138 0 LINE",
"166 0 LINE",
"166 168 LINE",
"148 168 LINE",
"235 78 OFFCURVE",
"432 -12 OFFCURVE",
"638 -12 CURVE SMOOTH"
);
}
);
width = 1040;
},
{
anchors = (
{
name = bottom;
position = "{323, -12}";
},
{
name = top;
position = "{299, 636}";
}
);
background = {
paths = (
{
closed = 0;
nodes = (
"374 16 LINE",
"274 16 OFFCURVE",
"144 77 OFFCURVE",
"41 214 CURVE",
"41 0 LINE",
"68 0 LINE",
"68 168 LINE",
"50 168 LINE",
"126 66 OFFCURVE",
"245 -12 OFFCURVE",
"374 -12 CURVE"
);
}
);
};
layerId = "543F9737-16F7-428D-9F96-2EBD9FC8D3B6";
paths = (
{
closed = 1;
nodes = (
"456 -12 OFFCURVE",
"541 50 OFFCURVE",
"541 137 CURVE SMOOTH",
"541 232 OFFCURVE",
"470 281 OFFCURVE",
"311 323 CURVE SMOOTH",
"175 359 OFFCURVE",
"109 412 OFFCURVE",
"109 490 CURVE SMOOTH",
"109 564 OFFCURVE",
"174 608 OFFCURVE",
"259 608 CURVE SMOOTH",
"367 608 OFFCURVE",
"439 554 OFFCURVE",
"504 433 CURVE",
"511 434 LINE",
"511 624 LINE",
"484 624 LINE",
"484 467 LINE",
"504 466 LINE",
"456 576 OFFCURVE",
"370 636 OFFCURVE",
"259 636 CURVE SMOOTH",
"155 636 OFFCURVE",
"79 577 OFFCURVE",
"79 487 CURVE SMOOTH",
"79 400 OFFCURVE",
"148 332 OFFCURVE",
"310 293 CURVE SMOOTH",
"455 257 OFFCURVE",
"512 211 OFFCURVE",
"512 137 CURVE SMOOTH",
"512 64 OFFCURVE",
"437 16 OFFCURVE",
"344 16 CURVE SMOOTH",
"234 16 OFFCURVE",
"144 78 OFFCURVE",
"79 191 CURVE",
"72 190 LINE",
"72 0 LINE",
"100 0 LINE",
"100 157 LINE",
"79 158 LINE",
"131 54 OFFCURVE",
"232 -12 OFFCURVE",
"344 -12 CURVE SMOOTH"
);
}
);
width = 613;
},
{
anchors = (
{
name = bottom;
position = "{362, -12}";
},
{
name = top;
position = "{338, 636}";
}
);
layerId = "EB38A4D2-CD30-49BA-8E45-1F04A566FFE8";
paths = (
{
closed = 1;
nodes = (
"536 -12 OFFCURVE",
"629 54 OFFCURVE",
"629 166 CURVE SMOOTH",
"629 283 OFFCURVE",
"514 337 OFFCURVE",
"376 377 CURVE SMOOTH",
"260 409 OFFCURVE",
"221 430 OFFCURVE",
"221 464 CURVE SMOOTH",
"221 500 OFFCURVE",
"262 521 OFFCURVE",
"318 521 CURVE SMOOTH",
"389 521 OFFCURVE",
"469 478 OFFCURVE",
"510 398 CURVE",
"596 403 LINE",
"596 624 LINE",
"466 624 LINE",
"466 486 LINE",
"536 474 LINE",
"478 587 OFFCURVE",
"389 636 OFFCURVE",
"281 636 CURVE SMOOTH",
"172 636 OFFCURVE",
"67 568 OFFCURVE",
"67 457 CURVE SMOOTH",
"67 359 OFFCURVE",
"132 295 OFFCURVE",
"276 254 CURVE SMOOTH",
"422 214 OFFCURVE",
"475 186 OFFCURVE",
"475 148 CURVE SMOOTH",
"475 116 OFFCURVE",
"446 101 OFFCURVE",
"403 101 CURVE SMOOTH",
"331 101 OFFCURVE",
"223 154 OFFCURVE",
"157 233 CURVE",
"66 228 LINE",
"66 1 LINE",
"198 1 LINE",
"198 137 LINE",
"118 145 LINE",
"203 60 OFFCURVE",
"296 -12 OFFCURVE",
"413 -12 CURVE SMOOTH"
);
}
);
width = 659;
},
{
anchors = (
{
name = bottom;
position = "{556, -12}";
},
{
name = top;
position = "{484, 636}";
}
);
layerId = "C70E3B11-AF58-44B6-92D7-58C9185F522D";
paths = (
{
closed = 1;
nodes = (
"820 -12 OFFCURVE",
"954 42 OFFCURVE",
"954 172 CURVE SMOOTH",
"954 307 OFFCURVE",
"774 352 OFFCURVE",
"557 373 CURVE SMOOTH",
"316 397 OFFCURVE",
"270 408 OFFCURVE",
"270 452 CURVE SMOOTH",
"270 500 OFFCURVE",
"359 521 OFFCURVE",
"475 521 CURVE SMOOTH",
"647 521 OFFCURVE",
"761 456 OFFCURVE",
"823 378 CURVE",
"910 384 LINE",
"910 624 LINE",
"779 624 LINE",
"779 473 LINE",
"846 462 LINE",
"776 554 OFFCURVE",
"667 636 OFFCURVE",
"440 636 CURVE SMOOTH",
"263 636 OFFCURVE",
"116 568 OFFCURVE",
"116 436 CURVE SMOOTH",
"116 331 OFFCURVE",
"222 274 OFFCURVE",
"445 254 CURVE SMOOTH",
"718 230 OFFCURVE",
"800 210 OFFCURVE",
"800 154 CURVE SMOOTH",
"800 107 OFFCURVE",
"730 101 OFFCURVE",
"644 101 CURVE SMOOTH",
"504 101 OFFCURVE",
"304 166 OFFCURVE",
"205 254 CURVE",
"114 248 LINE",
"114 1 LINE",
"246 1 LINE",
"246 148 LINE",
"168 155 LINE",
"277 84 OFFCURVE",
"443 -12 OFFCURVE",
"653 -12 CURVE SMOOTH"
);
}
);
width = 1020;
}
);
leftKerningGroup = S;
rightKerningGroup = S;
unicode = 0053;
},
{
glyphname = Germandbls;
lastChange = "2016-01-15 16:42:16 +0000";
layers = (
{
layerId = "B29C398E-974A-40D0-A0A0-00935056D4B4";
paths = (
{
closed = 1;
nodes = (
"469 0 LINE",
"469 156 LINE",
"451 156 LINE",
"539 66 OFFCURVE",
"682 -24 OFFCURVE",
"846 -24 CURVE SMOOTH",
"967 -24 OFFCURVE",
"1062 29 OFFCURVE",
"1062 118 CURVE SMOOTH",
"1062 218 OFFCURVE",
"947 281 OFFCURVE",
"642 304 CURVE",
"1024 599 LINE",
"1008 622 LINE",
"578 286 LINE",
"956 258 OFFCURVE",
"1033 192 OFFCURVE",
"1033 118 CURVE SMOOTH",
"1033 44 OFFCURVE",
"948 4 OFFCURVE",
"847 4 CURVE SMOOTH",
"710 4 OFFCURVE",
"564 73 OFFCURVE",
"449 198 CURVE",
"442 196 LINE",
"442 0 LINE"
);
},
{
closed = 1;
nodes = (
"320 638 OFFCURVE",
"218 532 OFFCURVE",
"218 360 CURVE SMOOTH",
"218 28 LINE",
"0 28 LINE",
"0 0 LINE",
"248 0 LINE",
"248 362 LINE SMOOTH",
"248 515 OFFCURVE",
"341 611 OFFCURVE",
"504 611 CURVE SMOOTH",
"649 611 OFFCURVE",
"754 529 OFFCURVE",
"832 462 CURVE",
"854 480 LINE",
"776 550 OFFCURVE",
"654 638 OFFCURVE",
"506 638 CURVE SMOOTH"
);
}
);
width = 1122;
},
{
background = {
paths = (
{
closed = 1;
nodes = (
"594 286 LINE",
"972 258 OFFCURVE",
"1049 192 OFFCURVE",
"1049 118 CURVE SMOOTH",
"1049 44 OFFCURVE",
"964 4 OFFCURVE",
"863 4 CURVE SMOOTH",
"726 4 OFFCURVE",
"572 77 OFFCURVE",
"457 202 CURVE",
"457 0 LINE",
"485 0 LINE",
"485 156 LINE",
"467 156 LINE",
"554 66 OFFCURVE",
"697 -24 OFFCURVE",
"862 -24 CURVE SMOOTH",
"983 -24 OFFCURVE",
"1078 29 OFFCURVE",
"1078 118 CURVE SMOOTH",
"1078 218 OFFCURVE",
"962 281 OFFCURVE",
"658 304 CURVE",
"1039 599 LINE",
"1024 622 LINE"
);
},
{
closed = 1;
nodes = (
"254 0 LINE",
"254 28 LINE",
"16 28 LINE",
"16 0 LINE"
);
},
{
closed = 1;
nodes = (
"870 480 LINE",
"792 550 OFFCURVE",
"682 622 OFFCURVE",
"534 622 CURVE SMOOTH",
"348 622 OFFCURVE",
"234 509 OFFCURVE",
"234 343 CURVE SMOOTH",
"234 0 LINE",
"264 0 LINE",
"264 346 LINE SMOOTH",
"264 492 OFFCURVE",
"368 594 OFFCURVE",
"532 594 CURVE SMOOTH",
"677 594 OFFCURVE",
"769 529 OFFCURVE",
"847 462 CURVE"
);
}
);
};
layerId = "543F9737-16F7-428D-9F96-2EBD9FC8D3B6";
paths = (
{
closed = 1;
nodes = (
"300 0 LINE",
"300 133 LINE",
"280 146 LINE",
"331 46 OFFCURVE",
"426 -12 OFFCURVE",
"521 -12 CURVE SMOOTH",
"617 -12 OFFCURVE",
"694 47 OFFCURVE",
"694 131 CURVE SMOOTH",
"694 220 OFFCURVE",
"618 278 OFFCURVE",
"431 314 CURVE",
"659 616 LINE",
"638 630 LINE",
"388 298 LINE",
"605 258 OFFCURVE",
"665 199 OFFCURVE",
"665 131 CURVE SMOOTH",
"665 62 OFFCURVE",
"598 16 OFFCURVE",
"521 16 CURVE SMOOTH",
"428 16 OFFCURVE",
"344 73 OFFCURVE",
"280 179 CURVE",
"272 178 LINE",
"272 0 LINE"
);
},
{
closed = 1;
nodes = (
"212 638 OFFCURVE",
"136 559 OFFCURVE",
"136 424 CURVE SMOOTH",
"136 28 LINE",
"0 28 LINE",
"0 0 LINE",
"166 0 LINE",
"166 426 LINE SMOOTH",
"166 548 OFFCURVE",
"235 611 OFFCURVE",
"328 611 CURVE SMOOTH",
"403 611 OFFCURVE",
"481 574 OFFCURVE",
"562 497 CURVE",
"581 518 LINE",
"498 598 OFFCURVE",
"415 638 OFFCURVE",
"328 638 CURVE SMOOTH"
);
}
);
width = 730;
},
{
layerId = "EB38A4D2-CD30-49BA-8E45-1F04A566FFE8";
paths = (
{
closed = 1;
nodes = (
"445 0 LINE",
"445 142 LINE",
"379 148 LINE",
"455 32 OFFCURVE",
"508 -12 OFFCURVE",
"604 -12 CURVE SMOOTH",
"709 -12 OFFCURVE",
"809 60 OFFCURVE",
"809 175 CURVE SMOOTH",
"809 284 OFFCURVE",
"726 355 OFFCURVE",
"652 414 CURVE",
"791 590 LINE",
"696 668 LINE",
"457 356 LINE",
"634 274 OFFCURVE",
"655 214 OFFCURVE",
"655 175 CURVE SMOOTH",
"655 133 OFFCURVE",
"622 101 OFFCURVE",
"575 101 CURVE SMOOTH",
"523 101 OFFCURVE",
"457 140 OFFCURVE",
"404 236 CURVE",
"313 230 LINE",
"313 0 LINE"
);
},
{
closed = 1;
nodes = (
"204 643 OFFCURVE",
"98 560 OFFCURVE",
"98 382 CURVE SMOOTH",
"98 115 LINE",
"7 115 LINE",
"7 0 LINE",
"244 0 LINE",
"244 384 LINE SMOOTH",
"244 482 OFFCURVE",
"296 521 OFFCURVE",
"372 521 CURVE SMOOTH",
"457 521 OFFCURVE",
"527 474 OFFCURVE",
"599 409 CURVE",
"677 497 LINE",
"565 595 OFFCURVE",
"470 643 OFFCURVE",
"367 643 CURVE SMOOTH"
);
}
);
width = 838;
},
{
layerId = "C70E3B11-AF58-44B6-92D7-58C9185F522D";
paths = (
{
closed = 1;
nodes = (
"614 0 LINE",
"614 164 LINE",
"551 157 LINE",
"662 53 OFFCURVE",
"763 -24 OFFCURVE",
"929 -24 CURVE SMOOTH",
"1060 -24 OFFCURVE",
"1177 42 OFFCURVE",
"1177 162 CURVE SMOOTH",
"1177 281 OFFCURVE",
"1060 353 OFFCURVE",
"908 390 CURVE",
"1142 571 LINE",
"1066 660 LINE",
"648 344 LINE",
"961 284 OFFCURVE",
"1024 224 OFFCURVE",
"1024 172 CURVE SMOOTH",
"1024 122 OFFCURVE",
"979 89 OFFCURVE",
"908 89 CURVE SMOOTH",
"812 89 OFFCURVE",
"677 140 OFFCURVE",
"574 256 CURVE",
"482 248 LINE",
"482 0 LINE"
);
},
{
closed = 1;
nodes = (
"312 643 OFFCURVE",
"181 533 OFFCURVE",
"181 318 CURVE SMOOTH",
"181 115 LINE",
"7 115 LINE",
"7 0 LINE",
"326 0 LINE",
"326 320 LINE SMOOTH",
"326 449 OFFCURVE",
"402 521 OFFCURVE",
"524 521 CURVE SMOOTH",
"679 521 OFFCURVE",
"799 430 OFFCURVE",
"869 374 CURVE",
"950 458 LINE",
"844 547 OFFCURVE",
"709 643 OFFCURVE",
"510 643 CURVE SMOOTH"
);
}
);
width = 1230;
}
);
leftKerningGroup = Germandbls;
rightKerningGroup = Germandbls;
unicode = 1E9E;
},
{
glyphname = T;
lastChange = "2016-01-15 16:42:16 +0000";
layers = (
{
anchors = (
{
name = bottom;
position = "{553, 0}";
},
{
name = center;
position = "{553, 294}";
},
{
name = top;
position = "{553, 624}";
}
);
layerId = "B29C398E-974A-40D0-A0A0-00935056D4B4";
paths = (
{
closed = 1;
nodes = (
"138 404 LINE",
"138 596 LINE",
"967 596 LINE",
"967 404 LINE",
"997 404 LINE",
"997 624 LINE",
"108 624 LINE",
"108 404 LINE"
);
},
{
closed = 1;
nodes = (
"798 0 LINE",
"798 28 LINE",
"307 28 LINE",
"307 0 LINE"
);
},
{
closed = 1;
nodes = (
"568 16 LINE",
"568 608 LINE",
"538 608 LINE",
"538 16 LINE"
);
}
);
width = 1105;
},
{
anchors = (
{
name = bottom;
position = "{342, 0}";
},
{
name = center;
position = "{342, 294}";
},
{
name = top;
position = "{342, 636}";
}
);
layerId = "543F9737-16F7-428D-9F96-2EBD9FC8D3B6";
paths = (
{
closed = 1;
nodes = (
"78 461 LINE",
"78 596 LINE",
"617 596 LINE",
"617 461 LINE",
"647 461 LINE",
"647 624 LINE",
"48 624 LINE",
"48 461 LINE"
);
},
{
closed = 1;
nodes = (
"504 0 LINE",
"504 28 LINE",
"191 28 LINE",
"191 0 LINE"
);
},
{
closed = 1;
nodes = (
"362 16 LINE",
"362 608 LINE",
"332 608 LINE",
"332 16 LINE"
);
}
);
width = 695;
},
{
anchors = (
{
name = bottom;
position = "{358, 0}";
},
{
name = center;
position = "{358, 294}";
},
{
name = top;
position = "{358, 632}";
}
);
layerId = "EB38A4D2-CD30-49BA-8E45-1F04A566FFE8";
paths = (
{
closed = 1;
nodes = (
"154 384 LINE",
"154 509 LINE",
"564 509 LINE",
"564 384 LINE",
"694 384 LINE",
"694 624 LINE",
"24 624 LINE",
"24 384 LINE"
);
},
{
closed = 1;
nodes = (
"532 0 LINE",
"532 115 LINE",
"185 115 LINE",
"185 0 LINE"
);
},
{
closed = 1;
nodes = (
"432 74 LINE",
"432 560 LINE",
"286 560 LINE",
"286 74 LINE"
);
}
);
width = 718;
},
{
anchors = (
{
name = bottom;
position = "{542, 0}";
},
{
name = center;
position = "{542, 294}";
},
{
name = top;
position = "{542, 624}";
}
);
layerId = "C70E3B11-AF58-44B6-92D7-58C9185F522D";
paths = (
{
closed = 1;
nodes = (
"187 372 LINE",
"187 509 LINE",
"888 509 LINE",
"888 372 LINE",
"1018 372 LINE",
"1018 624 LINE",
"58 624 LINE",
"58 372 LINE"
);
},
{
closed = 1;
nodes = (
"799 0 LINE",
"799 115 LINE",
"275 115 LINE",
"275 0 LINE"
);
},
{
closed = 1;
nodes = (
"611 74 LINE",
"611 560 LINE",
"464 560 LINE",
"464 74 LINE"
);
}
);
width = 1075;
}
);
leftKerningGroup = T;
rightKerningGroup = T;
unicode = 0054;
},
{
glyphname = Tbar;
lastChange = "2016-01-15 16:42:16 +0000";
layers = (
{
components = (
{
name = T;
}
);
layerId = "B29C398E-974A-40D0-A0A0-00935056D4B4";
paths = (
{
closed = 1;
nodes = (
"821 262 LINE",
"821 288 LINE",
"284 288 LINE",
"284 262 LINE"
);
}
);
width = 1105;
},
{
components = (
{
name = T;
}
);
layerId = "543F9737-16F7-428D-9F96-2EBD9FC8D3B6";
paths = (
{
closed = 1;
nodes = (
"578 262 LINE",
"578 288 LINE",
"116 288 LINE",
"116 262 LINE"
);
}
);
width = 695;
},
{
components = (
{
name = T;
}
);
layerId = "EB38A4D2-CD30-49BA-8E45-1F04A566FFE8";
paths = (
{
closed = 1;
nodes = (
"565 232 LINE",
"565 320 LINE",
"152 320 LINE",
"152 232 LINE"
);
}
);
width = 718;
},
{
components = (
{
name = T;
}
);
layerId = "C70E3B11-AF58-44B6-92D7-58C9185F522D";
paths = (
{
closed = 1;
nodes = (
"803 250 LINE",
"803 338 LINE",
"272 338 LINE",
"272 250 LINE"
);
}
);
width = 1075;
}
);
leftKerningGroup = T;
rightKerningGroup = T;
unicode = 0166;
},
{
glyphname = U;
lastChange = "2016-01-15 16:42:16 +0000";
layers = (
{
anchors = (
{
name = bottom;
position = "{601, -12}";
},
{
name = ogonek;
position = "{601, -12}";
},
{
name = top;
position = "{601, 612}";
},
{
name = topright;
position = "{1190, 588}";
}
);
background = {
paths = (
{
closed = 1;
nodes = (
"1002 192 LINE SMOOTH",
"1002 160 OFFCURVE",
"992 130 OFFCURVE",
"972 102 CURVE SMOOTH",
"943 61 OFFCURVE",
"894 26 OFFCURVE",
"832 1 CURVE SMOOTH",
"770 -23 OFFCURVE",
"697 -37 OFFCURVE",
"622 -37 CURVE SMOOTH",
"528 -37 OFFCURVE",
"434 -12 OFFCURVE",
"366 30 CURVE SMOOTH",
"331 49 OFFCURVE",
"302 74 OFFCURVE",
"283 102 CURVE SMOOTH",
"264 130 OFFCURVE",
"254 160 OFFCURVE",
"253 192 CURVE",
"253 572 LINE",
"223 572 LINE",
"223 192 LINE SMOOTH",
"223 152 OFFCURVE",
"235 116 OFFCURVE",
"258 84 CURVE SMOOTH",
"292 37 OFFCURVE",
"346 -1 OFFCURVE",
"409 -26 CURVE SMOOTH",
"474 -53 OFFCURVE",
"547 -68 OFFCURVE",
"622 -68 CURVE SMOOTH",
"727 -68 OFFCURVE",
"828 -42 OFFCURVE",
"905 2 CURVE SMOOTH",
"943 25 OFFCURVE",
"976 52 OFFCURVE",
"997 84 CURVE SMOOTH",
"1021 116 OFFCURVE",
"1033 152 OFFCURVE",
"1033 192 CURVE SMOOTH",
"1033 572 LINE",
"1002 572 LINE"
);
},
{
closed = 1;
nodes = (
"491 557 LINE",
"491 588 LINE",
"-31 588 LINE",
"-31 557 LINE"
);
},
{
closed = 1;
nodes = (
"1285 557 LINE",
"1285 588 LINE",
"763 588 LINE",
"763 557 LINE"
);
}
);
};
layerId = "B29C398E-974A-40D0-A0A0-00935056D4B4";
paths = (
{
closed = 1;
nodes = (
"833 -12 OFFCURVE",
"983 95 OFFCURVE",
"983 305 CURVE SMOOTH",
"983 608 LINE",
"956 608 LINE",
"953 290 LINE SMOOTH",
"950 107 OFFCURVE",
"810 16 OFFCURVE",
"601 16 CURVE",
"391 16 OFFCURVE",
"251 107 OFFCURVE",
"248 292 CURVE SMOOTH",
"245 608 LINE",
"218 608 LINE",
"218 305 LINE SMOOTH",
"218 95 OFFCURVE",
"370 -12 OFFCURVE",
"601 -12 CURVE"
);
},
{
closed = 1;
nodes = (
"463 596 LINE",
"463 624 LINE",
"0 624 LINE",
"0 596 LINE"
);
},
{
closed = 1;
nodes = (
"1201 596 LINE",
"1201 624 LINE",
"738 624 LINE",
"738 596 LINE"
);
}
);
width = 1201;
},
{
anchors = (
{
name = bottom;
position = "{404, -12}";
},
{
name = ogonek;
position = "{410, -12}";
},
{
name = top;
position = "{410, 636}";
},
{
name = topright;
position = "{790, 588}";
}
);
background = {
paths = (
{
closed = 1;
nodes = (
"640 290 LINE",
"640 318 LINE",
"164 318 LINE",
"164 290 LINE"
);
},
{
closed = 1;
nodes = (
"295 0 LINE",
"295 28 LINE",
"6 28 LINE",
"6 0 LINE"
);
},
{
closed = 1;
nodes = (
"170 16 LINE",
"170 611 LINE",
"142 611 LINE",
"142 16 LINE"
);
},
{
closed = 1;
nodes = (
"295 596 LINE",
"295 624 LINE",
"6 624 LINE",
"6 596 LINE"
);
},
{
closed = 1;
nodes = (
"797 0 LINE",
"797 28 LINE",
"508 28 LINE",
"508 0 LINE"
);
},
{
closed = 1;
nodes = (
"662 16 LINE",
"662 611 LINE",
"632 611 LINE",
"632 16 LINE"
);
},
{
closed = 1;
nodes = (
"797 596 LINE",
"797 624 LINE",
"508 624 LINE",
"508 596 LINE"
);
}
);
};
layerId = "543F9737-16F7-428D-9F96-2EBD9FC8D3B6";
paths = (
{
closed = 1;
nodes = (
"570 -12 OFFCURVE",
"666 95 OFFCURVE",
"666 233 CURVE SMOOTH",
"666 608 LINE",
"635 608 LINE",
"635 227 LINE SMOOTH",
"635 107 OFFCURVE",
"544 16 OFFCURVE",
"404 16 CURVE SMOOTH",
"264 16 OFFCURVE",
"173 107 OFFCURVE",
"173 228 CURVE SMOOTH",
"173 608 LINE",
"142 608 LINE",
"142 233 LINE SMOOTH",
"142 95 OFFCURVE",
"239 -12 OFFCURVE",
"404 -12 CURVE SMOOTH"
);
},
{
closed = 1;
nodes = (
"308 596 LINE",
"308 624 LINE",
"6 624 LINE",
"6 596 LINE"
);
},
{
closed = 1;
nodes = (
"802 596 LINE",
"802 624 LINE",
"499 624 LINE",
"499 596 LINE"
);
}
);
width = 808;
},
{
anchors = (
{
name = bottom;
position = "{403, -12}";
},
{
name = ogonek;
position = "{475, -4}";
},
{
name = top;
position = "{404, 624}";
},
{
name = topright;
position = "{788, 588}";
}
);
layerId = "EB38A4D2-CD30-49BA-8E45-1F04A566FFE8";
paths = (
{
closed = 1;
nodes = (
"570 -12 OFFCURVE",
"698 95 OFFCURVE",
"698 247 CURVE SMOOTH",
"698 562 LINE",
"552 562 LINE",
"554 258 LINE SMOOTH",
"554 168 OFFCURVE",
"487 109 OFFCURVE",
"403 109 CURVE SMOOTH",
"318 109 OFFCURVE",
"256 167 OFFCURVE",
"256 256 CURVE SMOOTH",
"257 562 LINE",
"108 562 LINE",
"108 247 LINE SMOOTH",
"108 95 OFFCURVE",
"229 -12 OFFCURVE",
"403 -12 CURVE SMOOTH"
);
},
{
closed = 1;
nodes = (
"347 509 LINE",
"347 624 LINE",
"6 624 LINE",
"6 509 LINE"
);
},
{
closed = 1;
nodes = (
"799 509 LINE",
"799 624 LINE",
"463 624 LINE",
"463 509 LINE"
);
}
);
width = 805;
},
{
anchors = (
{
name = bottom;
position = "{618, -12}";
},
{
name = ogonek;
position = "{673, -10}";
},
{
name = top;
position = "{613, 624}";
},
{
name = topright;
position = "{1207, 588}";
}
);
layerId = "C70E3B11-AF58-44B6-92D7-58C9185F522D";
paths = (
{
closed = 1;
nodes = (
"851 -12 OFFCURVE",
"1033 95 OFFCURVE",
"1033 319 CURVE SMOOTH",
"1033 562 LINE",
"892 562 LINE",
"890 322 LINE SMOOTH",
"888 168 OFFCURVE",
"772 109 OFFCURVE",
"618 109 CURVE SMOOTH",
"463 109 OFFCURVE",
"352 167 OFFCURVE",
"349 319 CURVE SMOOTH",
"347 562 LINE",
"203 562 LINE",
"203 319 LINE SMOOTH",
"203 95 OFFCURVE",
"378 -12 OFFCURVE",
"618 -12 CURVE SMOOTH"
);
},
{
closed = 1;
nodes = (
"514 509 LINE",
"514 624 LINE",
"18 624 LINE",
"18 509 LINE"
);
},
{
closed = 1;
nodes = (
"1217 509 LINE",
"1217 624 LINE",
"725 624 LINE",
"725 509 LINE"
);
}
);
width = 1235;
}
);
leftKerningGroup = U;
rightKerningGroup = U;
unicode = 0055;
},
{
glyphname = V;
lastChange = "2016-01-15 16:42:16 +0000";
layers = (
{
anchors = (
{
name = bottom;
position = "{563, -12}";
},
{
name = top;
position = "{563, 588}";
}
);
layerId = "B29C398E-974A-40D0-A0A0-00935056D4B4";
paths = (
{
closed = 1;
nodes = (
"-6 624 LINE",
"-6 596 LINE",
"398 596 LINE",
"398 624 LINE"
);
},
{
closed = 1;
nodes = (
"725 624 LINE",
"725 596 LINE",
"1129 596 LINE",
"1129 624 LINE"
);
},
{
closed = 1;
nodes = (
"565 -12 LINE",
"944 608 LINE",
"910 608 LINE",
"563 36 LINE",
"217 608 LINE",
"180 608 LINE",
"558 -12 LINE"
);
}
);
width = 1123;
},
{
anchors = (
{
name = bottom;
position = "{388, 0}";
},
{
name = top;
position = "{388, 588}";
}
);
layerId = "543F9737-16F7-428D-9F96-2EBD9FC8D3B6";
paths = (
{
closed = 1;
nodes = (
"0 624 LINE",
"0 596 LINE",
"272 596 LINE",
"272 624 LINE"
);
},
{
closed = 1;
nodes = (
"491 624 LINE",
"491 596 LINE",
"775 596 LINE",
"775 624 LINE"
);
},
{
closed = 1;
nodes = (
"392 -12 LINE",
"662 608 LINE",
"628 608 LINE",
"389 48 LINE",
"149 608 LINE",
"114 608 LINE",
"383 -12 LINE"
);
}
);
width = 775;
},
{
anchors = (
{
name = bottom;
position = "{377, 0}";
},
{
name = top;
position = "{377, 588}";
}
);
layerId = "EB38A4D2-CD30-49BA-8E45-1F04A566FFE8";
paths = (
{
closed = 1;
nodes = (
"0 624 LINE",
"0 509 LINE",
"328 509 LINE",
"328 624 LINE"
);
},
{
closed = 1;
nodes = (
"430 624 LINE",
"430 509 LINE",
"755 509 LINE",
"755 624 LINE"
);
},
{
closed = 1;
nodes = (
"415 -12 LINE",
"708 608 LINE",
"564 608 LINE",
"386 182 LINE",
"203 608 LINE",
"47 608 LINE",
"338 -12 LINE"
);
}
);
width = 755;
},
{
anchors = (
{
name = bottom;
position = "{564, -12}";
},
{
name = top;
position = "{564, 588}";
}
);
layerId = "C70E3B11-AF58-44B6-92D7-58C9185F522D";
paths = (
{
closed = 1;
nodes = (
"0 624 LINE",
"0 509 LINE",
"439 509 LINE",
"439 624 LINE"
);
},
{
closed = 1;
nodes = (
"702 624 LINE",
"702 509 LINE",
"1120 509 LINE",
"1120 624 LINE"
);
},
{
closed = 1;
nodes = (
"600 -12 LINE",
"1032 608 LINE",
"886 608 LINE",
"580 156 LINE",
"270 608 LINE",
"85 608 LINE",
"520 -12 LINE"
);
}
);
width = 1120;
}
);
leftKerningGroup = V;
rightKerningGroup = V;
unicode = 0056;
},
{
glyphname = W;
lastChange = "2016-01-15 16:42:16 +0000";
layers = (
{
anchors = (
{
name = bottom;
position = "{748, 0}";
},
{
name = top;
position = "{756, 624}";
}
);
background = {
paths = (
{
closed = 1;
nodes = (
"376 598 LINE",
"376 624 LINE",
"-12 624 LINE",
"-12 598 LINE"
);
},
{
closed = 1;
nodes = (
"1028 598 LINE",
"1028 624 LINE",
"464 624 LINE",
"464 598 LINE"
);
},
{
closed = 1;
nodes = (
"1507 598 LINE",
"1507 624 LINE",
"1120 624 LINE",
"1120 598 LINE"
);
},
{
closed = 1;
nodes = (
"532 -12 LINE",
"541 25 LINE",
"211 608 LINE",
"176 608 LINE",
"524 -12 LINE"
);
},
{
closed = 1;
nodes = (
"534 -12 LINE",
"935 608 LINE",
"901 608 LINE",
"896 608 LINE",
"521 23 LINE",
"529 -12 LINE"
);
},
{
closed = 1;
nodes = (
"966 -12 LINE",
"976 25 LINE",
"602 608 LINE",
"595 608 LINE",
"563 608 LINE",
"961 -12 LINE"
);
},
{
closed = 1;
nodes = (
"970 -12 LINE",
"1316 608 LINE",
"1282 608 LINE",
"956 25 LINE",
"965 -12 LINE"
);
}
);
};
layerId = "B29C398E-974A-40D0-A0A0-00935056D4B4";
paths = (
{
closed = 1;
nodes = (
"445 -12 LINE",
"455 25 LINE",
"216 608 LINE",
"181 608 LINE",
"438 -12 LINE"
);
},
{
closed = 1;
nodes = (
"448 -12 LINE",
"742 576 LINE",
"728 608 LINE",
"724 608 LINE",
"434 23 LINE",
"443 -12 LINE"
);
},
{
closed = 1;
nodes = (
"1009 -12 LINE",
"1019 25 LINE",
"733 608 LINE",
"726 608 LINE",
"714 576 LINE",
"1004 -12 LINE"
);
},
{
closed = 1;
nodes = (
"1013 -12 LINE",
"1272 608 LINE",
"1237 608 LINE",
"1000 25 LINE",
"1008 -12 LINE"
);
},
{
closed = 1;
nodes = (
"1056 624 LINE",
"1056 596 LINE",
"1460 596 LINE",
"1460 624 LINE"
);
},
{
closed = 1;
nodes = (
"-6 596 LINE",
"398 596 LINE",
"398 624 LINE",
"-6 624 LINE"
);
}
);
width = 1454;
},
{
anchors = (
{
name = bottom;
position = "{541, 0}";
},
{
name = top;
position = "{541, 624}";
}
);
background = {
paths = (
{
closed = 1;
nodes = (
"725 -12 LINE",
"947 608 LINE",
"914 608 LINE",
"719 48 LINE",
"433 608 LINE",
"398 608 LINE",
"715 -12 LINE"
);
},
{
closed = 1;
nodes = (
"359 -12 LINE",
"677 608 LINE",
"646 608 LINE",
"359 48 LINE",
"163 608 LINE",
"128 608 LINE",
"349 -12 LINE"
);
},
{
closed = 1;
nodes = (
"287 596 LINE",
"287 624 LINE",
"14 624 LINE",
"14 596 LINE"
);
},
{
closed = 1;
nodes = (
"748 596 LINE",
"748 624 LINE",
"320 624 LINE",
"320 596 LINE"
);
},
{
closed = 1;
nodes = (
"1060 596 LINE",
"1060 624 LINE",
"775 624 LINE",
"775 596 LINE"
);
}
);
};
layerId = "543F9737-16F7-428D-9F96-2EBD9FC8D3B6";
paths = (
{
closed = 1;
nodes = (
"278 596 LINE",
"278 624 LINE",
"6 624 LINE",
"6 596 LINE"
);
},
{
closed = 1;
nodes = (
"338 -12 LINE",
"348 31 LINE",
"151 608 LINE",
"116 608 LINE",
"331 -12 LINE"
);
},
{
closed = 1;
nodes = (
"341 -12 LINE",
"557 565 LINE",
"544 608 LINE",
"539 608 LINE",
"328 31 LINE",
"336 -12 LINE"
);
},
{
closed = 1;
nodes = (
"746 -12 LINE",
"756 31 LINE",
"548 608 LINE",
"541 608 LINE",
"529 568 LINE",
"742 -12 LINE"
);
},
{
closed = 1;
nodes = (
"750 -12 LINE",
"967 608 LINE",
"932 608 LINE",
"737 31 LINE",
"745 -12 LINE"
);
},
{
closed = 1;
nodes = (
"1078 596 LINE",
"1078 624 LINE",
"793 624 LINE",
"793 596 LINE"
);
}
);
width = 1084;
},
{
anchors = (
{
name = bottom;
position = "{498, 0}";
},
{
name = top;
position = "{511, 624}";
}
);
background = {
paths = (
{
closed = 1;
nodes = (
"734 -12 LINE",
"1024 608 LINE",
"887 608 LINE",
"708 185 LINE",
"521 608 LINE",
"379 608 LINE",
"658 -12 LINE"
);
},
{
closed = 1;
nodes = (
"360 -12 LINE",
"653 608 LINE",
"516 608 LINE",
"334 185 LINE",
"182 608 LINE",
"24 608 LINE",
"282 -12 LINE"
);
},
{
closed = 1;
nodes = (
"301 509 LINE",
"301 624 LINE",
"0 624 LINE",
"0 509 LINE"
);
},
{
closed = 1;
nodes = (
"695 509 LINE",
"695 624 LINE",
"374 624 LINE",
"374 509 LINE"
);
},
{
closed = 1;
nodes = (
"1048 509 LINE",
"1048 624 LINE",
"768 624 LINE",
"768 509 LINE"
);
}
);
};
guideLines = (
{
position = "{396, 553}";
}
);
layerId = "EB38A4D2-CD30-49BA-8E45-1F04A566FFE8";
paths = (
{
closed = 1;
nodes = (
"328 509 LINE",
"328 624 LINE",
"0 624 LINE",
"0 509 LINE"
);
},
{
closed = 1;
nodes = (
"332 -12 LINE",
"377 107 LINE",
"226 553 LINE",
"72 553 LINE",
"280 -12 LINE"
);
},
{
closed = 1;
nodes = (
"356 -12 LINE",
"570 493 LINE",
"547 612 LINE",
"499 612 LINE",
"272 50 LINE",
"300 -12 LINE"
);
},
{
closed = 1;
nodes = (
"761 -12 LINE",
"803 107 LINE",
"576 612 LINE",
"523 612 LINE",
"473 484 LINE",
"708 -12 LINE"
);
},
{
closed = 1;
nodes = (
"785 -12 LINE",
"989 553 LINE",
"857 553 LINE",
"701 50 LINE",
"728 -12 LINE"
);
},
{
closed = 1;
nodes = (
"1064 509 LINE",
"1064 624 LINE",
"739 624 LINE",
"739 509 LINE"
);
}
);
width = 1064;
},
{
anchors = (
{
name = bottom;
position = "{758, 0}";
},
{
name = top;
position = "{764, 624}";
}
);
background = {
paths = (
{
closed = 1;
nodes = (
"538 -12 LINE",
"943 608 LINE",
"805 608 LINE",
"521 152 LINE",
"251 608 LINE",
"80 608 LINE",
"461 -12 LINE"
);
},
{
closed = 1;
nodes = (
"410 509 LINE",
"410 624 LINE",
"-6 624 LINE",
"-6 509 LINE"
);
},
{
closed = 1;
nodes = (
"1042 -12 LINE",
"1440 608 LINE",
"1306 608 LINE",
"1028 152 LINE",
"739 606 LINE",
"622 521 LINE",
"966 -12 LINE"
);
},
{
closed = 1;
nodes = (
"984 509 LINE",
"984 624 LINE",
"551 624 LINE",
"551 509 LINE"
);
},
{
closed = 1;
nodes = (
"1540 509 LINE",
"1540 624 LINE",
"1108 624 LINE",
"1108 509 LINE"
);
}
);
};
layerId = "C70E3B11-AF58-44B6-92D7-58C9185F522D";
paths = (
{
closed = 1;
nodes = (
"498 -12 LINE",
"542 107 LINE",
"283 553 LINE",
"130 553 LINE",
"445 -12 LINE"
);
},
{
closed = 1;
nodes = (
"522 -12 LINE",
"820 493 LINE",
"797 612 LINE",
"749 612 LINE",
"438 50 LINE",
"466 -12 LINE"
);
},
{
closed = 1;
nodes = (
"1094 -12 LINE",
"1136 107 LINE",
"826 612 LINE",
"773 612 LINE",
"722 484 LINE",
"1042 -12 LINE"
);
},
{
closed = 1;
nodes = (
"1118 -12 LINE",
"1418 553 LINE",
"1286 553 LINE",
"1034 50 LINE",
"1062 -12 LINE"
);
},
{
closed = 1;
nodes = (
"1142 624 LINE",
"1142 509 LINE",
"1549 509 LINE",
"1549 624 LINE"
);
},
{
closed = 1;
nodes = (
"0 509 LINE",
"419 509 LINE",
"419 624 LINE",
"0 624 LINE"
);
}
);
width = 1549;
}
);
leftKerningGroup = V;
rightKerningGroup = V;
unicode = 0057;
},
{
glyphname = X;
lastChange = "2016-01-15 16:42:16 +0000";
layers = (
{
anchors = (
{
name = bottom;
position = "{570, 0}";
},
{
name = top;
position = "{570, 588}";
}
);
layerId = "B29C398E-974A-40D0-A0A0-00935056D4B4";
paths = (
{
closed = 1;
nodes = (
"1086 0 LINE",
"1086 28 LINE",
"883 28 LINE",
"868 28 LINE",
"683 28 LINE",
"683 0 LINE"
);
},
{
closed = 1;
nodes = (
"457 0 LINE",
"457 28 LINE",
"276 28 LINE",
"258 28 LINE",
"54 28 LINE",
"54 0 LINE"
);
},
{
closed = 1;
nodes = (
"911 14 LINE",
"583 313 LINE",
"580 313 LINE",
"257 608 LINE",
"212 608 LINE",
"557 295 LINE",
"560 295 LINE",
"866 14 LINE"
);
},
{
closed = 1;
nodes = (
"274 14 LINE",
"580 295 LINE",
"583 295 LINE",
"928 608 LINE",
"886 608 LINE",
"563 313 LINE",
"559 313 LINE",
"232 14 LINE"
);
},
{
closed = 1;
nodes = (
"238 596 LINE",
"253 596 LINE",
"458 596 LINE",
"458 624 LINE SMOOTH",
"54 624 LINE",
"54 596 LINE"
);
},
{
closed = 1;
nodes = (
"886 596 LINE",
"902 596 LINE",
"1086 596 LINE",
"1086 624 LINE",
"682 624 LINE SMOOTH",
"682 596 LINE"
);
}
);
width = 1140;
},
{
anchors = (
{
name = bottom;
position = "{378, 0}";
},
{
name = top;
position = "{378, 588}";
}
);
background = {
anchors = (
{
name = bottom;
position = "{384, 0}";
},
{
name = top;
position = "{384, 588}";
}
);
paths = (
{
closed = 1;
nodes = (
"623 14 LINE",
"155 608 LINE",
"110 608 LINE",
"578 14 LINE"
);
},
{
closed = 1;
nodes = (
"295 0 LINE",
"295 28 LINE",
"12 28 LINE",
"12 0 LINE"
);
},
{
closed = 1;
nodes = (
"738 0 LINE",
"738 28 LINE",
"455 28 LINE",
"455 0 LINE"
);
},
{
closed = 1;
nodes = (
"172 14 LINE",
"384 288 LINE",
"389 288 LINE",
"640 608 LINE",
"598 608 LINE",
"371 316 LINE",
"366 316 LINE",
"130 14 LINE"
);
},
{
closed = 1;
nodes = (
"296 596 LINE",
"296 624 LINE SMOOTH",
"12 624 LINE",
"12 596 LINE"
);
},
{
closed = 1;
nodes = (
"738 596 LINE",
"738 624 LINE",
"454 624 LINE SMOOTH",
"454 596 LINE"
);
}
);
};
layerId = "543F9737-16F7-428D-9F96-2EBD9FC8D3B6";
paths = (
{
closed = 1;
nodes = (
"619 14 LINE",
"385 316 LINE",
"380 316 LINE",
"151 608 LINE",
"114 608 LINE",
"365 288 LINE",
"370 288 LINE",
"582 14 LINE"
);
},
{
closed = 1;
nodes = (
"295 0 LINE",
"295 28 LINE",
"166 28 LINE",
"154 28 LINE",
"12 28 LINE",
"12 0 LINE"
);
},
{
closed = 1;
nodes = (
"738 0 LINE",
"738 28 LINE",
"599 28 LINE",
"583 28 LINE",
"455 28 LINE",
"455 0 LINE"
);
},
{
closed = 1;
nodes = (
"167 14 LINE",
"382 287 LINE",
"386 294 LINE",
"635 608 LINE",
"602 608 LINE",
"372 317 LINE",
"367 310 LINE",
"134 14 LINE"
);
},
{
closed = 1;
nodes = (
"133 596 LINE",
"145 596 LINE",
"296 596 LINE",
"296 624 LINE SMOOTH",
"12 624 LINE",
"12 596 LINE"
);
},
{
closed = 1;
nodes = (
"601 596 LINE",
"613 596 LINE",
"738 596 LINE",
"738 624 LINE",
"454 624 LINE SMOOTH",
"454 596 LINE"
);
}
);
width = 750;
},
{
anchors = (
{
name = bottom;
position = "{366, 0}";
},
{
name = top;
position = "{366, 588}";
}
);
layerId = "EB38A4D2-CD30-49BA-8E45-1F04A566FFE8";
paths = (
{
closed = 1;
nodes = (
"678 95 LINE",
"433 350 LINE",
"418 350 LINE",
"248 530 LINE",
"53 530 LINE",
"310 270 LINE",
"326 270 LINE",
"482 95 LINE"
);
},
{
closed = 1;
nodes = (
"310 0 LINE",
"310 103 LINE",
"121 103 LINE",
"121 115 LINE",
"12 115 LINE",
"12 0 LINE"
);
},
{
closed = 1;
nodes = (
"722 0 LINE",
"722 115 LINE",
"613 115 LINE",
"613 103 LINE",
"396 103 LINE",
"396 0 LINE"
);
},
{
closed = 1;
nodes = (
"222 95 LINE",
"391 280 LINE",
"413 278 LINE",
"662 530 LINE",
"508 530 LINE",
"344 359 LINE",
"322 361 LINE",
"66 95 LINE"
);
},
{
closed = 1;
nodes = (
"126 509 LINE",
"126 521 LINE",
"335 521 LINE",
"335 624 LINE",
"12 624 LINE",
"12 509 LINE"
);
},
{
closed = 1;
nodes = (
"608 521 LINE",
"608 509 LINE",
"722 509 LINE",
"722 624 LINE",
"421 624 LINE",
"421 521 LINE"
);
}
);
width = 734;
},
{
anchors = (
{
name = bottom;
position = "{566, 0}";
},
{
name = top;
position = "{566, 588}";
}
);
layerId = "C70E3B11-AF58-44B6-92D7-58C9185F522D";
paths = (
{
closed = 1;
nodes = (
"1091 0 LINE",
"1091 115 LINE",
"904 115 LINE",
"822 115 LINE",
"636 115 LINE",
"636 0 LINE"
);
},
{
closed = 1;
nodes = (
"481 0 LINE",
"481 115 LINE",
"286 115 LINE",
"224 115 LINE",
"50 115 LINE",
"50 0 LINE"
);
},
{
closed = 1;
nodes = (
"1002 95 LINE",
"642 348 LINE",
"628 348 LINE",
"367 530 LINE",
"143 530 LINE",
"508 277 LINE",
"523 277 LINE",
"784 95 LINE"
);
},
{
closed = 1;
nodes = (
"323 95 LINE",
"596 288 LINE",
"617 280 LINE",
"974 530 LINE",
"806 530 LINE",
"545 355 LINE",
"523 365 LINE",
"154 95 LINE"
);
},
{
closed = 1;
nodes = (
"244 509 LINE",
"322 509 LINE",
"506 509 LINE",
"506 624 LINE SMOOTH",
"50 624 LINE",
"50 509 LINE"
);
},
{
closed = 1;
nodes = (
"834 509 LINE",
"888 509 LINE",
"1091 509 LINE",
"1091 624 LINE",
"659 624 LINE SMOOTH",
"659 509 LINE"
);
}
);
width = 1141;
}
);
leftKerningGroup = X;
rightKerningGroup = X;
unicode = 0058;
},
{
glyphname = Y;
lastChange = "2016-01-15 16:42:16 +0000";
layers = (
{
anchors = (
{
name = bottom;
position = "{552, 0}";
},
{
name = top;
position = "{552, 612}";
}
);
background = {
paths = (
{
closed = 1;
nodes = (
"385 22 LINE",
"139 22 LINE",
"139 0 LINE",
"407 0 LINE",
"407 127 LINE",
"385 127 LINE"
);
},
{
closed = 1;
nodes = (
"656 0 LINE",
"656 22 LINE",
"395 22 LINE",
"395 0 LINE"
);
},
{
closed = 1;
nodes = (
"619 420 LINE",
"388 134 LINE",
"404 120 LINE",
"629 398 LINE",
"834 398 LINE",
"834 420 LINE"
);
},
{
closed = 1;
nodes = (
"174 420 LINE",
"-42 420 LINE",
"-42 398 LINE",
"163 398 LINE",
"389 120 LINE",
"406 134 LINE"
);
}
);
};
layerId = "B29C398E-974A-40D0-A0A0-00935056D4B4";
paths = (
{
closed = 1;
nodes = (
"563 214 LINE",
"917 610 LINE",
"877 610 LINE",
"553 247 LINE",
"233 606 LINE",
"190 606 LINE",
"541 214 LINE"
);
},
{
closed = 1;
nodes = (
"786 0 LINE",
"786 28 LINE",
"319 28 LINE",
"319 0 LINE"
);
},
{
closed = 1;
nodes = (
"568 0 LINE",
"568 245 LINE",
"538 245 LINE",
"538 0 LINE"
);
},
{
closed = 1;
nodes = (
"410 596 LINE",
"410 624 LINE",
"6 624 LINE",
"6 596 LINE"
);
},
{
closed = 1;
nodes = (
"1098 596 LINE",
"1098 624 LINE",
"695 624 LINE",
"695 596 LINE"
);
}
);
width = 1104;
},
{
anchors = (
{
name = bottom;
position = "{373, 0}";
},
{
name = top;
position = "{373, 612}";
}
);
layerId = "543F9737-16F7-428D-9F96-2EBD9FC8D3B6";
paths = (
{
closed = 1;
nodes = (
"383 214 LINE",
"636 612 LINE",
"602 612 LINE",
"373 248 LINE",
"140 613 LINE",
"106 613 LINE",
"361 214 LINE"
);
},
{
closed = 1;
nodes = (
"529 0 LINE",
"529 28 LINE",
"216 28 LINE",
"216 0 LINE"
);
},
{
closed = 1;
nodes = (
"388 0 LINE",
"388 245 LINE",
"358 245 LINE",
"358 0 LINE"
);
},
{
closed = 1;
nodes = (
"278 596 LINE",
"278 624 LINE",
"6 624 LINE",
"6 596 LINE"
);
},
{
closed = 1;
nodes = (
"738 596 LINE",
"738 624 LINE",
"467 624 LINE",
"467 596 LINE"
);
}
);
width = 744;
},
{
anchors = (
{
name = bottom;
position = "{364, 0}";
},
{
name = top;
position = "{362, 612}";
}
);
layerId = "EB38A4D2-CD30-49BA-8E45-1F04A566FFE8";
paths = (
{
closed = 1;
nodes = (
"398 209 LINE",
"660 539 LINE",
"498 539 LINE",
"371 348 LINE",
"230 540 LINE",
"56 540 LINE",
"324 209 LINE"
);
},
{
closed = 1;
nodes = (
"540 0 LINE",
"540 115 LINE",
"185 115 LINE",
"185 0 LINE"
);
},
{
closed = 1;
nodes = (
"436 60 LINE",
"436 300 LINE",
"289 300 LINE",
"289 60 LINE"
);
},
{
closed = 1;
nodes = (
"311 509 LINE",
"311 624 LINE",
"12 624 LINE",
"12 509 LINE"
);
},
{
closed = 1;
nodes = (
"712 509 LINE",
"712 624 LINE",
"413 624 LINE",
"413 509 LINE"
);
}
);
width = 724;
},
{
anchors = (
{
name = bottom;
position = "{533, 0}";
},
{
name = top;
position = "{533, 624}";
}
);
layerId = "C70E3B11-AF58-44B6-92D7-58C9185F522D";
paths = (
{
closed = 1;
nodes = (
"566 209 LINE",
"923 536 LINE",
"773 536 LINE",
"545 323 LINE",
"311 533 LINE",
"122 533 LINE",
"492 209 LINE"
);
},
{
closed = 1;
nodes = (
"785 0 LINE",
"785 115 LINE",
"276 115 LINE",
"276 0 LINE"
);
},
{
closed = 1;
nodes = (
"605 60 LINE",
"605 300 LINE",
"456 300 LINE",
"456 60 LINE"
);
},
{
closed = 1;
nodes = (
"419 509 LINE",
"419 624 LINE",
"18 624 LINE",
"18 509 LINE"
);
},
{
closed = 1;
nodes = (
"1042 509 LINE",
"1042 624 LINE",
"641 624 LINE",
"641 509 LINE"
);
}
);
width = 1060;
}
);
leftKerningGroup = V;
rightKerningGroup = V;
unicode = 0059;
},
{
glyphname = Z;
lastChange = "2016-01-15 16:42:16 +0000";
layers = (
{
anchors = (
{
name = bottom;
position = "{521, 0}";
},
{
name = top;
position = "{521, 624}";
}
);
background = {
paths = (
{
closed = 1;
nodes = (
"916 0 LINE",
"916 220 LINE",
"886 220 LINE",
"886 28 LINE",
"180 28 LINE",
"172 22 LINE",
"173 17 LINE",
"182 19 LINE",
"911 608 LINE",
"911 624 LINE",
"126 624 LINE",
"126 404 LINE",
"156 404 LINE",
"156 596 LINE",
"860 596 LINE",
"866 602 LINE",
"865 605 LINE",
"858 602 LINE",
"130 16 LINE",
"130 0 LINE"
);
}
);
};
layerId = "B29C398E-974A-40D0-A0A0-00935056D4B4";
paths = (
{
closed = 1;
nodes = (
"916 0 LINE",
"916 220 LINE",
"886 220 LINE",
"886 28 LINE",
"214 28 LINE SMOOTH",
"198 28 OFFCURVE",
"185 24 OFFCURVE",
"179 23 CURVE",
"179 24 LINE",
"185 26 OFFCURVE",
"197 31 OFFCURVE",
"208 40 CURVE SMOOTH",
"911 608 LINE",
"911 624 LINE",
"126 624 LINE",
"126 404 LINE",
"156 404 LINE",
"156 596 LINE",
"824 596 LINE SMOOTH",
"844 596 OFFCURVE",
"859 600 OFFCURVE",
"864 601 CURVE",
"864 600 LINE",
"859 599 OFFCURVE",
"845 592 OFFCURVE",
"832 581 CURVE SMOOTH",
"130 16 LINE",
"130 0 LINE"
);
}
);
width = 1036;
},
{
anchors = (
{
name = bottom;
position = "{332, 0}";
},
{
name = top;
position = "{332, 624}";
}
);
layerId = "543F9737-16F7-428D-9F96-2EBD9FC8D3B6";
paths = (
{
closed = 1;
nodes = (
"592 0 LINE",
"592 163 LINE",
"562 163 LINE",
"562 28 LINE",
"126 28 LINE SMOOTH",
"115 28 OFFCURVE",
"100 26 OFFCURVE",
"92 24 CURVE",
"92 25 LINE",
"100 28 OFFCURVE",
"114 34 OFFCURVE",
"122 46 CURVE SMOOTH",
"587 608 LINE",
"587 624 LINE",
"66 624 LINE",
"66 461 LINE",
"96 461 LINE",
"96 596 LINE",
"518 596 LINE SMOOTH",
"530 596 OFFCURVE",
"544 598 OFFCURVE",
"552 600 CURVE",
"552 599 LINE",
"544 596 OFFCURVE",
"529 587 OFFCURVE",
"520 576 CURVE SMOOTH",
"58 16 LINE",
"58 0 LINE"
);
}
);
width = 646;
},
{
anchors = (
{
name = bottom;
position = "{371, 0}";
},
{
name = top;
position = "{371, 624}";
}
);
background = {
paths = (
{
closed = 1;
nodes = (
"647 0 LINE",
"647 240 LINE",
"517 240 LINE",
"517 115 LINE",
"145 115 LINE",
"100 37 LINE",
"107 25 LINE",
"175 38 LINE",
"642 521 LINE",
"642 624 LINE",
"54 624 LINE",
"54 384 LINE",
"184 384 LINE",
"184 509 LINE",
"554 509 LINE",
"599 592 LINE",
"593 599 LINE",
"524 586 LINE",
"58 103 LINE",
"58 0 LINE"
);
}
);
};
layerId = "EB38A4D2-CD30-49BA-8E45-1F04A566FFE8";
paths = (
{
closed = 1;
nodes = (
"647 0 LINE",
"647 240 LINE",
"517 240 LINE",
"517 115 LINE",
"287 115 LINE SMOOTH",
"263 115 OFFCURVE",
"229 110 OFFCURVE",
"215 107 CURVE",
"214 114 LINE",
"230 116 OFFCURVE",
"264 128 OFFCURVE",
"281 146 CURVE SMOOTH",
"642 521 LINE",
"642 624 LINE",
"54 624 LINE",
"54 384 LINE",
"184 384 LINE",
"184 509 LINE",
"412 509 LINE SMOOTH",
"438 509 OFFCURVE",
"467 514 OFFCURVE",
"484 517 CURVE",
"485 510 LINE",
"468 505 OFFCURVE",
"436 493 OFFCURVE",
"418 475 CURVE SMOOTH",
"58 103 LINE",
"58 0 LINE"
);
}
);
width = 695;
},
{
anchors = (
{
name = bottom;
position = "{547, 0}";
},
{
name = top;
position = "{547, 624}";
}
);
background = {
paths = (
{
closed = 1;
nodes = (
"959 0 LINE",
"959 296 LINE",
"829 296 LINE",
"829 115 LINE",
"229 115 LINE",
"172 37 LINE",
"179 25 LINE",
"259 38 LINE",
"954 521 LINE",
"954 624 LINE",
"114 624 LINE",
"114 328 LINE",
"244 328 LINE",
"244 509 LINE",
"842 509 LINE",
"899 592 LINE",
"893 599 LINE",
"812 586 LINE",
"118 103 LINE",
"118 0 LINE"
);
}
);
};
layerId = "C70E3B11-AF58-44B6-92D7-58C9185F522D";
paths = (
{
closed = 1;
nodes = (
"959 0 LINE",
"959 296 LINE",
"829 296 LINE",
"829 115 LINE",
"414 115 LINE SMOOTH",
"386 115 OFFCURVE",
"360 110 OFFCURVE",
"344 107 CURVE",
"343 114 LINE",
"358 118 OFFCURVE",
"383 125 OFFCURVE",
"408 142 CURVE SMOOTH",
"954 521 LINE",
"954 624 LINE",
"114 624 LINE",
"114 328 LINE",
"244 328 LINE",
"244 509 LINE",
"656 509 LINE SMOOTH",
"686 509 OFFCURVE",
"716 515 OFFCURVE",
"728 517 CURVE",
"730 510 LINE",
"718 508 OFFCURVE",
"688 498 OFFCURVE",
"662 481 CURVE SMOOTH",
"118 103 LINE",
"118 0 LINE"
);
}
);
width = 1067;
}
);
leftKerningGroup = Z;
rightKerningGroup = Z;
unicode = 005A;
},
{
export = 0;
glyphname = W.bold;
lastChange = "2016-01-15 16:42:16 +0000";
layers = (
{
anchors = (
{
name = bottom;
position = "{754, 0}";
},
{
name = top;
position = "{762, 624}";
}
);
background = {
paths = (
{
closed = 1;
nodes = (
"382 598 LINE",
"382 624 LINE",
"-6 624 LINE",
"-6 598 LINE"
);
},
{
closed = 1;
nodes = (
"1034 598 LINE",
"1034 624 LINE",
"470 624 LINE",
"470 598 LINE"
);
},
{
closed = 1;
nodes = (
"1513 598 LINE",
"1513 624 LINE",
"1126 624 LINE",
"1126 598 LINE"
);
},
{
closed = 1;
nodes = (
"538 -12 LINE",
"547 25 LINE",
"217 608 LINE",
"182 608 LINE",
"530 -12 LINE"
);
},
{
closed = 1;
nodes = (
"540 -12 LINE",
"941 608 LINE",
"902 608 LINE",
"527 23 LINE",
"535 -12 LINE"
);
},
{
closed = 1;
nodes = (
"972 -12 LINE",
"982 25 LINE",
"608 608 LINE",
"569 608 LINE",
"967 -12 LINE"
);
},
{
closed = 1;
nodes = (
"976 -12 LINE",
"1322 608 LINE",
"1288 608 LINE",
"962 25 LINE",
"971 -12 LINE"
);
}
);
};
layerId = "B29C398E-974A-40D0-A0A0-00935056D4B4";
paths = (
{
closed = 1;
nodes = (
"540 -12 LINE",
"941 608 LINE",
"908 608 LINE",
"539 34 LINE",
"217 608 LINE",
"182 608 LINE",
"532 -12 LINE"
);
},
{
closed = 1;
nodes = (
"382 598 LINE",
"382 624 LINE",
"-6 624 LINE",
"-6 598 LINE"
);
},
{
closed = 1;
nodes = (
"976 -12 LINE",
"1325 608 LINE",
"1295 608 LINE",
"972 34 LINE",
"602 608 LINE",
"569 608 LINE",
"967 -12 LINE"
);
},
{
closed = 1;
nodes = (
"1034 598 LINE",
"1034 624 LINE",
"470 624 LINE",
"470 598 LINE"
);
},
{
closed = 1;
nodes = (
"1513 598 LINE",
"1513 624 LINE",
"1126 624 LINE",
"1126 598 LINE"
);
}
);
width = 1507;
},
{
anchors = (
{
name = bottom;
position = "{533, 0}";
},
{
name = top;
position = "{533, 624}";
}
);
background = {
anchors = (
{
name = top;
position = "{536, 624}";
}
);
};
layerId = "543F9737-16F7-428D-9F96-2EBD9FC8D3B6";
paths = (
{
closed = 1;
nodes = (
"716 -12 LINE",
"938 608 LINE",
"906 608 LINE",
"710 48 LINE",
"425 608 LINE",
"390 608 LINE",
"707 -12 LINE"
);
},
{
closed = 1;
nodes = (
"350 -12 LINE",
"668 608 LINE",
"637 608 LINE",
"350 48 LINE",
"155 608 LINE",
"120 608 LINE",
"341 -12 LINE"
);
},
{
closed = 1;
nodes = (
"278 596 LINE",
"278 624 LINE",
"6 624 LINE",
"6 596 LINE"
);
},
{
closed = 1;
nodes = (
"739 596 LINE",
"739 624 LINE",
"312 624 LINE",
"312 596 LINE"
);
},
{
closed = 1;
nodes = (
"1051 596 LINE",
"1051 624 LINE",
"767 624 LINE",
"767 596 LINE"
);
}
);
width = 1057;
},
{
anchors = (
{
name = bottom;
position = "{510, 0}";
},
{
name = top;
position = "{523, 624}";
}
);
background = {
paths = (
{
closed = 1;
nodes = (
"134 516 LINE",
"134 528 LINE",
"300 528 LINE",
"300 624 LINE",
"44 624 LINE",
"44 516 LINE"
);
},
{
closed = 1;
nodes = (
"361 -12 LINE",
"396 60 LINE",
"212 553 LINE",
"73 553 LINE",
"290 -12 LINE"
);
},
{
closed = 1;
nodes = (
"373 -12 LINE",
"574 496 LINE",
"557 612 LINE",
"517 612 LINE",
"311 60 LINE",
"350 -12 LINE"
);
},
{
closed = 1;
nodes = (
"785 -12 LINE",
"820 60 LINE",
"604 612 LINE",
"542 612 LINE",
"508 496 LINE",
"714 -12 LINE"
);
},
{
closed = 1;
nodes = (
"797 -12 LINE",
"1014 560 LINE",
"905 560 LINE",
"730 60 LINE",
"773 -12 LINE"
);
},
{
closed = 1;
nodes = (
"947 528 LINE",
"947 516 LINE",
"1037 516 LINE",
"1037 624 LINE",
"823 624 LINE",
"823 528 LINE"
);
}
);
};
guideLines = (
{
position = "{408, 553}";
}
);
layerId = "EB38A4D2-CD30-49BA-8E45-1F04A566FFE8";
paths = (
{
closed = 1;
nodes = (
"746 -12 LINE",
"1036 608 LINE",
"899 608 LINE",
"720 185 LINE",
"533 608 LINE",
"391 608 LINE",
"670 -12 LINE"
);
},
{
closed = 1;
nodes = (
"372 -12 LINE",
"665 608 LINE",
"528 608 LINE",
"346 185 LINE",
"194 608 LINE",
"36 608 LINE",
"294 -12 LINE"
);
},
{
closed = 1;
nodes = (
"313 509 LINE",
"313 624 LINE",
"0 624 LINE",
"0 509 LINE"
);
},
{
closed = 1;
nodes = (
"707 509 LINE",
"707 624 LINE",
"386 624 LINE",
"386 509 LINE"
);
},
{
closed = 1;
nodes = (
"1072 509 LINE",
"1072 624 LINE",
"780 624 LINE",
"780 509 LINE"
);
}
);
width = 1072;
},
{
anchors = (
{
name = bottom;
position = "{764, 0}";
},
{
name = top;
position = "{770, 636}";
}
);
background = {
paths = (
{
closed = 1;
nodes = (
"544 -12 LINE",
"949 608 LINE",
"811 608 LINE",
"527 152 LINE",
"257 608 LINE",
"86 608 LINE",
"467 -12 LINE"
);
},
{
closed = 1;
nodes = (
"416 510 LINE",
"416 624 LINE",
"0 624 LINE",
"0 510 LINE"
);
},
{
closed = 1;
nodes = (
"1048 -12 LINE",
"1446 608 LINE",
"1312 608 LINE",
"1034 152 LINE",
"780 551 LINE",
"696 414 LINE",
"972 -12 LINE"
);
},
{
closed = 1;
nodes = (
"990 510 LINE",
"990 624 LINE",
"557 624 LINE",
"557 510 LINE"
);
},
{
closed = 1;
nodes = (
"1546 510 LINE",
"1546 624 LINE",
"1114 624 LINE",
"1114 510 LINE"
);
}
);
};
layerId = "C70E3B11-AF58-44B6-92D7-58C9185F522D";
paths = (
{
closed = 1;
nodes = (
"544 -12 LINE",
"949 608 LINE",
"811 608 LINE",
"527 152 LINE",
"257 608 LINE",
"86 608 LINE",
"467 -12 LINE"
);
},
{
closed = 1;
nodes = (
"416 509 LINE",
"416 624 LINE",
"0 624 LINE",
"0 509 LINE"
);
},
{
closed = 1;
nodes = (
"1048 -12 LINE",
"1446 608 LINE",
"1312 608 LINE",
"1034 152 LINE",
"745 606 LINE",
"628 521 LINE",
"972 -12 LINE"
);
},
{
closed = 1;
nodes = (
"990 509 LINE",
"990 624 LINE",
"557 624 LINE",
"557 509 LINE"
);
},
{
closed = 1;
nodes = (
"1546 509 LINE",
"1546 624 LINE",
"1114 624 LINE",
"1114 509 LINE"
);
}
);
width = 1546;
}
);
leftKerningGroup = V;
rightKerningGroup = V;
},
{
glyphname = a;
lastChange = "2016-01-15 16:42:16 +0000";
layers = (
{
anchors = (
{
name = bottom;
position = "{344, -12}";
},
{
name = ogonek;
position = "{950, 23}";
},
{
name = top;
position = "{461, 440}";
}
);
background = {
anchors = (
{
name = bottom;
position = "{344, -12}";
},
{
name = ogonek;
position = "{950, 23}";
},
{
name = top;
position = "{461, 440}";
}
);
paths = (
{
closed = 1;
nodes = (
"889 -12 OFFCURVE",
"922 2 OFFCURVE",
"950 23 CURVE",
"938 47 LINE",
"911 26 OFFCURVE",
"886 16 OFFCURVE",
"853 16 CURVE SMOOTH",
"814 16 OFFCURVE",
"776 46 OFFCURVE",
"776 112 CURVE SMOOTH",
"776 236 LINE SMOOTH",
"776 356 OFFCURVE",
"686 440 OFFCURVE",
"497 440 CURVE SMOOTH",
"378 440 OFFCURVE",
"256 415 OFFCURVE",
"125 372 CURVE",
"134 344 LINE",
"257 383 OFFCURVE",
"373 413 OFFCURVE",
"497 413 CURVE SMOOTH",
"671 413 OFFCURVE",
"746 337 OFFCURVE",
"746 236 CURVE SMOOTH",
"746 112 LINE SMOOTH",
"746 34 OFFCURVE",
"791 -12 OFFCURVE",
"852 -12 CURVE SMOOTH"
);
},
{
closed = 1;
nodes = (
"476 -12 OFFCURVE",
"629 24 OFFCURVE",
"760 91 CURVE",
"760 118 LINE",
"623 53 OFFCURVE",
"474 16 OFFCURVE",
"344 16 CURVE SMOOTH",
"212 16 OFFCURVE",
"138 47 OFFCURVE",
"138 110 CURVE SMOOTH",
"138 178 OFFCURVE",
"235 223 OFFCURVE",
"394 223 CURVE SMOOTH",
"530 223 OFFCURVE",
"658 205 OFFCURVE",
"760 184 CURVE",
"760 208 LINE",
"658 230 OFFCURVE",
"539 251 OFFCURVE",
"394 251 CURVE SMOOTH",
"216 251 OFFCURVE",
"108 197 OFFCURVE",
"108 108 CURVE SMOOTH",
"108 29 OFFCURVE",
"193 -12 OFFCURVE",
"344 -12 CURVE SMOOTH"
);
}
);
};
layerId = "B29C398E-974A-40D0-A0A0-00935056D4B4";
paths = (
{
closed = 1;
nodes = (
"889 -12 OFFCURVE",
"922 2 OFFCURVE",
"950 23 CURVE",
"938 47 LINE",
"911 26 OFFCURVE",
"886 16 OFFCURVE",
"853 16 CURVE SMOOTH",
"814 16 OFFCURVE",
"776 46 OFFCURVE",
"776 112 CURVE SMOOTH",
"776 236 LINE SMOOTH",
"776 356 OFFCURVE",
"686 440 OFFCURVE",
"497 440 CURVE SMOOTH",
"378 440 OFFCURVE",
"256 415 OFFCURVE",
"125 372 CURVE",
"134 344 LINE",
"257 383 OFFCURVE",
"373 413 OFFCURVE",
"497 413 CURVE SMOOTH",
"671 413 OFFCURVE",
"746 337 OFFCURVE",
"746 236 CURVE SMOOTH",
"746 112 LINE SMOOTH",
"746 34 OFFCURVE",
"791 -12 OFFCURVE",
"852 -12 CURVE SMOOTH"
);
},
{
closed = 1;
nodes = (
"476 -12 OFFCURVE",
"629 24 OFFCURVE",
"760 91 CURVE",
"760 118 LINE",
"623 53 OFFCURVE",
"474 16 OFFCURVE",
"344 16 CURVE SMOOTH",
"212 16 OFFCURVE",
"138 47 OFFCURVE",
"138 110 CURVE SMOOTH",
"138 178 OFFCURVE",
"235 223 OFFCURVE",
"394 223 CURVE SMOOTH",
"530 223 OFFCURVE",
"658 205 OFFCURVE",
"760 184 CURVE",
"760 208 LINE",
"658 230 OFFCURVE",
"539 251 OFFCURVE",
"394 251 CURVE SMOOTH",
"216 251 OFFCURVE",
"108 197 OFFCURVE",
"108 108 CURVE SMOOTH",
"108 29 OFFCURVE",
"193 -12 OFFCURVE",
"344 -12 CURVE SMOOTH"
);
}
);
width = 966;
},
{
anchors = (
{
name = bottom;
position = "{210, -12}";
},
{
name = ogonek;
position = "{512, 8}";
},
{
name = top;
position = "{262, 440}";
}
);
background = {
anchors = (
{
name = bottom;
position = "{210, -12}";
},
{
name = ogonek;
position = "{512, 8}";
},
{
name = top;
position = "{262, 440}";
}
);
paths = (
{
closed = 1;
nodes = (
"485 -6 OFFCURVE",
"502 1 OFFCURVE",
"512 8 CURVE",
"503 34 LINE",
"493 28 OFFCURVE",
"481 22 OFFCURVE",
"467 22 CURVE SMOOTH",
"439 22 OFFCURVE",
"426 44 OFFCURVE",
"426 88 CURVE SMOOTH",
"426 280 LINE SMOOTH",
"426 400 OFFCURVE",
"353 440 OFFCURVE",
"269 440 CURVE SMOOTH",
"199 440 OFFCURVE",
"134 420 OFFCURVE",
"78 395 CURVE",
"86 367 LINE",
"142 392 OFFCURVE",
"199 412 OFFCURVE",
"269 412 CURVE SMOOTH",
"337 412 OFFCURVE",
"397 380 OFFCURVE",
"397 280 CURVE SMOOTH",
"397 88 LINE SMOOTH",
"397 28 OFFCURVE",
"420 -6 OFFCURVE",
"464 -6 CURVE SMOOTH"
);
},
{
closed = 1;
nodes = (
"275 -12 OFFCURVE",
"349 30 OFFCURVE",
"415 80 CURVE",
"415 108 LINE",
"349 55 OFFCURVE",
"278 16 OFFCURVE",
"210 16 CURVE SMOOTH",
"144 16 OFFCURVE",
"84 52 OFFCURVE",
"84 120 CURVE SMOOTH",
"84 193 OFFCURVE",
"156 229 OFFCURVE",
"233 228 CURVE SMOOTH",
"294 227 OFFCURVE",
"349 216 OFFCURVE",
"415 192 CURVE",
"415 220 LINE",
"354 241 OFFCURVE",
"300 256 OFFCURVE",
"233 256 CURVE SMOOTH",
"128 256 OFFCURVE",
"54 202 OFFCURVE",
"54 120 CURVE SMOOTH",
"54 35 OFFCURVE",
"127 -12 OFFCURVE",
"210 -12 CURVE SMOOTH"
);
}
);
};
layerId = "543F9737-16F7-428D-9F96-2EBD9FC8D3B6";
paths = (
{
closed = 1;
nodes = (
"485 -6 OFFCURVE",
"502 1 OFFCURVE",
"512 8 CURVE",
"503 34 LINE",
"493 28 OFFCURVE",
"481 22 OFFCURVE",
"467 22 CURVE SMOOTH",
"439 22 OFFCURVE",
"426 44 OFFCURVE",
"426 88 CURVE SMOOTH",
"426 280 LINE SMOOTH",
"426 400 OFFCURVE",
"353 440 OFFCURVE",
"269 440 CURVE SMOOTH",
"199 440 OFFCURVE",
"134 420 OFFCURVE",
"78 395 CURVE",
"86 367 LINE",
"142 392 OFFCURVE",
"199 412 OFFCURVE",
"269 412 CURVE SMOOTH",
"337 412 OFFCURVE",
"397 380 OFFCURVE",
"397 280 CURVE SMOOTH",
"397 88 LINE SMOOTH",
"397 28 OFFCURVE",
"420 -6 OFFCURVE",
"464 -6 CURVE SMOOTH"
);
},
{
closed = 1;
nodes = (
"275 -12 OFFCURVE",
"349 30 OFFCURVE",
"415 80 CURVE",
"415 108 LINE",
"349 55 OFFCURVE",
"278 16 OFFCURVE",
"210 16 CURVE SMOOTH",
"144 16 OFFCURVE",
"84 52 OFFCURVE",
"84 120 CURVE SMOOTH",
"84 193 OFFCURVE",
"156 229 OFFCURVE",
"233 228 CURVE SMOOTH",
"294 227 OFFCURVE",
"349 216 OFFCURVE",
"415 192 CURVE",
"415 220 LINE",
"354 241 OFFCURVE",
"300 256 OFFCURVE",
"233 256 CURVE SMOOTH",
"128 256 OFFCURVE",
"54 202 OFFCURVE",
"54 120 CURVE SMOOTH",
"54 35 OFFCURVE",
"127 -12 OFFCURVE",
"210 -12 CURVE SMOOTH"
);
}
);
width = 533;
},
{
anchors = (
{
name = bottom;
position = "{191, -12}";
},
{
name = ogonek;
position = "{547, 13}";
},
{
name = top;
position = "{271, 440}";
}
);
background = {
paths = (
{
closed = 1;
nodes = (
"498 -7 OFFCURVE",
"530 4 OFFCURVE",
"547 13 CURVE",
"520 110 LINE",
"515 108 OFFCURVE",
"508 106 OFFCURVE",
"498 106 CURVE SMOOTH",
"486 106 OFFCURVE",
"475 113 OFFCURVE",
"475 133 CURVE SMOOTH",
"475 262 LINE SMOOTH",
"475 366 OFFCURVE",
"407 439 OFFCURVE",
"271 439 CURVE SMOOTH",
"198 439 OFFCURVE",
"146 421 OFFCURVE",
"65 386 CURVE",
"95 282 LINE",
"160 308 OFFCURVE",
"206 324 OFFCURVE",
"260 324 CURVE SMOOTH",
"311 324 OFFCURVE",
"344 306 OFFCURVE",
"344 268 CURVE SMOOTH",
"344 120 LINE SMOOTH",
"344 37 OFFCURVE",
"397 -7 OFFCURVE",
"458 -7 CURVE SMOOTH"
);
},
{
closed = 1;
nodes = (
"263 -13 OFFCURVE",
"326 26 OFFCURVE",
"389 98 CURVE",
"391 187 LINE",
"323 121 OFFCURVE",
"270 100 OFFCURVE",
"236 100 CURVE SMOOTH",
"212 100 OFFCURVE",
"194 109 OFFCURVE",
"194 132 CURVE SMOOTH",
"194 160 OFFCURVE",
"222 172 OFFCURVE",
"253 173 CURVE SMOOTH",
"280 174 OFFCURVE",
"328 170 OFFCURVE",
"391 138 CURVE",
"391 222 LINE",
"338 250 OFFCURVE",
"289 270 OFFCURVE",
"221 270 CURVE SMOOTH",
"140 270 OFFCURVE",
"42 223 OFFCURVE",
"41 126 CURVE SMOOTH",
"40 30 OFFCURVE",
"119 -13 OFFCURVE",
"191 -13 CURVE SMOOTH"
);
}
);
};
layerId = "EB38A4D2-CD30-49BA-8E45-1F04A566FFE8";
paths = (
{
closed = 1;
nodes = (
"504 -7 OFFCURVE",
"536 4 OFFCURVE",
"553 13 CURVE",
"526 110 LINE",
"521 108 OFFCURVE",
"514 106 OFFCURVE",
"504 106 CURVE SMOOTH",
"492 106 OFFCURVE",
"481 113 OFFCURVE",
"481 133 CURVE SMOOTH",
"481 262 LINE SMOOTH",
"481 366 OFFCURVE",
"413 439 OFFCURVE",
"271 439 CURVE SMOOTH",
"210 439 OFFCURVE",
"136 422 OFFCURVE",
"64 392 CURVE",
"91 288 LINE",
"151 311 OFFCURVE",
"209 324 OFFCURVE",
"251 324 CURVE SMOOTH",
"305 324 OFFCURVE",
"350 306 OFFCURVE",
"350 268 CURVE SMOOTH",
"350 120 LINE SMOOTH",
"350 37 OFFCURVE",
"403 -7 OFFCURVE",
"464 -7 CURVE SMOOTH"
);
},
{
closed = 1;
nodes = (
"257 -13 OFFCURVE",
"324 26 OFFCURVE",
"386 98 CURVE",
"389 187 LINE",
"320 121 OFFCURVE",
"253 100 OFFCURVE",
"223 100 CURVE SMOOTH",
"196 100 OFFCURVE",
"174 109 OFFCURVE",
"174 132 CURVE SMOOTH",
"174 160 OFFCURVE",
"208 172 OFFCURVE",
"245 173 CURVE SMOOTH",
"277 173 OFFCURVE",
"325 170 OFFCURVE",
"389 138 CURVE",
"389 222 LINE",
"336 250 OFFCURVE",
"292 270 OFFCURVE",
"217 270 CURVE SMOOTH",
"134 270 OFFCURVE",
"37 224 OFFCURVE",
"36 126 CURVE SMOOTH",
"35 32 OFFCURVE",
"104 -13 OFFCURVE",
"182 -13 CURVE SMOOTH"
);
}
);
width = 559;
},
{
anchors = (
{
name = bottom;
position = "{318, -12}";
},
{
name = ogonek;
position = "{959, 20}";
},
{
name = top;
position = "{486, 440}";
}
);
background = {
anchors = (
{
name = bottom;
position = "{318, -12}";
},
{
name = ogonek;
position = "{959, 20}";
},
{
name = top;
position = "{498, 440}";
}
);
paths = (
{
closed = 1;
nodes = (
"902 -11 OFFCURVE",
"934 4 OFFCURVE",
"959 20 CURVE",
"926 115 LINE",
"912 107 OFFCURVE",
"900 103 OFFCURVE",
"882 103 CURVE SMOOTH",
"858 103 OFFCURVE",
"835 118 OFFCURVE",
"835 155 CURVE SMOOTH",
"835 209 LINE SMOOTH",
"835 353 OFFCURVE",
"716 443 OFFCURVE",
"512 443 CURVE SMOOTH",
"368 443 OFFCURVE",
"247 425 OFFCURVE",
"112 395 CURVE",
"133 293 LINE",
"265 318 OFFCURVE",
"352 330 OFFCURVE",
"484 330 CURVE SMOOTH",
"623 330 OFFCURVE",
"703 287 OFFCURVE",
"703 203 CURVE SMOOTH",
"703 142 LINE SMOOTH",
"703 41 OFFCURVE",
"770 -11 OFFCURVE",
"846 -11 CURVE SMOOTH"
);
},
{
closed = 1;
nodes = (
"464 -11 OFFCURVE",
"631 35 OFFCURVE",
"742 88 CURVE",
"744 151 LINE",
"631 118 OFFCURVE",
"450 96 OFFCURVE",
"359 96 CURVE SMOOTH",
"275 96 OFFCURVE",
"239 109 OFFCURVE",
"239 139 CURVE SMOOTH",
"239 172 OFFCURVE",
"288 186 OFFCURVE",
"384 186 CURVE SMOOTH",
"499 186 OFFCURVE",
"619 174 OFFCURVE",
"744 156 CURVE",
"744 222 LINE",
"642 248 OFFCURVE",
"497 275 OFFCURVE",
"359 275 CURVE SMOOTH",
"196 275 OFFCURVE",
"85 235 OFFCURVE",
"85 130 CURVE SMOOTH",
"85 30 OFFCURVE",
"187 -10 OFFCURVE",
"322 -10 CURVE SMOOTH"
);
}
);
};
layerId = "C70E3B11-AF58-44B6-92D7-58C9185F522D";
paths = (
{
closed = 1;
nodes = (
"902 -11 OFFCURVE",
"934 4 OFFCURVE",
"959 20 CURVE",
"926 115 LINE",
"912 107 OFFCURVE",
"900 103 OFFCURVE",
"882 103 CURVE SMOOTH",
"858 103 OFFCURVE",
"835 118 OFFCURVE",
"835 155 CURVE SMOOTH",
"835 209 LINE SMOOTH",
"835 353 OFFCURVE",
"716 443 OFFCURVE",
"512 443 CURVE SMOOTH",
"368 443 OFFCURVE",
"247 425 OFFCURVE",
"112 395 CURVE",
"133 293 LINE",
"265 318 OFFCURVE",
"352 330 OFFCURVE",
"484 330 CURVE SMOOTH",
"623 330 OFFCURVE",
"703 287 OFFCURVE",
"703 203 CURVE SMOOTH",
"703 142 LINE SMOOTH",
"703 41 OFFCURVE",
"770 -11 OFFCURVE",
"846 -11 CURVE SMOOTH"
);
},
{
closed = 1;
nodes = (
"464 -11 OFFCURVE",
"631 35 OFFCURVE",
"742 88 CURVE",
"744 151 LINE",
"631 118 OFFCURVE",
"450 96 OFFCURVE",
"359 96 CURVE SMOOTH",
"275 96 OFFCURVE",
"239 109 OFFCURVE",
"239 139 CURVE SMOOTH",
"239 172 OFFCURVE",
"288 186 OFFCURVE",
"384 186 CURVE SMOOTH",
"499 186 OFFCURVE",
"619 174 OFFCURVE",
"744 156 CURVE",
"744 222 LINE",
"642 248 OFFCURVE",
"497 275 OFFCURVE",
"359 275 CURVE SMOOTH",
"196 275 OFFCURVE",
"85 235 OFFCURVE",
"85 130 CURVE SMOOTH",
"85 30 OFFCURVE",
"187 -10 OFFCURVE",
"322 -10 CURVE SMOOTH"
);
}
);
width = 971;
}
);
leftKerningGroup = a;
rightKerningGroup = n;
rightMetricsKey = "=n";
unicode = 0061;
},
{
glyphname = a.alt;
lastChange = "2016-01-15 16:42:16 +0000";
layers = (
{
anchors = (
{
name = bottom;
position = "{344, -12}";
},
{
name = ogonek;
position = "{917, 22}";
},
{
name = top;
position = "{461, 440}";
}
);
background = {
anchors = (
{
name = bottom;
position = "{344, -12}";
},
{
name = ogonek;
position = "{917, 22}";
},
{
name = top;
position = "{461, 440}";
}
);
paths = (
{
closed = 1;
nodes = (
"928 -6 OFFCURVE",
"955 65 OFFCURVE",
"955 124 CURVE SMOOTH",
"955 140 LINE",
"925 140 LINE",
"925 124 LINE SMOOTH",
"925 65 OFFCURVE",
"900 22 OFFCURVE",
"850 22 CURVE SMOOTH",
"794 22 OFFCURVE",
"770 65 OFFCURVE",
"770 136 CURVE",
"770 236 LINE SMOOTH",
"770 356 OFFCURVE",
"680 440 OFFCURVE",
"491 440 CURVE SMOOTH",
"372 440 OFFCURVE",
"250 415 OFFCURVE",
"119 372 CURVE",
"128 344 LINE",
"251 383 OFFCURVE",
"367 413 OFFCURVE",
"491 413 CURVE SMOOTH",
"665 413 OFFCURVE",
"740 337 OFFCURVE",
"740 236 CURVE SMOOTH",
"740 136 LINE",
"740 53 OFFCURVE",
"772 -6 OFFCURVE",
"847 -6 CURVE SMOOTH"
);
},
{
closed = 1;
nodes = (
"470 -12 OFFCURVE",
"623 24 OFFCURVE",
"754 91 CURVE",
"754 118 LINE",
"617 53 OFFCURVE",
"468 16 OFFCURVE",
"338 16 CURVE SMOOTH",
"227 16 OFFCURVE",
"132 40 OFFCURVE",
"132 115 CURVE",
"132 194 OFFCURVE",
"242 220 OFFCURVE",
"391 220 CURVE SMOOTH",
"515 220 OFFCURVE",
"649 202 OFFCURVE",
"754 184 CURVE",
"754 211 LINE",
"649 229 OFFCURVE",
"517 247 OFFCURVE",
"372 247 CURVE SMOOTH",
"226 247 OFFCURVE",
"102 214 OFFCURVE",
"102 115 CURVE",
"102 19 OFFCURVE",
"193 -12 OFFCURVE",
"338 -12 CURVE SMOOTH"
);
}
);
};
layerId = "B29C398E-974A-40D0-A0A0-00935056D4B4";
paths = (
{
closed = 1;
nodes = (
"928 -6 OFFCURVE",
"955 65 OFFCURVE",
"955 124 CURVE SMOOTH",
"955 140 LINE",
"925 140 LINE",
"925 124 LINE SMOOTH",
"925 65 OFFCURVE",
"900 22 OFFCURVE",
"850 22 CURVE SMOOTH",
"794 22 OFFCURVE",
"770 65 OFFCURVE",
"770 136 CURVE",
"770 236 LINE SMOOTH",
"770 356 OFFCURVE",
"680 440 OFFCURVE",
"491 440 CURVE SMOOTH",
"372 440 OFFCURVE",
"250 415 OFFCURVE",
"119 372 CURVE",
"128 344 LINE",
"251 383 OFFCURVE",
"367 413 OFFCURVE",
"491 413 CURVE SMOOTH",
"665 413 OFFCURVE",
"740 337 OFFCURVE",
"740 236 CURVE SMOOTH",
"740 136 LINE",
"740 53 OFFCURVE",
"772 -6 OFFCURVE",
"847 -6 CURVE SMOOTH"
);
},
{
closed = 1;
nodes = (
"470 -12 OFFCURVE",
"623 24 OFFCURVE",
"754 91 CURVE",
"754 118 LINE",
"617 53 OFFCURVE",
"468 16 OFFCURVE",
"338 16 CURVE SMOOTH",
"227 16 OFFCURVE",
"132 40 OFFCURVE",
"132 115 CURVE",
"132 194 OFFCURVE",
"242 220 OFFCURVE",
"391 220 CURVE SMOOTH",
"515 220 OFFCURVE",
"649 202 OFFCURVE",
"754 184 CURVE",
"754 211 LINE",
"649 229 OFFCURVE",
"517 247 OFFCURVE",
"372 247 CURVE SMOOTH",
"226 247 OFFCURVE",
"102 214 OFFCURVE",
"102 115 CURVE",
"102 19 OFFCURVE",
"193 -12 OFFCURVE",
"338 -12 CURVE SMOOTH"
);
}
);
width = 973;
},
{
anchors = (
{
name = bottom;
position = "{210, -12}";
},
{
name = ogonek;
position = "{512, 8}";
},
{
name = top;
position = "{262, 440}";
}
);
background = {
anchors = (
{
name = bottom;
position = "{204, -12}";
},
{
name = ogonek;
position = "{493, -16}";
},
{
name = top;
position = "{252, 452}";
}
);
paths = (
{
closed = 1;
nodes = (
"521 -6 OFFCURVE",
"551 31 OFFCURVE",
"551 82 CURVE SMOOTH",
"551 104 LINE",
"523 104 LINE",
"523 82 LINE SMOOTH",
"523 47 OFFCURVE",
"506 22 OFFCURVE",
"475 22 CURVE SMOOTH",
"445 22 OFFCURVE",
"426 44 OFFCURVE",
"426 84 CURVE SMOOTH",
"426 280 LINE SMOOTH",
"426 400 OFFCURVE",
"353 440 OFFCURVE",
"269 440 CURVE SMOOTH",
"199 440 OFFCURVE",
"134 420 OFFCURVE",
"78 395 CURVE",
"86 367 LINE",
"142 392 OFFCURVE",
"199 412 OFFCURVE",
"269 412 CURVE SMOOTH",
"337 412 OFFCURVE",
"397 380 OFFCURVE",
"397 280 CURVE SMOOTH",
"397 84 LINE SMOOTH",
"397 31 OFFCURVE",
"428 -6 OFFCURVE",
"475 -6 CURVE SMOOTH"
);
},
{
closed = 1;
nodes = (
"275 -12 OFFCURVE",
"349 30 OFFCURVE",
"415 80 CURVE",
"415 108 LINE",
"349 55 OFFCURVE",
"278 16 OFFCURVE",
"210 16 CURVE SMOOTH",
"144 16 OFFCURVE",
"84 52 OFFCURVE",
"84 120 CURVE SMOOTH",
"84 193 OFFCURVE",
"156 229 OFFCURVE",
"233 228 CURVE SMOOTH",
"294 227 OFFCURVE",
"349 216 OFFCURVE",
"415 192 CURVE",
"415 220 LINE",
"354 241 OFFCURVE",
"300 256 OFFCURVE",
"233 256 CURVE SMOOTH",
"128 256 OFFCURVE",
"54 202 OFFCURVE",
"54 120 CURVE SMOOTH",
"54 35 OFFCURVE",
"127 -12 OFFCURVE",
"210 -12 CURVE SMOOTH"
);
}
);
};
layerId = "543F9737-16F7-428D-9F96-2EBD9FC8D3B6";
paths = (
{
closed = 1;
nodes = (
"521 -6 OFFCURVE",
"551 31 OFFCURVE",
"551 82 CURVE SMOOTH",
"551 104 LINE",
"523 104 LINE",
"523 82 LINE SMOOTH",
"523 47 OFFCURVE",
"506 22 OFFCURVE",
"475 22 CURVE SMOOTH",
"445 22 OFFCURVE",
"426 44 OFFCURVE",
"426 84 CURVE SMOOTH",
"426 280 LINE SMOOTH",
"426 400 OFFCURVE",
"353 440 OFFCURVE",
"269 440 CURVE SMOOTH",
"199 440 OFFCURVE",
"134 420 OFFCURVE",
"78 395 CURVE",
"86 367 LINE",
"142 392 OFFCURVE",
"199 412 OFFCURVE",
"269 412 CURVE SMOOTH",
"337 412 OFFCURVE",
"397 380 OFFCURVE",
"397 280 CURVE SMOOTH",
"397 84 LINE SMOOTH",
"397 31 OFFCURVE",
"428 -6 OFFCURVE",
"475 -6 CURVE SMOOTH"
);
},
{
closed = 1;
nodes = (
"275 -12 OFFCURVE",
"349 30 OFFCURVE",
"415 80 CURVE",
"415 108 LINE",
"349 55 OFFCURVE",
"278 16 OFFCURVE",
"210 16 CURVE SMOOTH",
"144 16 OFFCURVE",
"84 52 OFFCURVE",
"84 120 CURVE SMOOTH",
"84 193 OFFCURVE",
"156 229 OFFCURVE",
"233 228 CURVE SMOOTH",
"294 227 OFFCURVE",
"349 216 OFFCURVE",
"415 192 CURVE",
"415 220 LINE",
"354 241 OFFCURVE",
"300 256 OFFCURVE",
"233 256 CURVE SMOOTH",
"128 256 OFFCURVE",
"54 202 OFFCURVE",
"54 120 CURVE SMOOTH",
"54 35 OFFCURVE",
"127 -12 OFFCURVE",
"210 -12 CURVE SMOOTH"
);
}
);
width = 557;
},
{
anchors = (
{
name = bottom;
position = "{191, -12}";
},
{
name = ogonek;
position = "{547, 13}";
},
{
name = top;
position = "{271, 440}";
}
);
background = {
paths = (
{
closed = 1;
nodes = (
"533 -7 OFFCURVE",
"584 32 OFFCURVE",
"584 108 CURVE SMOOTH",
"584 172 LINE",
"516 172 LINE",
"516 107 LINE SMOOTH",
"516 94 OFFCURVE",
"512 82 OFFCURVE",
"498 82 CURVE SMOOTH",
"485 82 OFFCURVE",
"481 95 OFFCURVE",
"481 106 CURVE SMOOTH",
"481 262 LINE SMOOTH",
"481 366 OFFCURVE",
"413 439 OFFCURVE",
"277 439 CURVE SMOOTH",
"204 439 OFFCURVE",
"152 421 OFFCURVE",
"71 386 CURVE",
"101 282 LINE",
"166 308 OFFCURVE",
"212 324 OFFCURVE",
"266 324 CURVE SMOOTH",
"317 324 OFFCURVE",
"350 306 OFFCURVE",
"350 268 CURVE SMOOTH",
"350 108 LINE SMOOTH",
"350 38 OFFCURVE",
"395 -7 OFFCURVE",
"469 -7 CURVE SMOOTH"
);
},
{
closed = 1;
nodes = (
"269 -13 OFFCURVE",
"332 26 OFFCURVE",
"395 98 CURVE",
"397 187 LINE",
"329 121 OFFCURVE",
"276 100 OFFCURVE",
"242 100 CURVE SMOOTH",
"218 100 OFFCURVE",
"200 109 OFFCURVE",
"200 132 CURVE SMOOTH",
"200 160 OFFCURVE",
"228 172 OFFCURVE",
"259 173 CURVE SMOOTH",
"286 174 OFFCURVE",
"334 170 OFFCURVE",
"397 138 CURVE",
"397 222 LINE",
"344 250 OFFCURVE",
"295 270 OFFCURVE",
"227 270 CURVE SMOOTH",
"146 270 OFFCURVE",
"48 223 OFFCURVE",
"47 126 CURVE SMOOTH",
"46 30 OFFCURVE",
"125 -13 OFFCURVE",
"197 -13 CURVE SMOOTH"
);
}
);
};
layerId = "EB38A4D2-CD30-49BA-8E45-1F04A566FFE8";
paths = (
{
closed = 1;
nodes = (
"533 -7 OFFCURVE",
"584 32 OFFCURVE",
"584 108 CURVE SMOOTH",
"584 172 LINE",
"516 172 LINE",
"516 107 LINE SMOOTH",
"516 94 OFFCURVE",
"512 82 OFFCURVE",
"498 82 CURVE SMOOTH",
"485 82 OFFCURVE",
"481 95 OFFCURVE",
"481 106 CURVE SMOOTH",
"481 262 LINE SMOOTH",
"481 366 OFFCURVE",
"413 439 OFFCURVE",
"277 439 CURVE SMOOTH",
"204 439 OFFCURVE",
"152 421 OFFCURVE",
"71 386 CURVE",
"101 282 LINE",
"166 308 OFFCURVE",
"212 324 OFFCURVE",
"266 324 CURVE SMOOTH",
"317 324 OFFCURVE",
"350 306 OFFCURVE",
"350 268 CURVE SMOOTH",
"350 108 LINE SMOOTH",
"350 38 OFFCURVE",
"395 -7 OFFCURVE",
"469 -7 CURVE SMOOTH"
);
},
{
closed = 1;
nodes = (
"257 -13 OFFCURVE",
"324 26 OFFCURVE",
"386 98 CURVE",
"389 187 LINE",
"320 121 OFFCURVE",
"256 100 OFFCURVE",
"226 100 CURVE SMOOTH",
"198 100 OFFCURVE",
"174 109 OFFCURVE",
"174 132 CURVE SMOOTH",
"174 160 OFFCURVE",
"208 172 OFFCURVE",
"245 173 CURVE SMOOTH",
"277 173 OFFCURVE",
"325 170 OFFCURVE",
"389 138 CURVE",
"389 222 LINE",
"336 250 OFFCURVE",
"292 270 OFFCURVE",
"217 270 CURVE SMOOTH",
"134 270 OFFCURVE",
"37 224 OFFCURVE",
"36 126 CURVE SMOOTH",
"35 32 OFFCURVE",
"104 -13 OFFCURVE",
"182 -13 CURVE SMOOTH"
);
}
);
width = 557;
},
{
anchors = (
{
name = bottom;
position = "{318, -12}";
},
{
name = ogonek;
position = "{959, 20}";
},
{
name = top;
position = "{486, 440}";
}
);
background = {
anchors = (
{
name = bottom;
position = "{523, -13}";
},
{
name = ogonek;
position = "{932, 11}";
},
{
name = top;
position = "{523, 443}";
}
);
paths = (
{
closed = 1;
nodes = (
"958 -6 OFFCURVE",
"1000 67 OFFCURVE",
"1000 151 CURVE SMOOTH",
"1000 209 LINE",
"929 209 LINE",
"929 150 LINE SMOOTH",
"929 112 OFFCURVE",
"917 83 OFFCURVE",
"883 83 CURVE SMOOTH",
"845 83 OFFCURVE",
"835 115 OFFCURVE",
"835 158 CURVE",
"835 209 LINE SMOOTH",
"835 353 OFFCURVE",
"716 443 OFFCURVE",
"524 443 CURVE SMOOTH",
"379 443 OFFCURVE",
"244 425 OFFCURVE",
"112 395 CURVE",
"133 287 LINE",
"265 314 OFFCURVE",
"371 329 OFFCURVE",
"491 329 CURVE SMOOTH",
"612 329 OFFCURVE",
"703 287 OFFCURVE",
"703 203 CURVE SMOOTH",
"703 161 LINE",
"703 61 OFFCURVE",
"749 -6 OFFCURVE",
"858 -6 CURVE SMOOTH"
);
},
{
closed = 1;
nodes = (
"464 -11 OFFCURVE",
"631 35 OFFCURVE",
"742 88 CURVE",
"744 151 LINE",
"631 118 OFFCURVE",
"450 96 OFFCURVE",
"359 96 CURVE SMOOTH",
"275 96 OFFCURVE",
"239 109 OFFCURVE",
"239 139 CURVE SMOOTH",
"239 172 OFFCURVE",
"288 186 OFFCURVE",
"384 186 CURVE SMOOTH",
"499 186 OFFCURVE",
"619 174 OFFCURVE",
"744 156 CURVE",
"744 222 LINE",
"642 248 OFFCURVE",
"497 275 OFFCURVE",
"359 275 CURVE SMOOTH",
"196 275 OFFCURVE",
"85 235 OFFCURVE",
"85 130 CURVE SMOOTH",
"85 30 OFFCURVE",
"187 -10 OFFCURVE",
"322 -10 CURVE SMOOTH"
);
}
);
};
layerId = "C70E3B11-AF58-44B6-92D7-58C9185F522D";
paths = (
{
closed = 1;
nodes = (
"958 -6 OFFCURVE",
"1000 67 OFFCURVE",
"1000 151 CURVE SMOOTH",
"1000 209 LINE",
"929 209 LINE",
"929 150 LINE SMOOTH",
"929 112 OFFCURVE",
"917 83 OFFCURVE",
"883 83 CURVE SMOOTH",
"845 83 OFFCURVE",
"835 115 OFFCURVE",
"835 158 CURVE",
"835 209 LINE SMOOTH",
"835 353 OFFCURVE",
"716 443 OFFCURVE",
"524 443 CURVE SMOOTH",
"379 443 OFFCURVE",
"244 425 OFFCURVE",
"112 395 CURVE",
"133 287 LINE",
"265 314 OFFCURVE",
"371 329 OFFCURVE",
"491 329 CURVE SMOOTH",
"612 329 OFFCURVE",
"703 287 OFFCURVE",
"703 203 CURVE SMOOTH",
"703 161 LINE",
"703 61 OFFCURVE",
"749 -6 OFFCURVE",
"858 -6 CURVE SMOOTH"
);
},
{
closed = 1;
nodes = (
"464 -11 OFFCURVE",
"631 35 OFFCURVE",
"742 88 CURVE",
"744 151 LINE",
"631 118 OFFCURVE",
"450 96 OFFCURVE",
"359 96 CURVE SMOOTH",
"275 96 OFFCURVE",
"239 109 OFFCURVE",
"239 139 CURVE SMOOTH",
"239 172 OFFCURVE",
"288 186 OFFCURVE",
"384 186 CURVE SMOOTH",
"499 186 OFFCURVE",
"619 174 OFFCURVE",
"744 156 CURVE",
"744 222 LINE",
"642 248 OFFCURVE",
"497 275 OFFCURVE",
"359 275 CURVE SMOOTH",
"196 275 OFFCURVE",
"85 235 OFFCURVE",
"85 130 CURVE SMOOTH",
"85 30 OFFCURVE",
"187 -10 OFFCURVE",
"322 -10 CURVE SMOOTH"
);
}
);
width = 1002;
}
);
leftKerningGroup = a;
rightKerningGroup = n;
},
{
glyphname = a.alt2;
lastChange = "2016-01-15 16:42:16 +0000";
layers = (
{
anchors = (
{
name = bottom;
position = "{509, -12}";
},
{
name = ogonek;
position = "{953, -2}";
},
{
name = top;
position = "{509, 440}";
}
);
background = {
anchors = (
{
name = bottom;
position = "{509, -24}";
},
{
name = ogonek;
position = "{953, -2}";
},
{
name = top;
position = "{509, 452}";
}
);
paths = (
{
closed = 1;
nodes = (
"538 -13 OFFCURVE",
"684 64 OFFCURVE",
"823 164 CURVE",
"823 192 LINE",
"673 86 OFFCURVE",
"518 14 OFFCURVE",
"382 14 CURVE",
"222 14 OFFCURVE",
"126 88 OFFCURVE",
"126 193 CURVE",
"126 325 OFFCURVE",
"277 413 OFFCURVE",
"460 412 CURVE",
"602 413 OFFCURVE",
"738 361 OFFCURVE",
"827 313 CURVE",
"827 340 LINE",
"740 389 OFFCURVE",
"614 439 OFFCURVE",
"460 439 CURVE",
"264 439 OFFCURVE",
"96 347 OFFCURVE",
"96 193 CURVE",
"96 64 OFFCURVE",
"210 -13 OFFCURVE",
"382 -13 CURVE"
);
},
{
closed = 1;
nodes = (
"950 -12 OFFCURVE",
"983 2 OFFCURVE",
"1012 23 CURVE",
"1000 47 LINE",
"972 26 OFFCURVE",
"947 16 OFFCURVE",
"914 16 CURVE SMOOTH",
"875 16 OFFCURVE",
"838 46 OFFCURVE",
"838 113 CURVE SMOOTH",
"838 428 LINE",
"808 422 LINE",
"808 113 LINE SMOOTH",
"808 34 OFFCURVE",
"852 -12 OFFCURVE",
"913 -12 CURVE SMOOTH"
);
}
);
};
layerId = "B29C398E-974A-40D0-A0A0-00935056D4B4";
paths = (
{
closed = 1;
nodes = (
"538 -13 OFFCURVE",
"684 64 OFFCURVE",
"823 164 CURVE",
"823 192 LINE",
"673 86 OFFCURVE",
"518 14 OFFCURVE",
"382 14 CURVE",
"222 14 OFFCURVE",
"126 88 OFFCURVE",
"126 193 CURVE",
"126 325 OFFCURVE",
"277 413 OFFCURVE",
"460 412 CURVE",
"602 413 OFFCURVE",
"738 361 OFFCURVE",
"827 313 CURVE",
"827 340 LINE",
"740 389 OFFCURVE",
"614 439 OFFCURVE",
"460 439 CURVE",
"264 439 OFFCURVE",
"96 347 OFFCURVE",
"96 193 CURVE",
"96 64 OFFCURVE",
"210 -13 OFFCURVE",
"382 -13 CURVE"
);
},
{
closed = 1;
nodes = (
"950 -12 OFFCURVE",
"983 2 OFFCURVE",
"1012 23 CURVE",
"1000 47 LINE",
"972 26 OFFCURVE",
"947 16 OFFCURVE",
"914 16 CURVE SMOOTH",
"875 16 OFFCURVE",
"838 46 OFFCURVE",
"838 113 CURVE SMOOTH",
"838 428 LINE",
"817 428 LINE",
"808 350 LINE",
"808 113 LINE SMOOTH",
"808 34 OFFCURVE",
"852 -12 OFFCURVE",
"913 -12 CURVE SMOOTH"
);
}
);
width = 1030;
},
{
anchors = (
{
name = bottom;
position = "{253, -12}";
},
{
name = ogonek;
position = "{546, 2}";
},
{
name = top;
position = "{269, 452}";
}
);
background = {
anchors = (
{
name = bottom;
position = "{257, -12}";
},
{
name = ogonek;
position = "{538, -2}";
},
{
name = top;
position = "{257, 440}";
}
);
paths = (
{
closed = 1;
nodes = (
"336 -12 OFFCURVE",
"402 37 OFFCURVE",
"446 80 CURVE",
"446 113 LINE",
"396 62 OFFCURVE",
"336 17 OFFCURVE",
"253 16 CURVE SMOOTH",
"160 14 OFFCURVE",
"84 86 OFFCURVE",
"84 205 CURVE SMOOTH",
"84 326 OFFCURVE",
"168 414 OFFCURVE",
"268 414 CURVE SMOOTH",
"348 414 OFFCURVE",
"406 373 OFFCURVE",
"455 322 CURVE",
"455 349 LINE",
"406 400 OFFCURVE",
"348 440 OFFCURVE",
"268 440 CURVE SMOOTH",
"155 440 OFFCURVE",
"54 348 OFFCURVE",
"54 204 CURVE SMOOTH",
"54 71 OFFCURVE",
"144 -12 OFFCURVE",
"253 -12 CURVE SMOOTH"
);
},
{
closed = 1;
nodes = (
"517 -12 OFFCURVE",
"534 -6 OFFCURVE",
"546 2 CURVE",
"539 29 LINE",
"530 22 OFFCURVE",
"515 17 OFFCURVE",
"499 17 CURVE SMOOTH",
"475 17 OFFCURVE",
"460 35 OFFCURVE",
"460 82 CURVE SMOOTH",
"460 428 LINE",
"431 422 LINE",
"431 82 LINE SMOOTH",
"431 22 OFFCURVE",
"454 -12 OFFCURVE",
"498 -12 CURVE SMOOTH"
);
}
);
};
layerId = "543F9737-16F7-428D-9F96-2EBD9FC8D3B6";
paths = (
{
closed = 1;
nodes = (
"336 -12 OFFCURVE",
"402 37 OFFCURVE",
"446 80 CURVE",
"446 113 LINE",
"396 62 OFFCURVE",
"336 17 OFFCURVE",
"253 16 CURVE SMOOTH",
"160 14 OFFCURVE",
"84 86 OFFCURVE",
"84 205 CURVE SMOOTH",
"84 326 OFFCURVE",
"168 414 OFFCURVE",
"268 414 CURVE SMOOTH",
"348 414 OFFCURVE",
"406 373 OFFCURVE",
"455 322 CURVE",
"455 349 LINE",
"406 400 OFFCURVE",
"348 440 OFFCURVE",
"268 440 CURVE SMOOTH",
"155 440 OFFCURVE",
"54 348 OFFCURVE",
"54 204 CURVE SMOOTH",
"54 71 OFFCURVE",
"144 -12 OFFCURVE",
"253 -12 CURVE SMOOTH"
);
},
{
closed = 1;
nodes = (
"517 -12 OFFCURVE",
"534 -6 OFFCURVE",
"546 2 CURVE",
"539 29 LINE",
"530 22 OFFCURVE",
"515 17 OFFCURVE",
"499 17 CURVE SMOOTH",
"475 17 OFFCURVE",
"460 35 OFFCURVE",
"460 82 CURVE SMOOTH",
"460 442 LINE",
"439 442 LINE",
"431 359 LINE",
"431 82 LINE SMOOTH",
"431 22 OFFCURVE",
"454 -12 OFFCURVE",
"498 -12 CURVE SMOOTH"
);
}
);
width = 552;
},
{
anchors = (
{
name = bottom;
position = "{238, -14}";
},
{
name = ogonek;
position = "{589, 14}";
},
{
name = top;
position = "{300, 440}";
}
);
background = {
anchors = (
{
name = bottom;
position = "{238, -14}";
},
{
name = ogonek;
position = "{589, 14}";
},
{
name = top;
position = "{234, 440}";
}
);
paths = (
{
closed = 1;
nodes = (
"350 -13 OFFCURVE",
"414 70 OFFCURVE",
"460 118 CURVE",
"460 217 LINE",
"409 167 OFFCURVE",
"343 104 OFFCURVE",
"278 103 CURVE SMOOTH",
"208 102 OFFCURVE",
"168 150 OFFCURVE",
"168 212 CURVE SMOOTH",
"168 278 OFFCURVE",
"214 326 OFFCURVE",
"289 326 CURVE SMOOTH",
"353 326 OFFCURVE",
"419 270 OFFCURVE",
"457 218 CURVE",
"457 311 LINE",
"420 361 OFFCURVE",
"362 440 OFFCURVE",
"253 440 CURVE SMOOTH",
"120 440 OFFCURVE",
"24 342 OFFCURVE",
"24 212 CURVE SMOOTH",
"24 83 OFFCURVE",
"125 -13 OFFCURVE",
"238 -13 CURVE SMOOTH"
);
},
{
closed = 1;
nodes = (
"540 -6 OFFCURVE",
"566 5 OFFCURVE",
"589 14 CURVE",
"562 110 LINE",
"556 109 OFFCURVE",
"553 108 OFFCURVE",
"545 108 CURVE SMOOTH",
"532 108 OFFCURVE",
"518 113 OFFCURVE",
"518 136 CURVE SMOOTH",
"518 443 LINE",
"379 416 LINE",
"379 121 LINE SMOOTH",
"379 42 OFFCURVE",
"433 -6 OFFCURVE",
"500 -6 CURVE SMOOTH"
);
}
);
};
layerId = "EB38A4D2-CD30-49BA-8E45-1F04A566FFE8";
paths = (
{
closed = 1;
nodes = (
"350 -13 OFFCURVE",
"414 70 OFFCURVE",
"460 118 CURVE",
"460 217 LINE",
"409 167 OFFCURVE",
"343 104 OFFCURVE",
"278 103 CURVE SMOOTH",
"208 102 OFFCURVE",
"168 150 OFFCURVE",
"168 212 CURVE SMOOTH",
"168 278 OFFCURVE",
"214 326 OFFCURVE",
"289 326 CURVE SMOOTH",
"353 326 OFFCURVE",
"419 270 OFFCURVE",
"457 218 CURVE",
"457 311 LINE",
"420 361 OFFCURVE",
"362 440 OFFCURVE",
"253 440 CURVE SMOOTH",
"120 440 OFFCURVE",
"24 342 OFFCURVE",
"24 212 CURVE SMOOTH",
"24 83 OFFCURVE",
"125 -13 OFFCURVE",
"238 -13 CURVE SMOOTH"
);
},
{
closed = 1;
nodes = (
"540 -6 OFFCURVE",
"566 5 OFFCURVE",
"589 14 CURVE",
"562 110 LINE",
"556 109 OFFCURVE",
"553 108 OFFCURVE",
"545 108 CURVE SMOOTH",
"532 108 OFFCURVE",
"518 113 OFFCURVE",
"518 136 CURVE SMOOTH",
"518 442 LINE",
"439 442 LINE",
"383 384 LINE",
"383 121 LINE SMOOTH",
"383 42 OFFCURVE",
"433 -6 OFFCURVE",
"500 -6 CURVE SMOOTH"
);
}
);
width = 580;
},
{
anchors = (
{
name = bottom;
position = "{484, -16}";
},
{
name = ogonek;
position = "{998, 14}";
},
{
name = top;
position = "{480, 439}";
}
);
background = {
anchors = (
{
name = bottom;
position = "{484, -26}";
},
{
name = ogonek;
position = "{998, 14}";
},
{
name = top;
position = "{480, 452}";
}
);
paths = (
{
closed = 1;
nodes = (
"544 -14 OFFCURVE",
"690 72 OFFCURVE",
"830 166 CURVE",
"830 260 LINE",
"677 161 OFFCURVE",
"508 102 OFFCURVE",
"383 102 CURVE SMOOTH",
"268 102 OFFCURVE",
"204 140 OFFCURVE",
"204 208 CURVE SMOOTH",
"204 276 OFFCURVE",
"287 325 OFFCURVE",
"421 325 CURVE SMOOTH",
"559 325 OFFCURVE",
"720 296 OFFCURVE",
"823 252 CURVE",
"823 343 LINE",
"727 386 OFFCURVE",
"583 439 OFFCURVE",
"402 439 CURVE SMOOTH",
"216 439 OFFCURVE",
"60 349 OFFCURVE",
"60 200 CURVE SMOOTH",
"60 59 OFFCURVE",
"186 -14 OFFCURVE",
"358 -14 CURVE SMOOTH"
);
},
{
closed = 1;
nodes = (
"959 -11 OFFCURVE",
"990 4 OFFCURVE",
"1015 20 CURVE",
"983 115 LINE",
"970 108 OFFCURVE",
"956 103 OFFCURVE",
"938 103 CURVE SMOOTH",
"914 103 OFFCURVE",
"892 118 OFFCURVE",
"892 167 CURVE SMOOTH",
"892 442 LINE",
"751 416 LINE",
"751 142 LINE SMOOTH",
"751 41 OFFCURVE",
"818 -11 OFFCURVE",
"902 -11 CURVE SMOOTH"
);
}
);
};
layerId = "C70E3B11-AF58-44B6-92D7-58C9185F522D";
paths = (
{
closed = 1;
nodes = (
"544 -14 OFFCURVE",
"690 72 OFFCURVE",
"830 166 CURVE",
"830 260 LINE",
"677 161 OFFCURVE",
"508 102 OFFCURVE",
"383 102 CURVE SMOOTH",
"268 102 OFFCURVE",
"204 140 OFFCURVE",
"204 208 CURVE SMOOTH",
"204 276 OFFCURVE",
"287 325 OFFCURVE",
"421 325 CURVE SMOOTH",
"559 325 OFFCURVE",
"720 296 OFFCURVE",
"823 252 CURVE",
"823 343 LINE",
"727 386 OFFCURVE",
"583 439 OFFCURVE",
"402 439 CURVE SMOOTH",
"216 439 OFFCURVE",
"60 349 OFFCURVE",
"60 200 CURVE SMOOTH",
"60 59 OFFCURVE",
"186 -14 OFFCURVE",
"358 -14 CURVE SMOOTH"
);
},
{
closed = 1;
nodes = (
"959 -11 OFFCURVE",
"990 4 OFFCURVE",
"1015 20 CURVE",
"983 115 LINE",
"970 108 OFFCURVE",
"956 103 OFFCURVE",
"938 103 CURVE SMOOTH",
"914 103 OFFCURVE",
"892 118 OFFCURVE",
"892 167 CURVE SMOOTH",
"892 442 LINE",
"812 442 LINE",
"754 336 LINE",
"754 142 LINE SMOOTH",
"754 41 OFFCURVE",
"818 -11 OFFCURVE",
"902 -11 CURVE SMOOTH"
);
}
);
width = 1018;
}
);
leftKerningGroup = o;
leftMetricsKey = "=d";
rightKerningGroup = u;
rightMetricsKey = d.alt;
},
